<?xml version="1.0" standalone="no"?>
<!DOCTYPE svg PUBLIC "-//W3C//DTD SVG 1.1//EN" "http://www.w3.org/Graphics/SVG/1.1/DTD/svg11.dtd" >
<svg>
<metadata>
Created by FontForge 20090914 at Wed May 23 10:54:04 2012
 By www-data
modified (aar, 2006) | Copyright 2005 Monotype Imaging, Inc. All rights reserved. Neo Sans is designed by Sebastian Lester.
</metadata>
<defs>
<font id="NeoSansCyr-Regular" horiz-adv-x="1239" >
  <font-face 
    font-family="Neo Sans Cyr"
    font-weight="400"
    font-stretch="normal"
    units-per-em="2048"
    panose-1="2 11 5 3 0 0 0 0 0 4"
    ascent="1638"
    descent="-410"
    x-height="1126"
    cap-height="1522"
    bbox="-72 -442 2241 1946"
    underline-thickness="117"
    underline-position="-42"
    unicode-range="U+0020-U+2219"
  />
<missing-glyph horiz-adv-x="2048" 
d="M256 0v1536h1536v-1536h-1536zM384 128h1280v1280h-1280v-1280z" />
    <glyph glyph-name=".notdef" horiz-adv-x="2048" 
d="M256 0v1536h1536v-1536h-1536zM384 128h1280v1280h-1280v-1280z" />
    <glyph glyph-name="space" unicode=" " horiz-adv-x="506" 
 />
    <glyph glyph-name="exclam" unicode="!" horiz-adv-x="444" 
d="M315 1501l-15.999 -1065c0 -10.667 -3.83301 -19.834 -11.5 -27.501s-16.834 -11.5 -27.501 -11.5h-74c-10 0 -19.167 4 -27.5 12s-12.833 17 -13.5 27l-14 1065c0 11.333 4.16699 20.666 12.5 27.999s17.833 11 28.5 11h102c10.667 0 20.167 -3.83301 28.5 -11.5
s12.5 -16.834 12.5 -27.501zM311.001 39.0029c0 -26 -13.001 -39.0029 -39.001 -39.0029h-98c-10.667 -0 -19.834 3.83301 -27.501 11.5s-11.5 16.834 -11.5 27.501v192c0 10.667 3.83301 19.834 11.5 27.501s16.834 11.5 27.501 11.5h98
c10.667 0 19.834 -3.66699 27.501 -11s11.5 -16.666 11.5 -27.999v-192z" />
    <glyph glyph-name="quotedbl" unicode="&#x22;" horiz-adv-x="741" 
d="M682 1518l-0.000976562 -8.00098c0 -2.66699 -0.666992 -5.66699 -2 -9l-119 -387c-4 -14.667 -8.83301 -24.834 -14.5 -30.501s-13.834 -8.5 -24.501 -8.5h-96c-7.33301 0 -12.166 1.83301 -14.499 5.5s-3.5 8.83398 -3.5 15.501v9c0 2.66699 0.666992 5.66699 2 9
l94 387c3.33301 14.667 8.33301 24.834 15 30.501s15.334 8.5 26.001 8.5h114c15.333 0 23 -7.33301 23 -22zM333.999 1518v-8.00098c0 -2.66699 -0.666992 -5.66699 -2 -9l-119 -387c-4 -14.667 -8.83301 -24.834 -14.5 -30.501s-13.834 -8.5 -24.501 -8.5h-96
c-7.33301 0 -12.333 1.83301 -15 5.5s-4 8.83398 -4 15.501v9c0 2.66699 0.666992 5.66699 2 9l95 387c3.33301 14.667 8.33301 24.834 15 30.501s15.334 8.5 26.001 8.5h114c15.333 0 23 -7.33301 23 -22z" />
    <glyph glyph-name="numbersign" unicode="#" horiz-adv-x="1352" 
d="M1249 1044l-3.99902 -44.999c-1.33301 -11.333 -5.66602 -20.5 -12.999 -27.5s-16.666 -10.5 -27.999 -10.5h-198l-37 -414h200c10.667 0 18.834 -4 24.501 -12s8.5 -17 8.5 -27v-4l-4 -43c-1.33301 -11.333 -5.66602 -20.666 -12.999 -27.999s-16.666 -11 -27.999 -11
h-201l-32 -383c-1.33301 -10.667 -5 -19.834 -11 -27.501s-14.667 -11.5 -26 -11.5h-90c-10.667 0 -18.834 3.5 -24.501 10.5s-8.5 15.167 -8.5 24.5v4l33 383h-318l-33 -383c-1.33301 -10.667 -5.16602 -19.834 -11.499 -27.501s-14.5 -11.5 -24.5 -11.5h-93
c-9.33301 0 -17 3.5 -23 10.5s-9 15.167 -9 24.5v4l32 383h-190c-10.667 0 -18.834 3.83301 -24.501 11.5s-8.5 16.834 -8.5 27.501v4l4 43c1.33301 11.333 5.66602 20.666 12.999 27.999s16.666 11 27.999 11h191l37 414h-193c-10 0 -18 3.83301 -24 11.5s-9 16.5 -9 26.5
v5l4 45c1.33301 11.333 5.66602 20.5 12.999 27.5s16.666 10.5 27.999 10.5h191l35 396c1.33301 10 5.5 19 12.5 27s15.833 12 26.5 12h92c9.33301 0 16.666 -3.5 21.999 -10.5s8 -15.167 8 -24.5v-4l-34 -396h317l35 396c1.33301 10 5.33301 19 12 27s15.667 12 27 12h90
c10 0 17.667 -3.5 23 -10.5s8 -15.167 8 -24.5v-4l-35 -396h201c10 0 17.833 -3.83301 23.5 -11.5s8.5 -16.5 8.5 -26.5v-5zM528.001 961.001l-36 -414h317l37 414h-318z" />
    <glyph glyph-name="dollar" unicode="$" 
d="M1081 395c0 -43.333 -5.66309 -86.6641 -16.9961 -129.997s-31.166 -83.333 -59.499 -120s-66.666 -68.5 -114.999 -95.5s-109.166 -45.5 -182.499 -55.5v-193c0 -11.333 -4 -21 -12 -29s-17.667 -12 -29 -12h-97c-11.333 0 -21 4 -29 12s-12 17.667 -12 29v185
c-60.667 1.33301 -114.5 4.5 -161.5 9.5s-90.5 11.167 -130.5 18.5c-17.333 3.33301 -28.166 7.5 -32.499 12.5s-6.5 13.167 -6.5 24.5v84c0 11.333 3.33301 19.666 10 24.999s14.667 8 24 8h7c23.333 -2 49.666 -4 78.999 -6l89.5 -6c30.333 -2 60.166 -3.5 89.499 -4.5
s55.666 -1.5 78.999 -1.5c61.333 0 112.166 6 152.499 18s72.333 28.833 96 50.5s40.167 47.5 49.5 77.5s14 63 14 99c0 26 -4.16699 49.5 -12.5 70.5s-22 41.833 -41 62.5s-44.167 42.334 -75.5 65.001s-70.333 48.334 -117 77.001l-199 121
c-47.333 28.667 -88.5 57 -123.5 85s-64.333 57.167 -88 87.5s-41.334 62.666 -53.001 96.999s-17.5 72.166 -17.5 113.499c0 106 32 188.167 96 246.5s154.667 94.833 272 109.5v176c0 11.333 4 21 12 29s17.667 12 29 12h97c11.333 0 21 -4 29 -12s12 -17.667 12 -29v-170
c27.333 -1.33301 55.166 -2.83301 83.499 -4.5s55.666 -3.83398 81.999 -6.50098s50.833 -5.33398 73.5 -8.00098s42.667 -5.33398 60 -8.00098c10 -2 18.167 -5.66699 24.5 -11s9.5 -13 9.5 -23v-89c0 -10 -3.16699 -17.833 -9.5 -23.5s-14.5 -8.5 -24.5 -8.5h-5
c-22.667 1.33301 -48.167 3 -76.5 5l-89 6c-31 2 -62.333 3.66699 -94 5s-62.5 2 -92.5 2c-52.667 0 -98 -3.33301 -136 -10s-69.167 -17.667 -93.5 -33s-42.333 -35.666 -54 -60.999s-17.5 -56.666 -17.5 -93.999c0 -24 4.33301 -46.167 13 -66.5s22.167 -40 40.5 -59
s41.5 -38.333 69.5 -58s61.333 -41.167 100 -64.5l189 -113c59.333 -35.333 109.333 -69.333 150 -102s73.667 -65.5 99 -98.5s43.666 -67.333 54.999 -103s17 -73.834 17 -114.501z" />
    <glyph glyph-name="percent" unicode="%" horiz-adv-x="1626" 
d="M643 1016c0 -108 -23.5 -190.334 -70.5 -247.001s-114.833 -85 -203.5 -85c-89.333 0 -157.833 28.333 -205.5 85s-71.5 139 -71.5 247v190c0 110.667 24 193.334 72 248.001s116.333 82 205 82c182.667 0 274 -110 274 -330v-190zM516 1016v190
c0 143.333 -49 215 -147 215c-100 0 -150 -71.667 -150 -215v-190c0 -143.333 50 -215 150 -215c98 0 147 71.667 147 215zM1315 1522c10.667 0 16 -4.33203 16 -12.999c0 -6 -3.33301 -14.667 -10 -26l-856 -1450c-16 -27.333 -31 -41 -45 -41h-101
c-13.333 0 -20 5.33301 -20 16c0 7.33301 2.66699 15.666 8 24.999l856 1450c16 26 31.667 39 47 39h105zM1534 317c0 -109.333 -23.833 -191.833 -71.5 -247.5s-115.167 -83.5 -202.5 -83.5c-89.333 0 -157.833 28.333 -205.5 85s-71.5 138.667 -71.5 246v191
c0 108 23.667 190.333 71 247s116 85 206 85c88.667 0 156.5 -28.167 203.5 -84.5s70.5 -138.833 70.5 -247.5v-191zM1407 317v191c0 143.333 -49 215 -147 215c-100 0 -150 -71.667 -150 -215v-191c0 -143.333 50 -215 150 -215c98 0 147 71.667 147 215z" />
    <glyph glyph-name="ampersand" unicode="&#x26;" horiz-adv-x="1389" 
d="M1120 240c123.333 -131.333 186.333 -198.668 189 -202.001s4 -8.33301 4 -15c0 -15.333 -7.66699 -23 -23 -23h-141c-8.66699 0 -15.334 1.33301 -20.001 4s-17.334 15.334 -38.001 38.001l-77 83c-109.333 -92.667 -244 -139 -404 -139c-152 0 -273.5 32.333 -364.5 97
s-136.5 157 -136.5 277v17c0 83.333 22.833 155 68.5 215s120.834 122.667 225.501 188c-95.333 109.333 -157 192.333 -185 249s-42 111.667 -42 165v16c0 104.667 37.333 185.167 112 241.5s180.667 84.5 318 84.5c122.667 0 221.334 -29 296.001 -87
s112 -137.667 112 -239v-16c0 -80 -24.5 -149.167 -73.5 -207.5s-148.167 -137.166 -297.5 -236.499l371 -400c53.333 95.333 80 215.666 80 360.999v28c0 22 10.667 33 32 33h88c23.333 0 35 -11 35 -33v-28c0 -186 -43 -343 -129 -471zM844 1194l-0.000976562 16
c0 126 -79.333 189 -238 189c-174.667 0 -262 -63 -262 -189v-16c0 -43.333 10.833 -85.333 32.5 -126s75.834 -108.667 162.501 -204c126.667 77.333 209.167 135 247.5 173s57.5 90.333 57.5 157zM914.999 230.998l-407.001 436.999
c-74 -45.333 -127.667 -88.166 -161 -128.499s-50 -94.5 -50 -162.5v-17c0 -74 28.333 -131.333 85 -172s132.667 -61 228 -61c122.667 0 224.334 34.667 305.001 104z" />
    <glyph glyph-name="quotesingle" unicode="'" horiz-adv-x="393" 
d="M334 1518v-8.00098c0 -2.66699 -0.666992 -5.66699 -2 -9l-119 -387c-4 -14.667 -8.83301 -24.834 -14.5 -30.501s-13.834 -8.5 -24.501 -8.5h-96c-7.33301 0 -12.333 1.83301 -15 5.5s-4 8.83398 -4 15.501v9c0 2.66699 0.666992 5.66699 2 9l95 387
c3.33301 14.667 8.33301 24.834 15 30.501s15.334 8.5 26.001 8.5h114c15.333 0 23 -7.33301 23 -22z" />
    <glyph glyph-name="parenleft" unicode="(" horiz-adv-x="625" 
d="M303 543c0 -364 88.001 -675.333 264.001 -934c4 -6 6 -13 6 -21c0 -10.667 -6.66699 -16 -20 -16h-96c-14 0 -26.333 3.33301 -37 10s-37 42.667 -79 108s-80 144.833 -114 238.5s-59.833 192.834 -77.5 297.501s-26.5 210.334 -26.5 317.001v26
c0 107.333 9 213.666 27 318.999s44.167 205.166 78.5 299.499s72.5 173.5 114.5 237.5s68.167 99.167 78.5 105.5s22.166 9.5 35.499 9.5h96c13.333 0 20 -5.33301 20 -16c0 -8 -2 -15 -6 -21c-176 -258.667 -264 -570 -264 -934v-26z" />
    <glyph glyph-name="parenright" unicode=")" horiz-adv-x="625" 
d="M530 543c0 -107.333 -8.83301 -213.667 -26.5 -319s-43.834 -205.166 -78.501 -299.499s-73 -173.5 -115 -237.5s-68 -99.167 -78 -105.5s-21.667 -9.5 -35 -9.5h-97c-13.333 0 -20 5.33301 -20 16c0 8 2 15 6 21c176 258.667 264 570 264 934v26
c0 364 -88 675.333 -264 934c-4 6 -6 13 -6 21c0 10.667 6.66699 16 20 16h97c13.333 0 25.333 -3.33301 36 -10s37.167 -42.5 79.5 -107.5s80.333 -144.5 114 -238.5s59.334 -193.333 77.001 -298s26.5 -210.334 26.5 -317.001v-26z" />
    <glyph glyph-name="asterisk" unicode="*" horiz-adv-x="952" 
d="M537 1227c178.667 58.667 269.999 87.999 273.999 87.999c14 0 23 -7 27 -21l18 -59c1.33301 -2.66699 2 -6 2 -10c0 -14.667 -9.66699 -25 -29 -31l-256 -80l163.5 -225.5c3 -4.33301 4.5 -10.5 4.5 -18.5c0 -9.33301 -11.667 -22.5 -35 -39.5s-37.333 -25.5 -42 -25.5
c-6.66699 0 -12.5 1.83301 -17.5 5.5s-23.833 28.5 -56.5 74.5l-113 157l-165 -229c-4 -5.33301 -11 -8 -21 -8c-4.66699 0 -19.167 8.5 -43.5 25.5s-36.5 30.167 -36.5 39.5c0 8.66699 15 33.334 45 74.001l125 170l-186 59c-52.667 16 -82.334 26.833 -89.001 32.5
s-10 12.167 -10 19.5c0 2 3.83301 15.167 11.5 39.5s13.334 38.833 17.001 43.5s9.83398 7 18.501 7c4 0 95 -29.333 273 -88v268c0 26 10 39 30 39h62c19.333 0 29 -13 29 -39v-268z" />
    <glyph glyph-name="plus" unicode="+" 
d="M1085 760c0 -22 -13.667 -33 -41 -33h-352v-350c0 -27.333 -11 -41 -33 -41h-81c-22 0 -33 13.667 -33 41v350h-350c-27.333 0 -41 11 -41 33v82c0 21.333 13.667 32 41 32h350v353c0 27.333 11 41 33 41h81c22 0 33 -13.667 33 -41v-353h352c27.333 0 41 -10.667 41 -32
v-82z" />
    <glyph glyph-name="comma" unicode="," horiz-adv-x="438" 
d="M319 264c18 0 26.999 -7.33301 26.999 -22c0 -4 -14.333 -42.667 -43 -116l-83 -208c-26 -66 -41.167 -102.333 -45.5 -109s-12.5 -10 -24.5 -10h-84c-16.667 0 -25 8.33301 -25 25c0 4.66699 20.167 74 60.5 208s62.833 206.167 67.5 216.5s15.334 15.5 32.001 15.5h118
z" />
    <glyph glyph-name="hyphen" unicode="-" horiz-adv-x="682" 
d="M584 559c0 -23.333 -13 -35 -39 -35h-408c-26 0 -39 11.667 -39 35v80c0 24.667 13 37 39 37h408c26 0 39 -12.333 39 -37v-80z" />
    <glyph glyph-name="period" unicode="." horiz-adv-x="438" 
d="M307 43c0 -11.333 -3.66992 -21.002 -11.0029 -29.002s-16.666 -12 -27.999 -12h-98c-10 0 -19 4 -27 12s-12 17.667 -12 29v190c0 10.667 3.83301 19.834 11.5 27.501s16.834 11.5 27.501 11.5h98c10.667 0 19.834 -3.66699 27.501 -11s11.5 -16.666 11.5 -27.999v-190z
" />
    <glyph glyph-name="slash" unicode="/" horiz-adv-x="727" 
d="M653 1522c19.333 0 29 -9.66699 29 -29c0 -4 -0.666992 -8 -2 -12l-463 -1440c-8 -27.333 -20.333 -41 -37 -41h-104c-19.333 0 -29 9.66699 -29 29c0 4 0.666992 8 2 12l465 1440c8 27.333 19.667 41 35 41h104z" />
    <glyph glyph-name="zero" unicode="0" 
d="M1122 623c0 -424.667 -167 -637 -501 -637c-336 0 -504 212.333 -504 637v276c0 424.667 168 637 504 637c334 0 501 -212.333 501 -637v-276zM936 623v276c0 319.333 -105 479 -315 479c-210.667 0 -316 -159.667 -316 -479v-276c0 -320 105.333 -480 316 -480
c210 0 315 160 315 480z" />
    <glyph glyph-name="one" unicode="1" 
d="M1024 0l-840.001 0.000976562c-27.333 0 -41 12.333 -41 37v90c0 23.333 13.667 35 41 35h326v1167l-214 -90c-73.333 -30.667 -112.333 -46.667 -117 -48s-9.66699 -2 -15 -2c-14 0 -21 7 -21 21v105c0 6.66699 1.5 12 4.5 16s21.5 13.333 55.5 28l292 134
c41.333 19.333 67.333 29 78 29h84c10.667 0 19.834 -3.83301 27.501 -11.5s11.5 -16.834 11.5 -27.501v-1321h328c27.333 0 41 -11.667 41 -35v-90c0 -24.667 -13.667 -37 -41 -37z" />
    <glyph glyph-name="two" unicode="2" 
d="M328 162l689.996 0.00195312c27.333 0 41 -11.667 41 -35v-90c0 -24.667 -13.667 -37 -41 -37h-813c-11.333 0 -21 3.66699 -29 11s-12 16.666 -12 27.999v166c0 219.333 104.333 398.666 313 537.999c168.667 114 271.334 184.833 308.001 212.5s64.167 57.5 82.5 89.5
s27.5 73.333 27.5 124c0 76 -24.167 130.167 -72.5 162.5s-126.5 48.5 -234.5 48.5c-50 0 -107.667 -3.33301 -173 -10l-190 -20h-8c-22 0 -33 12 -33 36v72c0 12 7.33301 22.167 22 30.5s60.334 18.333 137.001 30s158.334 17.5 245.001 17.5
c166.667 0 289.834 -29.833 369.501 -89.5s119.5 -152.167 119.5 -277.5c0 -79.333 -19.333 -147.833 -58 -205.5s-106 -119.167 -202 -184.5l-203 -138c-105.333 -71.333 -179.333 -137.5 -222 -198.5s-64 -140.167 -64 -237.5v-43z" />
    <glyph glyph-name="three" unicode="3" 
d="M1067 424c0 -142 -44.168 -250.5 -132.501 -325.5s-214.166 -112.5 -377.499 -112.5c-75.333 0 -154 6.5 -236 19.5s-127.333 24 -136 33s-13 18.167 -13 27.5v69c0 23.333 11.667 35 35 35h6c143.333 -19.333 258 -29 344 -29c111.333 0 192.5 22.5 243.5 67.5
s76.5 116.833 76.5 215.5v43c0 72.667 -20.667 132.5 -62 179.5s-100.666 70.5 -177.999 70.5h-373c-26 0 -39 12.333 -39 37v71c0 26 13 39 39 39h373c78.667 0 138.334 21.333 179.001 64s61 102.667 61 180v29c0 86.667 -25.333 148.834 -76 186.501s-132 56.5 -244 56.5
c-40.667 0 -92.334 -3.33301 -155.001 -10l-189 -20h-6c-23.333 0 -35 11.333 -35 34v72c0 12.667 6 22.667 18 30s57.5 17.5 136.5 30.5s155.833 19.5 230.5 19.5c175.333 0 304.166 -32.833 386.499 -98.5s123.5 -165.834 123.5 -300.501v-29
c0 -146 -65 -252.667 -195 -320c130 -64.667 195 -171.667 195 -321v-43z" />
    <glyph glyph-name="four" unicode="4" 
d="M1161 442c0 -24 -13.001 -36 -39.001 -36h-178v-365c0 -27.333 -11.667 -41 -35 -41h-118c-23.333 0 -35 13.667 -35 41v365h-592c-31.333 0 -53.166 5.83301 -65.499 17.5s-18.5 32.167 -18.5 61.5v78c0 28 8 53.333 24 76l607 850c13.333 22 33 33 59 33h121
c35.333 0 53 -15 53 -45v-916h178c26 0 39 -12.333 39 -37v-82zM757.999 561v701c0 8 -2.66699 12 -8 12h-2c-5.33301 0 -11 -4 -17 -12l-473 -672c-4 -6 -6 -11.667 -6 -17c0 -8 5.33301 -12 16 -12h490z" />
    <glyph glyph-name="five" unicode="5" 
d="M1081 463c0 -151.333 -45.501 -268.665 -136.501 -351.998s-219.5 -125 -385.5 -125c-92 0 -174.667 5.33301 -248 16s-116.833 19.667 -130.5 27s-20.5 18.666 -20.5 33.999v76c0 20.667 10 31 30 31h11c109.333 -19.333 228.666 -29 357.999 -29
c222.667 0 334 107.333 334 322v31c0 99.333 -32.5 169.833 -97.5 211.5s-175.167 62.5 -330.5 62.5h-246c-8.66699 0 -16.334 3.5 -23.001 10.5s-10 15.167 -10 24.5v2l36 429c14.667 168.667 22.334 255.667 23.001 261s4.83398 11.166 12.501 17.499
s16.834 9.5 27.501 9.5h704c27.333 0 41 -11.667 41 -35v-90c0 -22 -13.667 -33 -41 -33h-588l-32 -442h96c216.667 0 373.5 -34.667 470.5 -104s145.5 -177.333 145.5 -324v-31z" />
    <glyph glyph-name="six" unicode="6" 
d="M1118 504c0 -167.333 -42.666 -295.499 -127.999 -384.499s-209.333 -133.5 -372 -133.5c-160.667 0 -283.334 49.167 -368.001 147.5s-127 242.833 -127 433.5v359c0 214 44.167 369.167 132.5 465.5s222.166 144.5 401.499 144.5c98.667 0 182.5 -5.5 251.5 -16.5
s111 -19.833 126 -26.5s22.5 -17 22.5 -31v-80c0 -23.333 -14.333 -35 -43 -35c-14 3.33301 -54.167 9.66602 -120.5 18.999s-145.166 14 -236.499 14c-114.667 0 -201.667 -27.833 -261 -83.5s-89 -179.167 -89 -370.5v-23c118.667 27.333 221.667 41 309 41
c163.333 0 287.833 -36 373.5 -108s128.5 -178.667 128.5 -320v-12zM934.001 504.001l0.000976562 12c0 93.333 -27.333 163.833 -82 211.5s-133.334 71.5 -236.001 71.5c-101.333 0 -204.333 -12.333 -309 -37v-195c0 -159.333 25.667 -270.833 77 -334.5
s129.333 -95.5 234 -95.5c108.667 0 188.5 30.167 239.5 90.5s76.5 152.5 76.5 276.5z" />
    <glyph glyph-name="seven" unicode="7" 
d="M938 1522c102.667 0 154 -43 154 -129c0 -33.333 -9 -69 -27 -107l-590 -1255c-10 -20.667 -25 -31 -45 -31h-123c-20.667 -0 -31 10.333 -31 31c0 6 2.33301 13.333 7 22l618 1286c1.33301 1.33301 2 4.33301 2 9c0 9.33301 -4.66699 14 -14 14h-699
c-26.667 0 -40 11.667 -40 35v86c0 10 4 19 12 27s17.333 12 28 12h748z" />
    <glyph glyph-name="eight" unicode="8" 
d="M1128 424c0 -137.333 -45.335 -244.666 -136.002 -321.999s-211 -116 -361 -116h-21c-150 0 -270.333 38.667 -361 116s-136 184.666 -136 321.999v39c0 64.667 17.333 127.167 52 187.5s83.334 108.5 146.001 144.5c-129.333 67.333 -194 173.666 -194 318.999v19
c0 134.667 45 235.5 135 302.5s209.333 100.5 358 100.5h21c154.667 0 275.5 -34.833 362.5 -104.5s130.5 -169.167 130.5 -298.5v-19c0 -145.333 -64.667 -251.666 -194 -318.999c62.667 -36 111.334 -84.167 146.001 -144.5s52 -122.833 52 -187.5v-39zM943.998 1114
v18.999c0 81.333 -26.833 143.5 -80.5 186.5s-131.167 64.5 -232.5 64.5h-21c-101.333 0 -178.833 -21.5 -232.5 -64.5s-80.5 -105.167 -80.5 -186.5v-19c0 -70 21.333 -128.5 64 -175.5s108 -70.5 196 -70.5h127c83.333 0 147.5 22.333 192.5 67s67.5 104.334 67.5 179.001
zM941.998 423.999l-0.00195312 39c0 72.667 -22.667 133.834 -68 183.501s-108.666 74.5 -189.999 74.5h-127c-81.333 0 -144.666 -24.833 -189.999 -74.5s-68 -110.834 -68 -183.501v-39c0 -89.333 27 -158.833 81 -208.5s130.667 -74.5 230 -74.5h21
c99.333 0 176 24.833 230 74.5s81 119.167 81 208.5z" />
    <glyph glyph-name="nine" unicode="9" 
d="M1100 596c0 -208.667 -42.833 -362.501 -128.5 -461.501s-221.167 -148.5 -406.5 -148.5c-100 0 -184.5 5.5 -253.5 16.5s-110.833 19.833 -125.5 26.5s-22 16.667 -22 30v80c0 24 14.333 36 43 36c14 -3.33301 54.333 -9.83301 121 -19.5s145 -14.5 235 -14.5
c115.333 0 202.833 27.833 262.5 83.5s89.5 179.5 89.5 371.5v22c-124 -26.667 -227 -40 -309 -40c-164 0 -289 36 -375 108s-129 178.667 -129 320v12c0 166.667 42.833 294.667 128.5 384s209.5 134 371.5 134s285.5 -49.167 370.5 -147.5s127.5 -243.166 127.5 -434.499
v-358zM913 759.999c2 136 3.00098 206.333 3.00098 211c0 142 -23.833 246.333 -71.5 313s-127.834 100 -240.501 100c-109.333 0 -189.5 -30 -240.5 -90s-76.5 -152 -76.5 -276v-12c0 -102 29.667 -174.667 89 -218s135.333 -65 228 -65c101.333 0 204.333 12.333 309 37z
" />
    <glyph glyph-name="colon" unicode=":" horiz-adv-x="449" 
d="M313 895c0 -11.333 -3.83301 -20.668 -11.5 -28.001s-17.5 -11 -29.5 -11h-96c-10.667 0 -20.167 3.83301 -28.5 11.5s-12.5 16.834 -12.5 27.501v190c0 10.667 4.16699 20.167 12.5 28.5s17.833 12.5 28.5 12.5h96c10.667 0 20.167 -4 28.5 -12s12.5 -17.667 12.5 -29
v-190zM313 38.998c0 -11.333 -3.83301 -20.6699 -11.5 -28.0029s-17.5 -11 -29.5 -11h-96c-10.667 0 -20.167 3.83301 -28.5 11.5s-12.5 16.834 -12.5 27.501v192c0 10.667 4 19.834 12 27.501s17.667 11.5 29 11.5h96c10.667 0 20.167 -3.66699 28.5 -11
s12.5 -16.666 12.5 -27.999v-192z" />
    <glyph glyph-name="semicolon" unicode=";" horiz-adv-x="449" 
d="M313 895c0 -26 -13.001 -39.001 -39.001 -39.001h-100c-10.667 0 -19.834 3.83301 -27.501 11.5s-11.5 16.834 -11.5 27.501v190c0 10.667 3.83301 20.167 11.5 28.5s16.834 12.5 27.501 12.5h100c10.667 0 19.834 -4 27.501 -12s11.5 -17.667 11.5 -29v-190z
M294.999 261.999c18 0 26.999 -7.33301 26.999 -22c0 -4 -14.667 -42.333 -44 -115l-83 -209c-26 -66.667 -41.167 -103.5 -45.5 -110.5s-12.5 -10.5 -24.5 -10.5h-82c-16.667 0 -25 9 -25 27c0 4.66699 20.333 74 61 208s63.334 206.167 68.001 216.5s15 15.5 31 15.5h117z
" />
    <glyph glyph-name="less" unicode="&#x3c;" 
d="M987 307c0 -13.333 -8 -20 -24 -20h-119c-10.667 0 -20.834 1.83301 -30.501 5.5s-20.834 10.5 -33.501 20.5l-493 418c-12.667 10.667 -22 22.167 -28 34.5s-9 24.166 -9 35.499s3 23.166 9 35.499s15.333 23.5 28 33.5l493 418
c12.667 10.667 23.834 17.834 33.501 21.501s19.834 5.5 30.501 5.5h119c16 0 24 -7 24 -21c0 -11.333 -6.66699 -22.666 -20 -33.999l-537 -459l537 -459c7.33301 -6 12.5 -12 15.5 -18s4.5 -11.667 4.5 -17z" />
    <glyph glyph-name="equal" unicode="=" 
d="M1055 987c0 -11.333 -4 -19.666 -12 -24.999s-17.667 -8 -29 -8h-789c-11.333 0 -21 2.66699 -29 8s-12 13.666 -12 24.999v82c0 11.333 4 19.666 12 24.999s17.667 8 29 8h789c11.333 0 21 -2.66699 29 -8s12 -13.666 12 -24.999v-82zM1055 535
c0 -11.333 -4 -19.666 -12 -24.999s-17.667 -8 -29 -8h-789c-11.333 0 -21 2.66699 -29 8s-12 13.666 -12 24.999v81c0 11.333 4 19.666 12 24.999s17.667 8 29 8h789c11.333 0 21 -2.66699 29 -8s12 -13.666 12 -24.999v-81z" />
    <glyph glyph-name="greater" unicode="&#x3e;" 
d="M989 801c0 -11.333 -3 -23.166 -9 -35.499s-15.333 -23.833 -28 -34.5l-493 -418c-12.667 -10 -23.834 -16.833 -33.501 -20.5s-19.834 -5.5 -30.501 -5.5h-119c-16 0 -24 6.66699 -24 20c0 5.33301 1.5 11 4.5 17s8.16699 12 15.5 18l537 459l-537 459
c-13.333 11.333 -20 22.666 -20 33.999c0 14 8 21 24 21h119c10.667 0 20.834 -1.83301 30.501 -5.5s20.834 -10.834 33.501 -21.501l493 -418c12.667 -10 22 -21.167 28 -33.5s9 -24.166 9 -35.499z" />
    <glyph glyph-name="question" unicode="?" horiz-adv-x="913" 
d="M791 1202c0 -58.667 -14.832 -113.167 -44.499 -163.5s-77.167 -112.5 -142.5 -186.5c-96.667 -110 -154.334 -178.333 -173.001 -205s-28 -63.334 -28 -110.001v-101c0 -10.667 -3.83301 -19.834 -11.5 -27.501s-17.5 -11.5 -29.5 -11.5h-90c-10 0 -19 3.83301 -27 11.5
s-12 16.834 -12 27.501v101c0 52.667 5.66699 96.667 17 132s28 67 50 95s76.333 90 163 186c46 50.667 78.667 93.834 98 129.501s29 76.5 29 122.5v25c0 52 -16.333 89.5 -49 112.5s-86 34.5 -160 34.5c-44.667 0 -90.667 -2 -138 -6l-139 -12h-6c-20 0 -30 11.667 -30 35
v71c0 18 3.5 30.5 10.5 37.5s42.833 14.833 107.5 23.5s129.667 13 195 13c273.333 0 410 -103 410 -309v-25zM406.001 39c0 -26 -13 -39.001 -39 -39.001h-99c-10.667 0 -20.167 3.83301 -28.5 11.5s-12.5 16.834 -12.5 27.501v190c0 10.667 4.16699 20.167 12.5 28.5
s17.833 12.5 28.5 12.5h99c10 0 19 -4 27 -12s12 -17.667 12 -29v-190z" />
    <glyph glyph-name="at" unicode="@" horiz-adv-x="1571" 
d="M1491 750c0 -128 -16.499 -232.664 -49.499 -313.997s-80.833 -146 -143.5 -194c-64 -48.667 -142 -82.667 -234 -102s-198.333 -29 -319 -29c-50.667 0 -96.334 6.33301 -137.001 19s-75.167 31.167 -103.5 55.5s-50.166 54 -65.499 89s-23 75.167 -23 120.5v19
c0 6 0.666992 12 2 18l22 240c10.667 105.333 47.667 185.833 111 241.5s150.666 83.5 261.999 83.5c44 0 88.833 -3 134.5 -9s88.167 -13 127.5 -21c13.333 -3.33301 23.833 -7.83301 31.5 -13.5s11.5 -15.5 11.5 -29.5v-9l-61 -641c64 9.33301 115.5 27.333 154.5 54
s69.333 60.667 91 102s36 89 43 143s10.5 113 10.5 177c0 64.667 -10.333 125.667 -31 183s-52 107.666 -94 150.999s-94.5 77.666 -157.5 102.999s-136.833 38 -221.5 38c-89.333 0 -169.5 -12.5 -240.5 -37.5s-132 -60.333 -183 -106s-91.5 -100.334 -121.5 -164.001
s-49 -134.5 -57 -212.5l-31 -312c-1.33301 -11.333 -2.33301 -22.5 -3 -33.5s-1 -21.5 -1 -31.5c0 -61.333 10.5 -118.666 31.5 -171.999s52.833 -99.666 95.5 -138.999s96.334 -70.166 161.001 -92.499s140.667 -33.5 228 -33.5c49.333 0 98.5 1.5 147.5 4.5
s98.167 6.5 147.5 10.5h2c8.66699 0 14.334 -2.66699 17.001 -8c1.33301 -2.66699 2 -5 2 -7v-65c0 -10.667 -3 -17.834 -9 -21.501s-14 -6.16699 -24 -7.5c-26.667 -3.33301 -65.334 -6.83301 -116.001 -10.5s-107 -5.5 -169 -5.5c-98 0 -186.833 13.167 -266.5 39.5
s-147.5 63.666 -203.5 111.999s-99.167 106.166 -129.5 173.499s-45.5 142 -45.5 224v31.5c0 11 0.666992 21.5 2 31.5l31 320c8.66699 92.667 31.667 177.5 69 254.5s87.5 143.333 150.5 199s138.333 99 226 130s186.167 46.5 295.5 46.5c70 0 134.333 -7.5 193 -22.5
s111.5 -36 158.5 -63s88.167 -59.167 123.5 -96.5s64.666 -78 87.999 -122s40.833 -90.5 52.5 -139.5s17.5 -98.833 17.5 -149.5zM936.001 838.003c-21.333 3.33301 -43.9971 6.16602 -67.9971 8.49902s-47.667 3.5 -71 3.5c-60.667 0 -105.334 -14.833 -134.001 -44.5
s-46.334 -75.5 -53.001 -137.5l-22 -234c-1.33301 -6 -2 -12 -2 -18v-17c0 -47.333 13 -82.666 39 -105.999s69 -35 129 -35h43c15.333 0 30.166 0.166992 44.499 0.5s28.833 1.5 43.5 3.5z" />
    <glyph glyph-name="A" unicode="A" horiz-adv-x="1296" 
d="M383 502l-131 -471.999c-2.66699 -10.667 -8 -18.334 -16 -23.001s-15 -7 -21 -7h-121c-23.333 0 -35 11 -35 33c0 4.66699 0.666992 9.33398 2 14.001l379 1333c29.333 104 99 156 209 156c108.667 0 177.667 -51.333 207 -154l379 -1335
c1.33301 -2.66699 2 -7.33398 2 -14.001c0 -22 -11.667 -33 -35 -33h-121c-8.66699 -0 -16 2.83301 -22 8.5s-15.333 31.5 -28 77.5l-118 416h-530zM874 664.001l-143.001 518.998c-29.333 104.667 -44.666 159 -45.999 163s-3.66602 8.33301 -6.99902 13
s-7.33301 8.33398 -12 11.001s-10.334 4 -17.001 4c-7.33301 0 -13.833 -1.66699 -19.5 -5s-10.167 -7.66602 -13.5 -12.999s-15 -44.333 -35 -117l-159 -575h452z" />
    <glyph glyph-name="B" unicode="B" horiz-adv-x="1262" 
d="M1159 420c0 -289.333 -199.333 -434 -598 -434c-92 0 -176.167 2.83301 -252.5 8.5s-120.166 15.167 -131.499 28.5s-17 32.333 -17 57v1364c0 18 3.33301 32.833 10 44.5s16.5 20.167 29.5 25.5s56.5 10.333 130.5 15s147.667 7 221 7c400 0 600 -131.667 600 -395v-33
c0 -74.667 -18.833 -140 -56.5 -196s-91.834 -98 -162.501 -126c72 -25.333 127.833 -67.5 167.5 -126.5s59.5 -127.167 59.5 -204.5v-35zM965 1108v33c0 82 -30.167 142 -90.5 180s-168.166 57 -323.499 57c-20.667 0 -88.334 -2 -203.001 -6v-508h316
c200.667 0 301 81.333 301 244zM973 420v35c0 173.333 -103 260 -309 260h-316v-563c127.333 -6 198.333 -9 213 -9c150.667 0 257 22.167 319 66.5s93 114.5 93 210.5z" />
    <glyph glyph-name="C" unicode="C" horiz-adv-x="1116" 
d="M1044 53c0 -15.333 -6.66602 -26.501 -19.999 -33.501s-51.5 -14.333 -114.5 -22s-144.833 -11.5 -245.5 -11.5c-166.667 0 -298.5 53.667 -395.5 161s-145.5 264.333 -145.5 471v285c0 208 48.167 365.5 144.5 472.5s228.5 160.5 396.5 160.5
c66.667 0 142.167 -5.33301 226.5 -16s130.333 -18.167 138 -22.5s11.5 -11.166 11.5 -20.499v-105c0 -14.667 -8 -22 -24 -22h-6c-148 12 -262.667 18 -344 18c-238 0 -357 -155 -357 -465v-285c0 -153.333 30.5 -269 91.5 -347s149.5 -117 265.5 -117
c51.333 0 107.666 1.66699 168.999 5l169 11h8c21.333 0 32 -11 32 -33v-84z" />
    <glyph glyph-name="D" unicode="D" horiz-adv-x="1313" 
d="M1196 623c0 -213.333 -54.5 -372.833 -163.5 -478.5s-261.5 -158.5 -457.5 -158.5c-74.667 0 -157.5 2.5 -248.5 7.5s-141.5 12.833 -151.5 23.5s-15 24 -15 40v1407c0 15.333 4.83301 28.5 14.5 39.5s61 19.167 154 24.5s175.167 8 246.5 8c202 0 356 -54 462 -162
s159 -266.333 159 -475v-276zM1010 623v276c0 160 -35.5 279.5 -106.5 358.5s-180.5 118.5 -328.5 118.5c-86 0 -161.667 -2 -227 -6v-1220c38 -3.33301 113.667 -5 227 -5c290 0 435 159.333 435 478z" />
    <glyph glyph-name="E" unicode="E" horiz-adv-x="1128" 
d="M1016 25c0 -10 -3.33301 -17.833 -10 -23.5s-50.167 -9.66699 -130.5 -12s-173.5 -3.5 -279.5 -3.5c-150.667 0 -261 30.833 -331 92.5s-105 157.834 -105 288.501v788c0 133.333 36 230.166 108 290.499s181.333 90.5 328 90.5c13.333 0 82.666 -0.833008 207.999 -2.5
s192 -6 200 -13s12 -15.5 12 -25.5v-102c0 -16.667 -7.66699 -25 -23 -25h-395c-89.333 0 -153.666 -11.5 -192.999 -34.5s-59 -82.5 -59 -178.5v-285h629c11.333 0 21 -4 29 -12s12 -17.667 12 -29v-77c0 -11.333 -4 -21 -12 -29s-17.667 -12 -29 -12h-629v-344
c0 -82 16 -138 48 -168s100 -45 204 -45h395c15.333 0 23 -8.33301 23 -25v-104z" />
    <glyph glyph-name="F" unicode="F" horiz-adv-x="1128" 
d="M1016 752c0 -11.333 -4 -20.999 -12 -28.999s-17.667 -12 -29 -12h-629v-670c0 -11.333 -4 -21 -12 -29s-17.667 -12 -29 -12h-104c-11.333 0 -21 4 -29 12s-12 17.667 -12 29v1114c0 133.333 36 230.166 108 290.499s181.333 90.5 328 90.5
c13.333 0 82.666 -0.833008 207.999 -2.5s192 -6 200 -13s12 -15.5 12 -25.5v-102c0 -16.667 -7.66699 -25 -23 -25h-395c-89.333 0 -153.666 -11.5 -192.999 -34.5s-59 -82.5 -59 -178.5v-285h629c11.333 0 21 -4 29 -12s12 -17.667 12 -29v-77z" />
    <glyph glyph-name="G" unicode="G" horiz-adv-x="1253" 
d="M1094 61c0 -15.333 -5.3291 -26.998 -15.9961 -34.998s-57.167 -16.667 -139.5 -26s-178.833 -14 -289.5 -14c-156 0 -283.333 55.167 -382 165.5s-148 267.5 -148 471.5v274c0 209.333 49.167 368.166 147.5 476.499s232.166 162.5 401.499 162.5
c111.333 0 205.166 -4.66699 281.499 -14s119.166 -16.333 128.499 -21s14 -12.667 14 -24v-103c0 -13.333 -9 -20 -27 -20h-8c-112.667 9.33301 -242.334 14 -389.001 14c-242 0 -363 -157 -363 -471v-274c0 -160.667 31.667 -279.334 95 -356.001s146.333 -115 249 -115
c74.667 0 160.667 4 258 12v586c0 27.333 12.333 41 37 41h111c10 0 19 -4.16699 27 -12.5s12 -17.833 12 -28.5v-689z" />
    <glyph glyph-name="H" unicode="H" horiz-adv-x="1393" 
d="M1233 41c0 -11.333 -4 -21 -12 -29s-17.667 -12 -29 -12h-105c-10.667 0 -20 4 -28 12s-12 17.667 -12 29v680h-701v-680c0 -11.333 -4 -21 -12 -29s-17.667 -12 -29 -12h-104c-11.333 0 -21 4 -29 12s-12 17.667 -12 29v1440c0 11.333 4 21 12 29s17.667 12 29 12h104
c11.333 0 21 -4 29 -12s12 -17.667 12 -29v-594h701v594c0 11.333 4 21 12 29s17.333 12 28 12h105c11.333 0 21 -4 29 -12s12 -17.667 12 -29v-1440z" />
    <glyph glyph-name="I" unicode="I" horiz-adv-x="547" 
d="M367 41c0 -10.667 -3.5 -20.167 -10.5 -28.5s-15.833 -12.5 -26.5 -12.5h-113c-10 0 -18.667 4 -26 12s-11 17.667 -11 29v1442c0 26 12.333 39 37 39h113c24.667 0 37 -13 37 -39v-1442z" />
    <glyph glyph-name="J" unicode="J" horiz-adv-x="526" 
d="M367 -76c0 -101.333 -25.668 -175.5 -77.001 -222.5s-131.666 -70.5 -240.999 -70.5c-80.667 0 -121 13 -121 39v76c0 23.333 13.667 35 41 35h80c48 0 81.833 9.16699 101.5 27.5s29.5 56.833 29.5 115.5v1559c0 10 4 19 12 27s17 12 27 12h109c10 0 19 -4 27 -12
s12 -17 12 -27v-1559z" />
    <glyph glyph-name="K" unicode="K" horiz-adv-x="1243" 
d="M528 782l617 -736.999c6.66699 -6.66699 10 -15 10 -25c0 -13.333 -9 -20 -27 -20h-159c-19.333 0 -34.333 6.66699 -45 20l-578 703v-682c0 -10.667 -3.5 -20.167 -10.5 -28.5s-15.833 -12.5 -26.5 -12.5h-112c-10.667 0 -19.5 4 -26.5 12s-10.5 17.667 -10.5 29v1442
c0 10 3.66699 19 11 27s16.666 12 27.999 12h108c10.667 0 19.834 -3.83301 27.501 -11.5s11.5 -16.834 11.5 -27.501v-662l590 682c12 12.667 25.667 19 41 19h147c19.333 0 29 -7.66699 29 -23c0 -7.33301 -2.66699 -14 -8 -20z" />
    <glyph glyph-name="L" unicode="L" horiz-adv-x="1053" 
d="M1016 33c0 -10 -3.33301 -17.832 -10 -23.499s-49.167 -11 -127.5 -16s-172.5 -7.5 -282.5 -7.5c-164.667 0 -278.5 32.167 -341.5 96.5s-94.5 159.166 -94.5 284.499v1114c0 11.333 4 21 12 29s17.667 12 29 12h104c11.333 0 21 -4 29 -12s12 -17.667 12 -29v-1114
c0 -82 16 -138 48 -168s100 -45 204 -45h395c15.333 0 23 -8.33301 23 -25v-96z" />
    <glyph glyph-name="M" unicode="M" horiz-adv-x="1559" 
d="M1401 41c0 -11.333 -4.00391 -21.001 -12.0039 -29.001s-17.667 -12 -29 -12h-100c-11.333 0 -21 4 -29 12s-12 17.667 -12 29v1214c0 4.66699 -0.666992 7 -2 7c-2 0 -3.66699 -1.66699 -5 -5l-191 -395c-70 -145.333 -108.167 -223.166 -114.5 -233.499
s-15.666 -19 -27.999 -26s-29.5 -10.5 -51.5 -10.5h-94c-22.667 0 -40.667 3.83301 -54 11.5s-26 23.5 -38 47.5l-185 383c-72 149.333 -108.167 224.5 -108.5 225.5s-0.666016 1.66699 -0.999023 2s-1.16602 0.5 -2.49902 0.5s-2 -2.33301 -2 -7v-1214
c0 -11.333 -4 -21 -12 -29s-17.667 -12 -29 -12h-100c-11.333 0 -21 4 -29 12s-12 17.667 -12 29v1421c0 16.667 5.83301 30.834 17.5 42.501s25.5 17.5 41.5 17.5h133c32.667 0 54.667 -11.667 66 -35l338 -703c6.66699 -14.667 14.667 -22 24 -22
s17.666 7.33301 24.999 22l338 703c10.667 23.333 32.334 35 65.001 35h133c16.667 0 30.834 -5.83301 42.501 -17.5s17.5 -25.834 17.5 -42.501v-1421z" />
    <glyph glyph-name="N" unicode="N" horiz-adv-x="1393" 
d="M1233 59c0 -16 -5.83301 -29.832 -17.5 -41.499s-25.5 -17.5 -41.5 -17.5h-127c-32.667 0 -54.667 11 -66 33l-633 1202c-2 4 -4 6 -6 6c-1.33301 0 -2 -2 -2 -6v-1196c0 -10.667 -3.66699 -19.834 -11 -27.501s-16 -11.5 -26 -11.5h-106c-24.667 -0 -37 8.33301 -37 25
v1439c0 16 5.66699 29.667 17 41s25.333 17 42 17h113c27.333 0 46 -2.83301 56 -8.5s19.333 -16.5 28 -32.5l633 -1202c1.33301 0 2 2 2 6v1198c0 10 3.5 19 10.5 27s15.5 12 25.5 12h109c24.667 0 37 -13 37 -39v-1424z" />
    <glyph glyph-name="O" unicode="O" horiz-adv-x="1354" 
d="M1231 629c0 -209.333 -47.999 -368.833 -143.999 -478.5s-232.333 -164.5 -409 -164.5s-313.334 54.833 -410.001 164.5s-145 269.167 -145 478.5v264c0 217.333 50 378.833 150 484.5s235 158.5 405 158.5c176.667 0 313 -54.833 409 -164.5s144 -269.167 144 -478.5
v-264zM1042 629v264c0 316.667 -121.333 475 -364 475c-244.667 0 -367 -158.333 -367 -475v-264c0 -316.667 122.333 -475 367 -475c242.667 0 364 158.333 364 475z" />
    <glyph glyph-name="P" unicode="P" horiz-adv-x="1214" 
d="M1122 1065c0 -306 -191 -459 -573 -459c-48.667 0 -117 3.33301 -205 10v-575c0 -10.667 -3.5 -20.167 -10.5 -28.5s-15.833 -12.5 -26.5 -12.5h-110c-10.667 0 -19.5 4 -26.5 12s-10.5 17.667 -10.5 29v1427c0 14.667 5.33301 27.667 16 39s61.5 19 152.5 23
s164.5 6 220.5 6c382 0 573 -148 573 -444v-27zM936 1065l0.00195312 27.001c0 100.667 -30.5 173.5 -91.5 218.5s-159.5 67.5 -295.5 67.5c-66.667 0 -135 -2.66699 -205 -8v-600c125.333 -5.33301 193.666 -8 204.999 -8c137.333 0 236.166 23.167 296.499 69.5
s90.5 124.166 90.5 233.499z" />
    <glyph glyph-name="Q" unicode="Q" horiz-adv-x="1354" 
d="M1231 629c0 -189.333 -39.668 -338.5 -119.001 -447.5s-194.666 -172.833 -345.999 -191.5v-88c0 -48 7 -79.833 21 -95.5s49.333 -23.5 106 -23.5h121c30 0 45 -11 45 -33v-69c0 -33.333 -55.333 -50 -166 -50c-116.667 0 -197 21 -241 63s-66 110.667 -66 206v92
c-150.667 19.333 -265.5 83.333 -344.5 192s-118.5 257 -118.5 445v264c0 217.333 50 378.833 150 484.5s235 158.5 405 158.5c176.667 0 313 -54.833 409 -164.5s144 -269.167 144 -478.5v-264zM1042 629v264c0 316.667 -121.333 475 -364 475
c-244.667 0 -367 -158.333 -367 -475v-264c0 -316.667 122.333 -475 367 -475c242.667 0 364 158.333 364 475z" />
    <glyph glyph-name="R" unicode="R" horiz-adv-x="1280" 
d="M821 668l372.999 -622.999c4 -6 6 -12 6 -18c0 -18 -8.66699 -27 -26 -27h-132c-11.333 0 -20 0.666992 -26 2s-11.167 4.5 -15.5 9.5s-31.5 48.833 -81.5 131.5l-296 494h-54c-44 0 -119 2 -225 6v-602c0 -10.667 -3.5 -20.167 -10.5 -28.5s-15.833 -12.5 -26.5 -12.5
h-110c-10.667 0 -19.5 4 -26.5 12s-10.5 17.667 -10.5 29v1434c0 22 8.33301 35.5 25 40.5s66.834 9.66699 150.501 14s161.5 6.5 233.5 6.5c382.667 0 574 -146.667 574 -440v-15c0 -104.667 -27.833 -192.834 -83.5 -264.501s-135.167 -121.167 -238.5 -148.5z
M957.999 1081v15c0 99.333 -31.5 169.5 -94.5 210.5s-161.167 61.5 -294.5 61.5c-118.667 0 -193.667 -2 -225 -6v-561c118.667 -2.66699 193.667 -4 225 -4c142 0 242.333 22.333 301 67s88 117 88 217z" />
    <glyph glyph-name="S" unicode="S" horiz-adv-x="1126" 
d="M944 1356c-120 8 -237.333 12.001 -352 12.001c-112 0 -190.167 -14.667 -234.5 -44s-66.5 -79.333 -66.5 -150c0 -46.667 16.833 -87.5 50.5 -122.5s84.5 -72.833 152.5 -113.5l208 -125c116.667 -69.333 199.5 -135.166 248.5 -197.499s73.5 -135.833 73.5 -220.5
c0 -86 -19 -159.833 -57 -221.5s-94.5 -108.334 -169.5 -140.001s-168.167 -47.5 -279.5 -47.5c-88 0 -169.333 4.83301 -244 14.5s-115.834 17 -123.501 22s-11.5 14.5 -11.5 28.5v82c0 22 11.667 33 35 33h6c94.667 -8 207.334 -12 338.001 -12
c106 0 184.333 18.667 235 56s76 99 76 185c0 49.333 -16.167 92.333 -48.5 129s-97.833 85.334 -196.5 146.001l-219 133c-91.333 56 -158 112.5 -200 169.5s-63 124.167 -63 201.5c0 241.333 163.333 362 490 362c64 0 139.5 -3.33301 226.5 -10
s136.167 -13.334 147.5 -20.001s17 -16.334 17 -29.001v-88c0 -22 -11.667 -33 -35 -33h-4z" />
    <glyph glyph-name="T" unicode="T" horiz-adv-x="1208" 
d="M1137 1395c0 -22 -13 -33 -39 -33h-400v-1321c0 -10.667 -3.5 -20.167 -10.5 -28.5s-15.5 -12.5 -25.5 -12.5h-113c-10 0 -18.667 4 -26 12s-11 17.667 -11 29v1321h-399c-27.333 0 -41 11 -41 33v90c0 10 4 18.667 12 26s17.667 11 29 11h985c26 0 39 -12.333 39 -37
v-90z" />
    <glyph glyph-name="U" unicode="U" horiz-adv-x="1356" 
d="M1202 553c0 -378 -174.667 -567 -524 -567s-524 189 -524 567v930c0 10.667 3.66699 19.834 11 27.501s16.666 11.5 27.999 11.5h110c10.667 0 19.834 -3.83301 27.501 -11.5s11.5 -16.834 11.5 -27.501v-930c0 -138 25.333 -240.5 76 -307.5
s137.334 -100.5 260.001 -100.5c117.333 0 202.666 31.5 255.999 94.5s80 167.5 80 313.5v930c0 10.667 3.66699 19.834 11 27.501s16.666 11.5 27.999 11.5h110c10.667 0 19.834 -3.83301 27.501 -11.5s11.5 -16.834 11.5 -27.501v-930z" />
    <glyph glyph-name="V" unicode="V" horiz-adv-x="1317" 
d="M1212 1522c23.333 0 34.998 -11.667 34.998 -35c0 -3.33301 -0.666992 -7.33301 -2 -12l-377 -1334c-29.333 -103.333 -99 -155 -209 -155c-109.333 0 -178.666 51.667 -207.999 155l-379 1334c-1.33301 2.66699 -2 6.66699 -2 12c0 23.333 12 35 36 35h119
c19.333 0 31.666 -10.333 36.999 -31l356 -1305c8.66699 -28.667 22.334 -43 41.001 -43s31.667 14.333 39 43l359 1305c4.66699 20.667 16.334 31 35.001 31h120z" />
    <glyph glyph-name="W" unicode="W" horiz-adv-x="1690" 
d="M1620 1487l-0.000976562 -5.99902l-227 -1385c-12 -69.333 -54.333 -104 -127 -104h-88c-28 0 -52.5 9.16699 -73.5 27.5s-35.5 43.166 -43.5 74.499l-201 758c-2.66699 12 -6.66699 18 -12 18h-4c-5.33301 0 -9.66602 -6 -12.999 -18l-202 -758
c-18.667 -68 -57.667 -102 -117 -102h-86c-73.333 0 -115.666 34.667 -126.999 104l-227 1385v6c0 23.333 11.333 35 34 35h119c20 0 31.667 -11.667 35 -35l199 -1305c4 -20 7.33301 -30 10 -30c4 0 8.66699 10 14 30l201 758c14 54.667 46 82 96 82h131
c50 0 82.333 -27.333 97 -82l200 -758c4.66699 -20 9.66699 -30 15 -30c3.33301 0 6.66602 10 9.99902 30l199 1305c4 23.333 15.333 35 34 35h119c23.333 0 35 -11.667 35 -35z" />
    <glyph glyph-name="X" unicode="X" horiz-adv-x="1323" 
d="M770 770l460.999 -719c4 -6 6 -13.333 6 -22c0 -19.333 -11 -29 -33 -29h-129c-15.333 0 -26.333 5.66699 -33 17l-385 610l-257 -419c-78 -127.333 -120.5 -193.833 -127.5 -199.5s-15.167 -8.5 -24.5 -8.5h-121c-22 -0 -33 10.333 -33 31c0 6.66699 2 13.334 6 20.001
l455 723l-451 699c-4 6 -6 12.667 -6 20c0 19.333 10.333 29 31 29h133c9.33301 0 16.5 -1.33301 21.5 -4s21.833 -27 50.5 -73l334 -527l224 367c88 144.667 133.5 219.167 136.5 223.5s7.33301 7.66602 13 9.99902s12.834 3.5 21.501 3.5h121c22 0 33 -10.333 33 -31
c0 -6 -2.33301 -12 -7 -18z" />
    <glyph glyph-name="Y" unicode="Y" horiz-adv-x="1194" 
d="M504 623c-41.333 15.333 -78.333 60.332 -111 134.999l-315 712c-4 8.66699 -6 16.334 -6 23.001c0 19.333 11.333 29 34 29h125c16.667 0 29 -9.66699 37 -29l283 -664c15.333 -35.333 31 -53 47 -53s31.667 17.667 47 53l285 664c8 19.333 19.667 29 35 29h125
c22.667 0 34 -9.66699 34 -29c0 -6 -2 -13.667 -6 -23l-317 -712c-32.667 -72.667 -69.667 -117.667 -111 -135v-582c0 -10.667 -3.66699 -20.167 -11 -28.5s-16 -12.5 -26 -12.5h-112c-10 0 -18.667 4.16699 -26 12.5s-11 17.833 -11 28.5v582z" />
    <glyph glyph-name="Z" unicode="Z" horiz-adv-x="1223" 
d="M1114 37c0 -10 -4 -18.667 -12 -26s-17.667 -11 -29 -11h-788c-66 0 -110.833 9.5 -134.5 28.5s-35.5 55.833 -35.5 110.5c0 49.333 10 89 30 119l734 1067c4 6 6 11.333 6 16c0 10 -7 15 -21 15h-680c-27.333 0 -41 11.667 -41 35v96c0 23.333 13.667 35 41 35h729
c70 0 116.5 -10.5 139.5 -31.5s34.5 -55.833 34.5 -104.5s-10.667 -88.667 -32 -120l-731 -1067c-4.66699 -6.66699 -7 -13 -7 -19c0 -8 7 -12 21 -12h735c27.333 0 41 -11.667 41 -35v-96z" />
    <glyph glyph-name="bracketleft" unicode="[" horiz-adv-x="670" 
d="M621 -356c0 -11.333 -4 -21.001 -12 -29.001s-17.667 -12 -29 -12h-381c-10.667 0 -19.167 3.83301 -25.5 11.5s-9.5 16.834 -9.5 27.501v1841c0 10 3.16699 19 9.5 27s14.833 12 25.5 12h381c11.333 0 21 -4 29 -12s12 -17.667 12 -29v-68c0 -11.333 -4 -21 -12 -29
s-17.667 -12 -29 -12h-234v-1620h234c11.333 0 21 -4 29 -12s12 -17.667 12 -29v-67v0z" />
    <glyph glyph-name="backslash" unicode="\" horiz-adv-x="727" 
d="M682 29c0 -7.33301 -2.50195 -14 -7.50195 -20s-12.167 -9 -21.5 -9h-104c-10.667 0 -18.667 4.16699 -24 12.5s-9.66602 17.833 -12.999 28.5l-463 1440c-1.33301 2.66699 -2 6.66699 -2 12c0 7.33301 2.5 14 7.5 20s12.167 9 21.5 9h104
c10.667 0 18.334 -4.33301 23.001 -13s8.66699 -18 12 -28l465 -1440c1.33301 -2.66699 2 -6.66699 2 -12z" />
    <glyph glyph-name="bracketright" unicode="]" horiz-adv-x="670" 
d="M506 -358c0 -10.667 -3.16699 -19.833 -9.5 -27.5s-14.833 -11.5 -25.5 -11.5h-381c-11.333 0 -21 4 -29 12s-12 17.667 -12 29v67c0 11.333 4 21 12 29s17.667 12 29 12h234v1620h-234c-11.333 0 -21 4 -29 12s-12 17.667 -12 29v68c0 11.333 4 21 12 29
s17.667 12 29 12h381c10.667 0 19.167 -4 25.5 -12s9.5 -17 9.5 -27v-1841v0z" />
    <glyph glyph-name="asciicircum" unicode="^" 
d="M1034 1171c0 -5.33301 -1.8291 -9.66602 -5.49609 -12.999s-9.16699 -5 -16.5 -5h-123c-14.667 0 -25.334 3 -32.001 9s-15.334 15.333 -26.001 28l-210 246l-211 -246c-10.667 -12.667 -19.334 -22 -26.001 -28s-17.334 -9 -32.001 -9h-123
c-7.33301 0 -12.833 1.66699 -16.5 5s-5.5 7.66602 -5.5 12.999c0 8 2.66699 15.667 8 23l236 305c11.333 14.667 20.666 24.5 27.999 29.5s18.333 7.5 33 7.5h217c14.667 0 25.834 -2.5 33.501 -7.5s17.167 -14.833 28.5 -29.5l235 -305c5.33301 -7.33301 8 -15 8 -23z" />
    <glyph glyph-name="underscore" unicode="_" horiz-adv-x="1012" 
d="M1075 -184c0 -22 -13.667 -33 -41 -33h-1054c-27.333 0 -41 11 -41 33v51c0 22 13.667 33 41 33h1054c27.333 0 41 -11 41 -33v-51z" />
    <glyph glyph-name="grave" unicode="`" horiz-adv-x="762" 
d="M498 1290c0 -9.33301 -6.33301 -14 -19 -14h-110c-11.333 0 -19.666 2.5 -24.999 7.5s-12.666 12.833 -21.999 23.5l-232 258c-5.33301 5.33301 -8 10.666 -8 15.999c0 9.33301 7.33301 14 22 14h136c12 0 21.167 -2.16699 27.5 -6.5s14.166 -12.166 23.499 -23.499
l198 -254c3.33301 -3.33301 5.66602 -6.83301 6.99902 -10.5s2 -7.16699 2 -10.5z" />
    <glyph glyph-name="a" unicode="a" horiz-adv-x="1063" 
d="M924 41c0 -11.333 -4.16797 -21.001 -12.501 -29.001s-17.833 -12 -28.5 -12h-95c-10.667 0 -20 4 -28 12s-12 17.667 -12 29v45c-114 -66.667 -219.333 -100 -316 -100c-107.333 0 -189.833 27.833 -247.5 83.5s-86.5 138.167 -86.5 247.5v25
c0 114 37.833 197.833 113.5 251.5s202.5 80.5 380.5 80.5h151v82c0 84.667 -16.167 144.334 -48.5 179.001s-89.166 52 -170.499 52c-60 0 -115.667 -1.66699 -167 -5l-146 -11h-10c-24.667 0 -37 11 -37 33v71c0 14.667 5.33301 25 16 31s49.667 13.333 117 22
s143 13 227 13c266.667 0 400 -128.333 400 -385v-715zM742.999 214.999v330.001h-151c-114 0 -194.667 -13.5 -242 -40.5s-71 -80.5 -71 -160.5v-25c0 -64.667 14 -111.834 42 -141.501s76.667 -44.5 146 -44.5c84.667 0 176.667 27.333 276 82z" />
    <glyph glyph-name="b" unicode="b" horiz-adv-x="1108" 
d="M1006 492c0 -163.333 -38.168 -288.502 -114.501 -375.502s-187.166 -130.5 -332.499 -130.5c-95.333 0 -184.5 5.66699 -267.5 17s-129.167 20.333 -138.5 27s-14 19.334 -14 38.001v1433c0 26 12.333 39 37 39h105c10 0 18.833 -3.66699 26.5 -11
s11.5 -16.666 11.5 -27.999v-381c76 14 156 21 240 21c146 0 257 -42.833 333 -128.5s114 -210.167 114 -373.5v-147zM824.999 491.998v147c0 121.333 -21.333 209 -64 263s-110 81 -202 81c-106 0 -186 -4.66699 -240 -14v-813c95.333 -8.66699 175.333 -13 240 -13
c92.667 0 160.167 27 202.5 81s63.5 143.333 63.5 268z" />
    <glyph glyph-name="c" unicode="c" horiz-adv-x="926" 
d="M836 53c0 -22.667 -7.33105 -36.334 -21.998 -41.001s-50.667 -10.167 -108 -16.5s-113 -9.5 -167 -9.5c-136 0 -242.833 44.333 -320.5 133s-116.5 210 -116.5 364v160c0 154.667 38.667 276.334 116 365.001s184.333 133 321 133c67.333 0 129.666 -4 186.999 -12
s90 -15.167 98 -21.5s12 -17.833 12 -34.5v-74c0 -20 -11.667 -30 -35 -30h-8c-84.667 9.33301 -169.334 14 -254.001 14c-170.667 0 -256 -113.333 -256 -340v-160c0 -226.667 85.333 -340 256 -340c48.667 0 93 1.66699 133 5l121 10h8c23.333 0 35 -10.333 35 -31v-74z
" />
    <glyph glyph-name="d" unicode="d" horiz-adv-x="1108" 
d="M969 68c0 -18 -5.00098 -30.668 -15.001 -38.001s-57 -16.5 -141 -27.5s-172 -16.5 -264 -16.5c-144.667 0 -255.334 43.667 -332.001 131s-115 212.333 -115 375v147c0 164 37.833 288.667 113.5 374s186.834 128 333.501 128c82 0 161.667 -7 239 -21v381
c0 10.667 3.83301 19.834 11.5 27.501s16.834 11.5 27.501 11.5h105c24.667 0 37 -13 37 -39v-1433zM787.999 155.999l0.000976562 813c-52.667 9.33301 -132.334 14 -239.001 14c-92 0 -159.333 -27 -202 -81s-64 -141.667 -64 -263v-147c0 -124.667 21.167 -214 63.5 -268
s109.833 -81 202.5 -81c64 0 143.667 4.33301 239 13z" />
    <glyph glyph-name="e" unicode="e" horiz-adv-x="1114" 
d="M1008 551c0 -30 -13.001 -45 -39.001 -45h-686v-29c0 -115.333 22.333 -199.833 67 -253.5s117 -80.5 217 -80.5c40 0 82.333 1 127 3s86.334 4.66699 125.001 8l113 12h10c22 0 33 -9.66699 33 -29v-69c0 -18.667 -5.33301 -31.667 -16 -39s-56.5 -16.333 -137.5 -27
s-165.833 -16 -254.5 -16c-148 0 -262.5 41.5 -343.5 124.5s-121.5 205.167 -121.5 366.5v185c0 148 39.667 264.833 119 350.5s191.333 128.5 336 128.5c144 0 255.167 -42.167 333.5 -126.5s117.5 -201.833 117.5 -352.5v-111zM824.999 643v18.999
c0 110.667 -21.167 191.834 -63.5 243.501s-110.5 77.5 -204.5 77.5c-182.667 0 -274 -107 -274 -321v-19h542z" />
    <glyph glyph-name="f" unicode="f" horiz-adv-x="780" 
d="M729 1446c0 -20.667 -12.333 -31.001 -37 -31.001h-98c-50.667 0 -84.167 -10 -100.5 -30s-24.5 -57 -24.5 -111v-148h215c26 0 39 -12 39 -36v-80c0 -23.333 -13 -35 -39 -35h-215v-934c0 -10.667 -4 -20.167 -12 -28.5s-17 -12.5 -27 -12.5h-100
c-11.333 0 -21 4.16699 -29 12.5s-12 17.833 -12 28.5v934l-200 22c-11.333 1.33301 -20.5 5.5 -27.5 12.5s-10.5 15.167 -10.5 24.5v56c0 24 13 36 39 36h199v148c0 104.667 23.833 178.334 71.5 221.001s119.167 64 214.5 64c102.667 0 154 -15.333 154 -46v-67z" />
    <glyph glyph-name="g" unicode="g" horiz-adv-x="1145" 
d="M1071 1028c0 -16.667 -3.66699 -26.9971 -11 -30.9971s-40.333 -11.333 -99 -22c46 -48.667 69 -119 69 -211v-16c0 -234 -151.667 -351 -455 -351c-93.333 0 -172.333 13.667 -237 41c-34 -16 -51 -39 -51 -69c0 -32.667 21 -54.667 63 -66
c248.667 -63.333 402.334 -103.833 461.001 -121.5s113 -46.834 163 -87.501s75 -97.334 75 -170.001v-16c0 -212 -155.667 -318 -467 -318c-154.667 0 -271.834 28 -351.501 84s-119.5 136.667 -119.5 242v18c0 105.333 43 192.333 129 261c-72.667 28 -109 83 -109 165v2
c0 65.333 28 114.666 84 147.999c-62.667 58 -94 137.333 -94 238v16c0 75.333 17 140.333 51 195s84.833 96.167 152.5 124.5s151.167 42.5 250.5 42.5h449c12.667 0 23.667 -4.5 33 -13.5s14 -19.5 14 -31.5v-53zM852 748.003v15.998
c0 76.667 -22.833 132.334 -68.5 167.001s-115.167 52 -208.5 52c-92 0 -161 -17.167 -207 -51.5s-69 -90.166 -69 -167.499v-16c0 -139.333 92 -209 276 -209c94 0 163.667 16 209 48s68 85.667 68 161zM868 -91.999v16.001c0 39.333 -17.5 69.5 -52.5 90.5
s-84.833 40.167 -149.5 57.5l-279 71c-66.667 -54 -100 -123.667 -100 -209v-18c0 -66.667 24 -114.334 72 -143.001s122.333 -43 223 -43c98.667 0 171 12.333 217 37s69 71.667 69 141z" />
    <glyph glyph-name="h" unicode="h" horiz-adv-x="1141" 
d="M1001 41c0 -11.333 -3.99902 -21.001 -11.999 -29.001s-17.333 -12 -28 -12h-99c-11.333 0 -21 4 -29 12s-12 17.667 -12 29v674c0 91.333 -17.333 158.833 -52 202.5s-90.334 65.5 -167.001 65.5c-101.333 0 -195.666 -19 -282.999 -57v-885
c0 -10.667 -4 -20.167 -12 -28.5s-17.333 -12.5 -28 -12.5h-101c-10 0 -19 4 -27 12s-12 17.667 -12 29v1458c0 11.333 3.66699 21 11 29s16.666 12 27.999 12h103c10.667 0 19.667 -4 27 -12s11 -17.667 11 -29v-422c100 42.667 204.667 64 314 64
c118.667 0 209.667 -36.167 273 -108.5s95 -178.166 95 -317.499v-674z" />
    <glyph glyph-name="i" unicode="i" horiz-adv-x="506" 
d="M346 1348c0 -11.333 -4 -21 -12 -29s-17.667 -12 -29 -12h-104c-11.333 0 -21 4 -29 12s-12 17.667 -12 29v163c0 11.333 4 21 12 29s17.667 12 29 12h104c11.333 0 21 -4 29 -12s12 -17.667 12 -29v-163zM342 41c0 -11.333 -4 -21 -12 -29s-17.667 -12 -29 -12h-98
c-11.333 0 -21 4 -29 12s-12 17.667 -12 29v1044c0 11.333 4 21 12 29s17.667 12 29 12h98c11.333 0 21 -4 29 -12s12 -17.667 12 -29v-1044z" />
    <glyph glyph-name="j" unicode="j" horiz-adv-x="506" 
d="M346 1346c0 -11.333 -4 -20.666 -12 -27.999s-17.667 -11 -29 -11h-104c-10.667 0 -20.167 3.66699 -28.5 11s-12.5 16.666 -12.5 27.999v165c0 10.667 4 20.167 12 28.5s17.667 12.5 29 12.5h104c10.667 0 20.167 -4 28.5 -12s12.5 -17.667 12.5 -29v-165zM342 -131
c0 -94.667 -19.167 -163.667 -57.5 -207s-104.5 -65 -198.5 -65c-52 0 -89.5 2.66699 -112.5 8s-34.5 16.333 -34.5 33v75c0 19.333 14.333 29 43 29h84c40 0 66 8.5 78 25.5s18 50.833 18 101.5v1216c0 11.333 3.5 21 10.5 29s15.833 12 26.5 12h106
c24.667 0 37 -13.667 37 -41v-1216z" />
    <glyph glyph-name="k" unicode="k" horiz-adv-x="1016" 
d="M483 594l455.001 -549.001c4 -4 6 -10 6 -18c0 -18 -7.33301 -27 -22 -27h-148c-12.667 0 -21.834 2.16699 -27.501 6.5s-52.167 60.5 -139.5 168.5l-288 355v-489c0 -11.333 -4 -21 -12 -29s-17.333 -12 -28 -12h-99c-11.333 0 -21 4 -29 12s-12 17.667 -12 29v1458
c0 11.333 4 21 12 29s17.667 12 29 12h99c10.667 0 20 -4 28 -12s12 -17.667 12 -29v-852l419 471c5.33301 5.33301 16 8 32 8h143c20.667 0 31 -7.33301 31 -22c0 -7.33301 -1.33301 -12.666 -4 -15.999z" />
    <glyph glyph-name="l" unicode="l" horiz-adv-x="500" 
d="M340 41c0 -10.667 -3.5 -20.167 -10.5 -28.5s-15.833 -12.5 -26.5 -12.5h-106c-10.667 0 -19.5 4 -26.5 12s-10.5 17.667 -10.5 29v1460c0 26 12.333 39 37 39h106c24.667 0 37 -13 37 -39v-1460z" />
    <glyph glyph-name="m" unicode="m" horiz-adv-x="1634" 
d="M1495 41c0 -11.333 -3.99902 -21.001 -11.999 -29.001s-17.667 -12 -29 -12h-98c-11.333 0 -21 4 -29 12s-12 17.667 -12 29v725c0 146 -62.333 219 -187 219c-63.333 0 -143 -18.333 -239 -55c12 -45.333 18 -98.666 18 -159.999v-729
c0 -10.667 -3.5 -20.167 -10.5 -28.5s-15.833 -12.5 -26.5 -12.5h-108c-23.333 0 -35 13.667 -35 41v729c0 75.333 -10.167 130 -30.5 164s-62.833 51 -127.5 51c-60.667 0 -144 -26.667 -250 -80v-864c0 -10.667 -3.5 -20.167 -10.5 -28.5s-15.5 -12.5 -25.5 -12.5h-109
c-23.333 0 -35 13.667 -35 41v1044c0 12 3.83301 21.833 11.5 29.5s16.834 11.5 27.501 11.5h103c10.667 0 19.667 -3.83301 27 -11.5s11 -17.5 11 -29.5v-38c103.333 64 203 96 299 96c89.333 0 157.666 -28 204.999 -84c119.333 56 232.666 84 339.999 84
c221.333 0 332 -125.667 332 -377v-725z" />
    <glyph glyph-name="n" unicode="n" horiz-adv-x="1141" 
d="M1001 41c0 -11.333 -4.00098 -21 -12.001 -29s-17.333 -12 -28 -12h-99c-11.333 0 -21 4 -29 12s-12 17.667 -12 29v674c0 96 -16.5 165 -49.5 207s-91.5 63 -175.5 63c-78 0 -170.333 -26.667 -277 -80v-864c0 -10.667 -4 -20.167 -12 -28.5s-17.333 -12.5 -28 -12.5
h-101c-10 0 -19 4 -27 12s-12 17.667 -12 29v1044c0 12 3.83301 21.833 11.5 29.5s16.834 11.5 27.501 11.5h103c10.667 0 19.667 -3.83301 27 -11.5s11 -17.5 11 -29.5v-38c109.333 62.667 218 94 326 94c237.333 0 356 -142 356 -426v-674z" />
    <glyph glyph-name="o" unicode="o" horiz-adv-x="1116" 
d="M1014 485c0 -156 -40 -278.167 -120 -366.5s-192.333 -132.5 -337 -132.5s-256.667 44 -336 132s-119 210.333 -119 367v156c0 154 39 275.833 117 365.5s190.667 134.5 338 134.5c144.667 0 257 -44.167 337 -132.5s120 -210.833 120 -367.5v-156zM834 485v156.001
c0 228 -92.333 342 -277 342c-182.667 0 -274 -114 -274 -342v-156c0 -228 91.333 -342 274 -342c90.667 0 159.5 29.167 206.5 87.5s70.5 143.166 70.5 254.499z" />
    <glyph glyph-name="p" unicode="p" horiz-adv-x="1108" 
d="M1006 487c0 -164 -37.833 -288.497 -113.5 -373.497s-186.834 -127.5 -333.501 -127.5c-74 0 -154 7.33301 -240 22v-370c0 -10.667 -3.66699 -19.834 -11 -27.501s-16.333 -11.5 -27 -11.5h-105c-24.667 0 -37 13 -37 39v1409c0 17.333 5.33301 29.666 16 36.999
s59.667 18.666 147 33.999s173 23 257 23c144.667 0 255.334 -43.667 332.001 -131s115 -212.333 115 -375v-148zM825 487.003v147.999c0 122.667 -21.667 212.334 -65 269.001s-110.333 85 -201 85c-80 0 -160 -6.66699 -240 -20v-811c79.333 -14 159.333 -21 240 -21
c91.333 0 158.5 27.833 201.5 83.5s64.5 144.5 64.5 266.5z" />
    <glyph glyph-name="q" unicode="q" horiz-adv-x="1108" 
d="M969 -362c0 -26 -12.3311 -38.998 -36.998 -38.998h-105c-10 0 -19 3.66699 -27 11s-12 16.666 -12 27.999v370c-83.333 -14.667 -163 -22 -239 -22c-146 0 -257 42.667 -333 128s-114 209.666 -114 372.999v148c0 158.667 37.167 282.667 111.5 372
s186.166 134 335.499 134c84.667 0 170.667 -7.66699 258 -23s136.166 -26.5 146.499 -33.5s15.5 -19.5 15.5 -37.5v-1409zM788.002 158.002l-0.000976562 810.999c-77.333 13.333 -157 20 -239 20c-91.333 0 -158.5 -28.167 -201.5 -84.5s-64.5 -146.166 -64.5 -269.499
v-148c0 -122 21.5 -210.833 64.5 -266.5s110.167 -83.5 201.5 -83.5c80.667 0 160.334 7 239.001 21z" />
    <glyph glyph-name="r" unicode="r" horiz-adv-x="700" 
d="M645 1020c0 -23.333 -14.332 -35 -42.999 -35c-94 0 -188.333 -28.667 -283 -86v-858c0 -10.667 -4 -20.167 -12 -28.5s-17.333 -12.5 -28 -12.5h-101c-10 0 -19 4 -27 12s-12 17.667 -12 29v1044c0 12 3.83301 21.833 11.5 29.5s16.834 11.5 27.501 11.5h96
c11.333 0 20.666 -3.83301 27.999 -11.5s11 -17.5 11 -29.5v-43c93.333 66 189.666 99 288.999 99c28.667 0 43 -12.333 43 -37v-84z" />
    <glyph glyph-name="s" unicode="s" horiz-adv-x="954" 
d="M791 971c-128 10.667 -233.999 16 -317.999 16c-77.333 0 -128.333 -9.66699 -153 -29s-37 -49.333 -37 -90c0 -27.333 9.66699 -51.833 29 -73.5s49.333 -44.5 90 -68.5l225 -134c79.333 -47.333 136.666 -94.5 171.999 -141.5s53 -102.833 53 -167.5
c0 -97.333 -32.833 -171.166 -98.5 -221.499s-160.5 -75.5 -284.5 -75.5c-80 0 -154.333 4.33301 -223 13s-109.834 17.167 -123.501 25.5s-20.5 19.166 -20.5 32.499v72c0 20.667 12.333 31 37 31h8c120.667 -15.333 228 -23 322 -23c73.333 0 125.5 11.5 156.5 34.5
s46.5 60.167 46.5 111.5c0 33.333 -12.5 62.166 -37.5 86.499s-58.167 48.5 -99.5 72.5l-224 133c-139.333 82.667 -209 180.334 -209 293.001c0 92 30 160.5 90 205.5s153.667 67.5 281 67.5c82 0 157.833 -4.5 227.5 -13.5s108.834 -16.833 117.501 -23.5s13 -17 13 -31
v-67c0 -23.333 -11.333 -35 -34 -35h-6z" />
    <glyph glyph-name="t" unicode="t" horiz-adv-x="788" 
d="M737 31c0 -18.667 -14.499 -30.834 -43.499 -36.501s-71.167 -8.5 -126.5 -8.5c-110.667 0 -184.667 21.167 -222 63.5s-56 112.5 -56 210.5v715l-201 23c-11.333 0.666992 -20.333 4.33398 -27 11.001s-10 15 -10 25v56c0 24 13 36 39 36h199v201
c0 12 3.66699 21.5 11 28.5s23.833 12.5 49.5 16.5s53.167 8 82.5 12h6c20.667 0 31 -11.333 31 -34v-224h221c11.333 0 21 -4 29 -12s12 -17.667 12 -29v-69c0 -11.333 -4 -21 -12 -29s-17.667 -12 -29 -12h-221v-715c0 -54 7.66699 -89 23 -105s44.666 -24 87.999 -24h114
c28.667 0 43 -9.66699 43 -29v-71z" />
    <glyph glyph-name="u" unicode="u" horiz-adv-x="1141" 
d="M1001 41c0 -11.333 -3.66602 -21 -10.999 -29s-16.333 -12 -27 -12h-103c-10.667 0 -19.834 4 -27.501 12s-11.5 17.667 -11.5 29v39c-108.667 -62.667 -217 -94 -325 -94c-238 0 -357 142 -357 426v673c0 11.333 4 21 12 29s17.667 12 29 12h99c10.667 0 20 -4 28 -12
s12 -17.667 12 -29v-673c0 -96.667 16.5 -166 49.5 -208s91.833 -63 176.5 -63c77.333 0 169.333 26.667 276 80v864c0 10.667 4.16699 20.167 12.5 28.5s17.833 12.5 28.5 12.5h101c10 0 18.833 -4 26.5 -12s11.5 -17.667 11.5 -29v-1044z" />
    <glyph glyph-name="v" unicode="v" horiz-adv-x="1085" 
d="M973 1126c22 0 33.001 -11.333 33.001 -34c0 -5.33301 -0.666992 -10.333 -2 -15l-277 -975c-22.667 -77.333 -84 -116 -184 -116c-100.667 0 -162.334 38.667 -185.001 116l-276 975c-1.33301 4 -2 9 -2 15c0 22.667 11 34 33 34h112c19.333 0 32.333 -13 39 -39
l236 -892c10 -40 24.333 -60 43 -60c18 0 32.333 20 43 60l235 892c6 26 19 39 39 39h113z" />
    <glyph glyph-name="w" unicode="w" horiz-adv-x="1610" 
d="M1532 1085l0.00292969 -8.00195l-199 -950c-12.667 -63.333 -28.834 -102.666 -48.501 -117.999s-60.834 -23 -123.501 -23c-62 0 -101.833 10.333 -119.5 31s-33.834 59.334 -48.501 116.001l-178 696c-2.66699 10 -6 15 -10 15c-4.66699 0 -8 -5 -10 -15l-179 -696
c-15.333 -60.667 -33.833 -100.334 -55.5 -119.001s-58.834 -28 -111.501 -28c-62.667 0 -103.834 7.83301 -123.501 23.5s-36.167 54.834 -49.5 117.501l-198 950v8c0 10.667 3.83301 20.167 11.5 28.5s16.834 12.5 27.501 12.5h110c19.333 0 31 -10.667 35 -32l170 -934
c2.66699 -16.667 8.33398 -25 17.001 -25c6.66699 0 12 8.33301 16 25l201 786c10.667 41.333 38 62 82 62h114c44 0 71.333 -20.667 82 -62l201 -786c3.33301 -16.667 8.66602 -25 15.999 -25c8 0 13.667 8.33301 17 25l170 934c2.66699 21.333 14 32 34 32h111
c10.667 0 19.834 -4.16699 27.501 -12.5s11.5 -17.833 11.5 -28.5z" />
    <glyph glyph-name="x" unicode="x" horiz-adv-x="1120" 
d="M664 586c238.667 -344.667 362.167 -521.833 370.5 -531.5s12.5 -20.167 12.5 -31.5c0 -15.333 -9 -23 -27 -23h-141c-8.66699 -0 -14.834 1.33301 -18.501 4s-36.5 50 -98.5 142l-205 298l-256 -370l-46 -67c-3.33301 -4.66699 -12 -7 -26 -7h-123
c-16 0 -24 6.66699 -24 20c0 8.66699 2 15.667 6 21l373 532l-229 331c-80.667 115.333 -122.5 175.833 -125.5 181.5s-4.5 11.167 -4.5 16.5c0 16 10.333 24 31 24h133c10.667 0 18.667 -2.33301 24 -7s37.333 -50.667 96 -138l181 -268
c175.333 257.333 266.333 390.5 273 399.5s17.334 13.5 32.001 13.5h119c18 0 27 -8 27 -24c0 -8 -3.66699 -17.333 -11 -28z" />
    <glyph glyph-name="y" unicode="y" horiz-adv-x="1094" 
d="M578 160l249 936c5.33301 20 18.333 30 39 30h115c22 0 33 -11.333 33 -34c0 -5.33301 -0.666992 -10.333 -2 -15l-338 -1179c-36 -124 -80.667 -205.667 -134 -245s-133.666 -59 -240.999 -59c-38.667 0 -77.167 2.83301 -115.5 8.5s-64.5 11.334 -78.5 17.001
s-21 14.5 -21 26.5v75c0 22 13 33 39 33h6c15.333 0 45.666 -2 90.999 -6c46 -4 76.333 -6 91 -6c58 0 102.667 11.167 134 33.5s61.333 97.166 90 224.499h-29c-46 0 -79.5 12.5 -100.5 37.5s-38.167 59.5 -51.5 103.5l-272 936c-1.33301 2.66699 -2 7.66699 -2 15
c0 22.667 12.333 34 37 34h112c17.333 0 29 -10.667 35 -32l242 -889c7.33301 -30 20.333 -45 39 -45h33z" />
    <glyph glyph-name="z" unicode="z" horiz-adv-x="987" 
d="M885 41c0 -11.333 -4 -20.999 -12 -28.999s-17.667 -12 -29 -12h-619c-39.333 0 -70 10.5 -92 31.5s-33 48.167 -33 81.5v39c0 49.333 15.667 93.666 47 132.999l529 657c5.33301 8 8 14.333 8 19c0 9.33301 -6.66699 14 -20 14h-498c-11.333 0 -21 4 -29 12
s-12 17.667 -12 29v69c0 11.333 4 21 12 29s17.667 12 29 12h602c76.667 0 115 -33.333 115 -100v-49c0 -36 -15.667 -73.667 -47 -113l-539 -674c-6.66699 -6.66699 -10 -14 -10 -22c0 -10.667 5.33301 -16 16 -16h541c11.333 0 21 -4.16699 29 -12.5s12 -17.833 12 -28.5
v-70z" />
    <glyph glyph-name="braceleft" unicode="{" horiz-adv-x="678" 
d="M623 -356c0 -11.333 -4.00098 -21.002 -12.001 -29.002s-17.667 -12 -29 -12h-105c-62.667 0 -114.167 4.5 -154.5 13.5s-72.333 24.333 -96 46s-40 50.667 -49 87s-13.5 81.5 -13.5 135.5v361c0 32 -1.83301 60 -5.5 84s-10.334 46 -20.001 66
s-22.334 38.333 -38.001 55s-35.5 33.667 -59.5 51v119c24 16.667 43.833 33.334 59.5 50.001s28.334 34.834 38.001 54.501s16.334 41.5 20.001 65.5s5.5 51.667 5.5 83v365c0 54 4.5 99.167 13.5 135.5s25.333 65.5 49 87.5s55.667 37.5 96 46.5s91.833 13.5 154.5 13.5
h103c11.333 0 21 -4 29 -12s12 -17.667 12 -29v-68c0 -11.333 -4 -21 -12 -29s-17.667 -12 -29 -12h-93c-30 0 -54.167 -1.83301 -72.5 -5.5s-32.666 -10.334 -42.999 -20.001s-17.166 -23.167 -20.499 -40.5s-5 -39.666 -5 -66.999v-365c0 -36 -2.33301 -69 -7 -99
s-12.667 -57.833 -24 -83.5s-26.333 -49.5 -45 -71.5s-41.667 -42.333 -69 -61c26.667 -19.333 49.334 -39.666 68.001 -60.999s33.667 -44.833 45 -70.5s19.5 -53.334 24.5 -83.001s7.5 -62.5 7.5 -98.5v-361c0 -27.333 1.66699 -49.5 5 -66.5s10.166 -30.5 20.499 -40.5
s24.666 -16.833 42.999 -20.5s42.5 -5.5 72.5 -5.5h95c11.333 0 21 -4 29 -12s12 -17.667 12 -29v-67v0z" />
    <glyph glyph-name="bar" unicode="|" horiz-adv-x="510" 
d="M346 -358c0 -10.667 -3.5 -19.834 -10.5 -27.501s-15.833 -11.5 -26.5 -11.5h-106c-10.667 0 -19.834 3.83301 -27.501 11.5s-11.5 16.834 -11.5 27.501v1841c0 10 3.83301 19 11.5 27s16.834 12 27.501 12h106c10.667 0 19.5 -4 26.5 -12s10.5 -17 10.5 -27v-1841v0z
" />
    <glyph glyph-name="braceright" unicode="}" horiz-adv-x="678" 
d="M637 502c-24 -17.333 -43.8311 -34.3311 -59.498 -50.998s-28.334 -35 -38.001 -55s-16.334 -42 -20.001 -66s-5.5 -52 -5.5 -84v-361c0 -54 -4.66699 -99.167 -14 -135.5s-25.666 -65.333 -48.999 -87s-55.166 -37 -95.499 -46s-91.833 -13.5 -154.5 -13.5h-105
c-11.333 0 -21 4 -29 12s-12 17.667 -12 29v67c0 11.333 4 21 12 29s17.667 12 29 12h94c30 0 54.333 1.83301 73 5.5s33.167 10.5 43.5 20.5s17.166 23.5 20.499 40.5s5 39.167 5 66.5v361c0 36 2.5 68.833 7.5 98.5s13.167 57.334 24.5 83.001s26.166 49.167 44.499 70.5
s41.166 41.666 68.499 60.999c-27.333 18.667 -50.333 39 -69 61s-33.667 45.833 -45 71.5s-19.333 53.5 -24 83.5s-7 63 -7 99v365c0 27.333 -1.66699 49.666 -5 66.999s-10.166 30.833 -20.499 40.5s-24.833 16.334 -43.5 20.001s-43 5.5 -73 5.5h-92
c-11.333 0 -21 4 -29 12s-12 17.667 -12 29v68c0 11.333 4 21 12 29s17.667 12 29 12h103c62.667 0 114.167 -4.5 154.5 -13.5s72.166 -24.5 95.499 -46.5s39.666 -51.167 48.999 -87.5s14 -81.5 14 -135.5v-365c0 -31.333 1.83301 -59 5.5 -83s10.334 -45.833 20.001 -65.5
s22.334 -37.834 38.001 -54.501s35.5 -33.334 59.5 -50.001v-119v0z" />
    <glyph glyph-name="asciitilde" unicode="~" 
d="M1053 956c0 -42.667 -3.99609 -80.3311 -11.9961 -112.998s-20.833 -60 -38.5 -82s-40.834 -38.667 -69.501 -50s-63.334 -17 -104.001 -17c-28 0 -55.167 5.33301 -81.5 16s-50.833 24.667 -73.5 42l-150 118l-37.5 30c-10.333 8 -19.5 14.5 -27.5 19.5
s-15.333 8.66699 -22 11s-13.667 3.5 -21 3.5c-19.333 0 -34.666 -2.83301 -45.999 -8.5s-20 -13.834 -26 -24.501s-9.83301 -23.334 -11.5 -38.001s-2.5 -31.334 -2.5 -50.001v-53c0 -11.333 -4 -21 -12 -29s-17.667 -12 -29 -12h-60c-11.333 0 -21 4 -29 12
s-12 17.667 -12 29v53c0 88.667 19.667 155.167 59 199.5s95.666 66.5 168.999 66.5c28 0 55.167 -5.16699 81.5 -15.5s50.166 -24.166 71.499 -41.499l174 -139c12.667 -10.667 27.667 -20.167 45 -28.5s31 -12.5 41 -12.5c19.333 0 34.5 2.16699 45.5 6.5
s19.167 11 24.5 20s8.66602 20.667 9.99902 35s2 31.833 2 52.5v58c0 11.333 4 21 12 29s17.667 12 29 12h60c11.333 0 21 -4 29 -12s12 -17.667 12 -29v-58v0z" />
    <glyph glyph-name="brokenbar" unicode="&#xa6;" horiz-adv-x="510" 
d="M346 741c0 -10 -3.5 -19.333 -10.5 -28s-15.833 -13 -26.5 -13h-108c-10.667 0 -19.5 4.33301 -26.5 13s-10.5 18 -10.5 28v711c0 10.667 3.5 19.834 10.5 27.501s15.833 11.5 26.5 11.5h108c10.667 0 19.5 -3.83301 26.5 -11.5s10.5 -16.834 10.5 -27.501v-711z
M346 -391c0 -10.667 -3.5 -20.167 -10.5 -28.5s-15.833 -12.5 -26.5 -12.5h-108c-10.667 0 -19.5 4.16699 -26.5 12.5s-10.5 17.833 -10.5 28.5v710c0 10.667 3.5 19.834 10.5 27.501s15.833 11.5 26.5 11.5h108c10.667 0 19.5 -3.83301 26.5 -11.5
s10.5 -16.834 10.5 -27.501v-710z" />
    <glyph glyph-name="section" unicode="&#xa7;" horiz-adv-x="1120" 
d="M1022 -35c0 -34 -3.16895 -67.666 -9.50195 -100.999s-17 -65.166 -32 -95.499s-35 -58.333 -60 -84s-56.167 -47.834 -93.5 -66.501s-81.666 -33.334 -132.999 -44.001s-110.666 -16 -177.999 -16c-72 0 -136 2.83301 -192 8.5s-106.667 12.167 -152 19.5
c-9.33301 2 -18.166 6.5 -26.499 13.5s-12.5 15.5 -12.5 25.5v86c0 11.333 4.33301 20 13 26s18 9 28 9h4c56 -5.33301 111.333 -10 166 -14s110 -6 166 -6h6c60.667 0 110.834 5.66699 150.501 17s71.167 27.5 94.5 48.5s39.5 46.167 48.5 75.5s13.5 62 13.5 98
c0 27.333 -3.16699 51.5 -9.5 72.5s-17.833 41.5 -34.5 61.5s-39.167 40.333 -67.5 61s-64.833 44.334 -109.5 71.001l-229 138c-54 32.667 -98.833 63.667 -134.5 93s-63.834 59 -84.501 89s-35.167 61.5 -43.5 94.5s-12.5 69.167 -12.5 108.5c0 44 6.83301 83 20.5 117
s30.167 66.667 49.5 98c-21.333 22.667 -38.333 52.334 -51 89.001s-19 76 -19 118c0 56 8.66699 106.333 26 151s45.5 82.5 84.5 113.5s89.5 54.667 151.5 71s138 24.5 228 24.5c28.667 0 60.667 -0.833008 96 -2.5s70 -3.83398 104 -6.50098s65.167 -5.66699 93.5 -9
s49.833 -6.33301 64.5 -9c10.667 -2 19.5 -6.33301 26.5 -13s10.5 -15.334 10.5 -26.001v-88c0 -10 -3.5 -18.167 -10.5 -24.5s-15.833 -9.5 -26.5 -9.5h-2c-60 2 -119.333 5.5 -178 10.5s-118 7.5 -178 7.5s-109.167 -3.83301 -147.5 -11.5s-68.333 -19.167 -90 -34.5
s-36.667 -35 -45 -59s-12.5 -52.333 -12.5 -85c0 -24 3.16699 -45.5 9.5 -64.5s17.166 -37.5 32.499 -55.5s36.333 -36.5 63 -55.5s60.667 -40.5 102 -64.5l223 -131c60.667 -36 110.5 -70.167 149.5 -102.5s69.5 -64.833 91.5 -97.5s37.167 -66.167 45.5 -100.5
s12.5 -70.833 12.5 -109.5c0 -39.333 -4.5 -78 -13.5 -116s-24.167 -73.667 -45.5 -107c21.333 -32 36.5 -65 45.5 -99s13.5 -70 13.5 -108zM833.998 395.001c0 28 -3.33301 52.5029 -10 73.5029s-18 41 -34 60s-37.5 38.167 -64.5 57.5s-60.5 41.666 -100.5 66.999
l-185 113l-74.5 46.5c-27 16.333 -51.167 32.833 -72.5 49.5c-3.33301 -10.667 -6.33301 -19.834 -9 -27.501s-4.66699 -15.334 -6 -23.001s-2.33301 -15.834 -3 -24.501s-1 -19.667 -1 -33c0 -48.667 15.5 -91 46.5 -127s76.5 -71.667 136.5 -107l225 -131l41.5 -25
l33 -20.5c10.333 -6.33301 20.333 -13 30 -20l32.5 -22.5c4 11.333 7 20.333 9 27s3.5 12.834 4.5 18.501s1.5 12.167 1.5 19.5v29z" />
    <glyph glyph-name="afii10023" unicode="&#xa8;" horiz-adv-x="1128" 
d="M868 1698c0 -10.667 -4.16699 -19.834 -12.5 -27.501s-17.833 -11.5 -28.5 -11.5h-79c-11.333 0 -21 3.83301 -29 11.5s-12 16.834 -12 27.501v166c0 10 4.16699 19.333 12.5 28s17.833 13 28.5 13h79c10.667 0 20.167 -4.33301 28.5 -13s12.5 -18 12.5 -28v-166z
M510 1698c0 -10.667 -4.16699 -19.834 -12.5 -27.501s-17.833 -11.5 -28.5 -11.5h-80c-10.667 0 -20.167 3.83301 -28.5 11.5s-12.5 16.834 -12.5 27.501v166c0 10 4.33301 19.333 13 28s18 13 28 13h80c10 0 19.333 -4.33301 28 -13s13 -18 13 -28v-166zM1016 25
c0 -10 -3.33496 -17.833 -10.002 -23.5s-50.167 -9.66699 -130.5 -12s-173.5 -3.5 -279.5 -3.5c-150.667 0 -261 30.833 -331 92.5s-105 157.834 -105 288.501v788c0 133.333 36 230.166 108 290.499s181.333 90.5 328 90.5c80.667 0 149 -0.666992 205 -2
s102.833 -3.33301 140.5 -6s58.334 -5.16699 62.001 -7.5s6.66699 -6 9 -11s3.5 -9.83301 3.5 -14.5v-102c0 -16.667 -7.66699 -25 -23 -25h-395c-89.333 0 -153.666 -11.5 -192.999 -34.5s-59 -82.5 -59 -178.5v-285h629c11.333 0 21 -4 29 -12s12 -17.667 12 -29v-77
c0 -11.333 -4 -21 -12 -29s-17.667 -12 -29 -12h-629v-344c0 -82 16 -138 48 -168s100 -45 204 -45h395c15.333 0 23 -8.33301 23 -25v-104z" />
    <glyph glyph-name="afii10023" unicode="&#x401;" horiz-adv-x="1128" 
d="M868 1698c0 -10.667 -4.16699 -19.834 -12.5 -27.501s-17.833 -11.5 -28.5 -11.5h-79c-11.333 0 -21 3.83301 -29 11.5s-12 16.834 -12 27.501v166c0 10 4.16699 19.333 12.5 28s17.833 13 28.5 13h79c10.667 0 20.167 -4.33301 28.5 -13s12.5 -18 12.5 -28v-166z
M510 1698c0 -10.667 -4.16699 -19.834 -12.5 -27.501s-17.833 -11.5 -28.5 -11.5h-80c-10.667 0 -20.167 3.83301 -28.5 11.5s-12.5 16.834 -12.5 27.501v166c0 10 4.33301 19.333 13 28s18 13 28 13h80c10 0 19.333 -4.33301 28 -13s13 -18 13 -28v-166zM1016 25
c0 -10 -3.33496 -17.833 -10.002 -23.5s-50.167 -9.66699 -130.5 -12s-173.5 -3.5 -279.5 -3.5c-150.667 0 -261 30.833 -331 92.5s-105 157.834 -105 288.501v788c0 133.333 36 230.166 108 290.499s181.333 90.5 328 90.5c80.667 0 149 -0.666992 205 -2
s102.833 -3.33301 140.5 -6s58.334 -5.16699 62.001 -7.5s6.66699 -6 9 -11s3.5 -9.83301 3.5 -14.5v-102c0 -16.667 -7.66699 -25 -23 -25h-395c-89.333 0 -153.666 -11.5 -192.999 -34.5s-59 -82.5 -59 -178.5v-285h629c11.333 0 21 -4 29 -12s12 -17.667 12 -29v-77
c0 -11.333 -4 -21 -12 -29s-17.667 -12 -29 -12h-629v-344c0 -82 16 -138 48 -168s100 -45 204 -45h395c15.333 0 23 -8.33301 23 -25v-104z" />
    <glyph glyph-name="guillemotleft" unicode="&#xab;" horiz-adv-x="1257" 
d="M770 567l251.003 -261c79.333 -82 120.166 -125 122.499 -129s3.5 -9 3.5 -15c0 -12.667 -7.66699 -19 -23 -19h-118c-18 0 -30.833 5.16699 -38.5 15.5s-68.5 71 -182.5 182s-174.333 173.5 -181 187.5s-10 27 -10 39c0 10 2.16699 20.5 6.5 31.5s23.5 33.5 57.5 67.5
l259 259c37.333 38 59.166 58.5 65.499 61.5s14.166 4.5 23.499 4.5h118c15.333 0 23 -6 23 -18c0 -9.33301 -2.33301 -16.333 -7 -21zM238.003 567l251 -261c78.667 -82 119.167 -125 121.5 -129s3.5 -9 3.5 -15c0 -12.667 -7.33301 -19 -22 -19h-119
c-18 0 -30.667 5.16699 -38 15.5s-68 71 -182 182s-174.5 173.5 -181.5 187.5s-10.5 27 -10.5 39c0 10 2.16699 20.5 6.5 31.5s23.833 33.5 58.5 67.5l258 259c38 38 60 58.5 66 61.5s13.667 4.5 23 4.5h119c14.667 0 22 -6 22 -18c0 -9.33301 -2 -16.333 -6 -21z" />
    <glyph glyph-name="logicalnot" unicode="&#xac;" 
d="M1055 506c0 -11.333 -4 -20.998 -12 -28.998s-17.667 -12 -29 -12h-66c-11.333 0 -21 4 -29 12s-12 17.667 -12 29v448h-682c-11.333 0 -21 2.66699 -29 8s-12 13.666 -12 24.999v82c0 11.333 4 19.666 12 24.999s17.667 8 29 8h795c10 0 18.333 -3.33301 25 -10
s10 -15 10 -25v-561v0z" />
    <glyph glyph-name="registered" unicode="&#xae;" horiz-adv-x="1225" 
d="M1165 991c0 -76 -14.5 -147.5 -43.5 -214.5s-68.5 -125.167 -118.5 -174.5s-108.5 -88.333 -175.5 -117s-138.833 -43 -215.5 -43c-76 0 -147.5 14.333 -214.5 43s-125.5 67.667 -175.5 117s-89.333 107.5 -118 174.5s-43 138.5 -43 214.5s14.333 147.5 43 214.5
s68 125.5 118 175.5s108.5 89.333 175.5 118s138.5 43 214.5 43c76.667 0 148.5 -14.333 215.5 -43s125.5 -68 175.5 -118s89.5 -108.5 118.5 -175.5s43.5 -138.5 43.5 -214.5zM1081 991c0 64.667 -12.333 125.334 -37 182.001s-58.334 106.334 -101.001 149.001
s-92.334 76.334 -149.001 101.001s-117.334 37 -182.001 37s-125.167 -12.333 -181.5 -37s-105.5 -58.334 -147.5 -101.001s-75.167 -92.334 -99.5 -149.001s-36.5 -117.334 -36.5 -182.001s12.167 -125.167 36.5 -181.5s57.5 -105.5 99.5 -147.5
s91.167 -75.167 147.5 -99.5s116.833 -36.5 181.5 -36.5s125.334 12.167 182.001 36.5s106.334 57.5 149.001 99.5s76.334 91.167 101.001 147.5s37 116.833 37 181.5zM870 678c0 -7.33301 -1.66895 -13.668 -5.00195 -19.001s-9.66602 -8 -18.999 -8h-58
c-5.33301 0 -10.166 1.66699 -14.499 5s-7.5 7.33301 -9.5 12l-166 262l-25 6h-81v-254c0 -7.33301 -2.83301 -14.333 -8.5 -21s-12.5 -10 -20.5 -10h-51c-8.66699 0 -15.334 3.33301 -20.001 10s-7 13.667 -7 21v618c0 28 12.333 43.333 37 46l31 2.5
c12.667 1 26.334 1.66699 41.001 2l44.5 1c15 0.333008 28.167 0.5 39.5 0.5c42.667 0 80.5 -3.5 113.5 -10.5s61 -18.667 84 -35s40.5 -37.666 52.5 -63.999s18 -58.833 18 -97.5v-8c0 -52.667 -12 -93.5 -36 -122.5s-57.667 -49.833 -101 -62.5l157 -256
c2.66699 -5.33301 4 -11.333 4 -18zM742.998 1145c0 40.667 -12.498 69.167 -37.498 85.5s-65.5 24.5 -121.5 24.5h-66h-29v-229c6 0 13.5 -0.166992 22.5 -0.5s18.167 -0.5 27.5 -0.5s18.166 -0.166992 26.499 -0.5s14.5 -0.5 18.5 -0.5c57.333 0 98.166 8.5 122.499 25.5
s36.5 46.167 36.5 87.5v8z" />
    <glyph glyph-name="degree" unicode="&#xb0;" horiz-adv-x="700" 
d="M643 1245c0 -40 -7.66699 -77.667 -23 -113s-36.166 -66.166 -62.499 -92.499s-57.166 -47.166 -92.499 -62.499s-73 -23 -113 -23s-77.667 7.66699 -113 23s-66.333 36.166 -93 62.499s-47.834 57.166 -63.501 92.499s-23.5 73 -23.5 113s7.83301 77.667 23.5 113
s36.834 66.166 63.501 92.499s57.667 47.166 93 62.499s73 23 113 23s77.667 -7.66699 113 -23s66.166 -36.166 92.499 -62.499s47.166 -57.166 62.499 -92.499s23 -73 23 -113zM532 1245c0 24.667 -4.66699 47.834 -14 69.501s-22.166 40.667 -38.499 57
s-35.5 29.333 -57.5 39s-45.333 14.5 -70 14.5s-47.834 -4.83301 -69.501 -14.5s-40.667 -22.667 -57 -39s-29.333 -35.333 -39 -57s-14.5 -44.834 -14.5 -69.501s4.83301 -47.834 14.5 -69.501s22.667 -40.667 39 -57s35.333 -29.333 57 -39s44.834 -14.5 69.501 -14.5
s48 4.83301 70 14.5s41.167 22.667 57.5 39s29.166 35.333 38.499 57s14 44.834 14 69.501z" />
    <glyph glyph-name="plusminus" unicode="&#xb1;" 
d="M1085 760c0 -11.333 -4 -19.666 -12 -24.999s-17.667 -8 -29 -8h-352v-350c0 -11.333 -2.66699 -21 -8 -29s-13.666 -12 -24.999 -12h-81c-11.333 0 -19.666 4 -24.999 12s-8 17.667 -8 29v350h-350c-11.333 0 -21 2.66699 -29 8s-12 13.666 -12 24.999v82
c0 11.333 4 19.5 12 24.5s17.667 7.5 29 7.5h350v353c0 11.333 2.66699 21 8 29s13.666 12 24.999 12h81c11.333 0 19.666 -4 24.999 -12s8 -17.667 8 -29v-353h352c11.333 0 21 -2.5 29 -7.5s12 -13.167 12 -24.5v-82zM1085 18c0 -11.333 -4 -19.5 -12 -24.5
s-17.667 -7.5 -29 -7.5h-849c-11.333 0 -21 2.5 -29 7.5s-12 13.167 -12 24.5v68c0 11.333 4 19.666 12 24.999s17.667 8 29 8h849c11.333 0 21 -2.66699 29 -8s12 -13.666 12 -24.999v-68z" />
    <glyph glyph-name="paragraph" unicode="&#xb6;" horiz-adv-x="1274" 
d="M1141 -360c0 -10.667 -3.33398 -19.835 -10.001 -27.502s-15 -11.5 -25 -11.5h-47c-10.667 0 -19.167 3.83301 -25.5 11.5s-9.5 16.834 -9.5 27.501v1771h-119v-1771c0 -10.667 -3.16699 -19.834 -9.5 -27.501s-14.833 -11.5 -25.5 -11.5h-47
c-10 0 -18.333 3.83301 -25 11.5s-10 16.834 -10 27.501v899h-213c-70.667 0 -135.5 10 -194.5 30s-109.833 49.167 -152.5 87.5s-76 85.833 -100 142.5s-36 122 -36 196v70c0 74 12 139.333 36 196s57.333 104.334 100 143.001s93.5 68 152.5 88s123.833 30 194.5 30h533
c12.667 0 21.334 -3.5 26.001 -10.5s7 -16.5 7 -28.5v-1843v0z" />
    <glyph glyph-name="afii10071" unicode="&#xb8;" horiz-adv-x="1114" 
d="M825 1352c0 -10.667 -4.16699 -19.834 -12.5 -27.501s-17.833 -11.5 -28.5 -11.5h-79c-11.333 0 -21 3.83301 -29 11.5s-12 16.834 -12 27.501v166c0 10 4.16699 19.333 12.5 28s17.833 13 28.5 13h79c10.667 0 20.167 -4.33301 28.5 -13s12.5 -18 12.5 -28v-166z
M467 1352c0 -11.333 -4.16699 -20.668 -12.5 -28.001s-17.833 -11 -28.5 -11h-80c-10.667 0 -20.167 3.83301 -28.5 11.5s-12.5 16.834 -12.5 27.501v166c0 10 4.33301 19.333 13 28s18 13 28 13h80c10 0 19.333 -4.33301 28 -13s13 -18 13 -28v-166zM1008 550.998
c0 -30 -13 -45 -39 -45h-686v-29c0 -115.333 22.333 -199.833 67 -253.5s117 -80.5 217 -80.5c99.333 0 186 4 260 12s112.667 12 116 12c21.333 0 32 -10 32 -30v-69c0 -18.667 -5.33301 -31.667 -16 -39s-56.5 -16.333 -137.5 -27s-165.833 -16 -254.5 -16
c-148 0 -262.5 41.5 -343.5 124.5s-121.5 205.167 -121.5 366.5v185c0 148 39.667 264.833 119 350.5s191.333 128.5 336 128.5c144 0 255.167 -42.167 333.5 -126.5s117.5 -201.833 117.5 -352.5v-111zM825 642.998v18.999c0 110.667 -21.167 191.834 -63.5 243.501
s-110.5 77.5 -204.5 77.5c-182.667 0 -274 -107 -274 -321v-19h542z" />
    <glyph glyph-name="afii10071" unicode="&#x451;" horiz-adv-x="1114" 
d="M825 1352c0 -10.667 -4.16699 -19.834 -12.5 -27.501s-17.833 -11.5 -28.5 -11.5h-79c-11.333 0 -21 3.83301 -29 11.5s-12 16.834 -12 27.501v166c0 10 4.16699 19.333 12.5 28s17.833 13 28.5 13h79c10.667 0 20.167 -4.33301 28.5 -13s12.5 -18 12.5 -28v-166z
M467 1352c0 -11.333 -4.16699 -20.668 -12.5 -28.001s-17.833 -11 -28.5 -11h-80c-10.667 0 -20.167 3.83301 -28.5 11.5s-12.5 16.834 -12.5 27.501v166c0 10 4.33301 19.333 13 28s18 13 28 13h80c10 0 19.333 -4.33301 28 -13s13 -18 13 -28v-166zM1008 550.998
c0 -30 -13 -45 -39 -45h-686v-29c0 -115.333 22.333 -199.833 67 -253.5s117 -80.5 217 -80.5c99.333 0 186 4 260 12s112.667 12 116 12c21.333 0 32 -10 32 -30v-69c0 -18.667 -5.33301 -31.667 -16 -39s-56.5 -16.333 -137.5 -27s-165.833 -16 -254.5 -16
c-148 0 -262.5 41.5 -343.5 124.5s-121.5 205.167 -121.5 366.5v185c0 148 39.667 264.833 119 350.5s191.333 128.5 336 128.5c144 0 255.167 -42.167 333.5 -126.5s117.5 -201.833 117.5 -352.5v-111zM825 642.998v18.999c0 110.667 -21.167 191.834 -63.5 243.501
s-110.5 77.5 -204.5 77.5c-182.667 0 -274 -107 -274 -321v-19h542z" />
    <glyph glyph-name="afii61352" unicode="&#xb9;" horiz-adv-x="2400" 
d="M1233 59c0 -16 -5.83301 -29.832 -17.5 -41.499s-25.5 -17.5 -41.5 -17.5h-127c-32.667 0 -54.667 11 -66 33l-641 1214v-1208c0 -10.667 -3.66699 -19.834 -11 -27.501s-16 -11.5 -26 -11.5h-106c-24.667 -0 -37 8.33301 -37 25v1439c0 16 5.66699 29.667 17 41
s25.333 17 42 17h113c27.333 0 46 -2.83301 56 -8.5s19.333 -16.5 28 -32.5l635 -1209v1211c0 10 3.5 19 10.5 27s15.5 12 25.5 12h109c24.667 0 37 -13 37 -39v-1424zM2241 834.001c0 -134.667 -34.167 -241.167 -102.5 -319.5s-166.833 -117.5 -295.5 -117.5
c-126 0 -223.667 38.667 -293 116s-104 184.333 -104 321v133c0 136.667 34.833 243.834 104.5 321.501s167.167 116.5 292.5 116.5c126 0 223.833 -38.833 293.5 -116.5s104.5 -184.834 104.5 -321.501v-133zM2064 834.001v133c0 189.333 -73.667 284 -221 284
s-221 -94.667 -221 -284v-133c0 -190 73.667 -285 221 -285s221 95 221 285zM2241 174.001c0 -11.333 -4.16699 -21 -12.5 -29s-17.833 -12 -28.5 -12h-713c-11.333 0 -21 4 -29 12s-12 17.667 -12 29v70c0 11.333 4 21 12 29s17.667 12 29 12h713
c10.667 0 20.167 -4 28.5 -12s12.5 -17.667 12.5 -29v-70z" />
    <glyph glyph-name="afii61352" unicode="&#x2116;" horiz-adv-x="2400" 
d="M1233 59c0 -16 -5.83301 -29.832 -17.5 -41.499s-25.5 -17.5 -41.5 -17.5h-127c-32.667 0 -54.667 11 -66 33l-641 1214v-1208c0 -10.667 -3.66699 -19.834 -11 -27.501s-16 -11.5 -26 -11.5h-106c-24.667 -0 -37 8.33301 -37 25v1439c0 16 5.66699 29.667 17 41
s25.333 17 42 17h113c27.333 0 46 -2.83301 56 -8.5s19.333 -16.5 28 -32.5l635 -1209v1211c0 10 3.5 19 10.5 27s15.5 12 25.5 12h109c24.667 0 37 -13 37 -39v-1424zM2241 834.001c0 -134.667 -34.167 -241.167 -102.5 -319.5s-166.833 -117.5 -295.5 -117.5
c-126 0 -223.667 38.667 -293 116s-104 184.333 -104 321v133c0 136.667 34.833 243.834 104.5 321.501s167.167 116.5 292.5 116.5c126 0 223.833 -38.833 293.5 -116.5s104.5 -184.834 104.5 -321.501v-133zM2064 834.001v133c0 189.333 -73.667 284 -221 284
s-221 -94.667 -221 -284v-133c0 -190 73.667 -285 221 -285s221 95 221 285zM2241 174.001c0 -11.333 -4.16699 -21 -12.5 -29s-17.833 -12 -28.5 -12h-713c-11.333 0 -21 4 -29 12s-12 17.667 -12 29v70c0 11.333 4 21 12 29s17.667 12 29 12h713
c10.667 0 20.167 -4 28.5 -12s12.5 -17.667 12.5 -29v-70z" />
    <glyph glyph-name="guillemotright" unicode="&#xbb;" horiz-adv-x="1257" 
d="M1020 567l-251.001 260.999c-79.333 82 -120.166 125.167 -122.499 129.5s-3.5 9.5 -3.5 15.5c0 12 7.66699 18 23 18h118c18 0 30.833 -5.16699 38.5 -15.5s68.5 -70.833 182.5 -181.5s174.333 -173 181 -187s10 -27.333 10 -40
c0 -9.33301 -2.16699 -19.666 -6.5 -30.999s-23.5 -34 -57.5 -68l-259 -258c-38 -38 -60 -58.667 -66 -62s-13.667 -5 -23 -5h-118c-15.333 0 -23 6.33301 -23 19c0 9.33301 2.33301 16.333 7 21zM486.999 566.999l-251 260.999c-78.667 82 -119.167 125.167 -121.5 129.5
s-3.5 9.5 -3.5 15.5c0 12 7.33301 18 22 18h119c18 0 30.667 -5.16699 38 -15.5s68 -70.833 182 -181.5s174.5 -173 181.5 -187s10.5 -27.333 10.5 -40c0 -9.33301 -2.16699 -19.666 -6.5 -30.999s-23.833 -34 -58.5 -68l-258 -258c-38 -38 -60 -58.667 -66 -62
s-13.667 -5 -23 -5h-119c-14.667 0 -22 6.33301 -22 19c0 9.33301 2 16.333 6 21z" />
    <glyph glyph-name="afii10017" unicode="&#xc0;" horiz-adv-x="1296" 
d="M383 502l-131 -471.999c-2.66699 -10.667 -8 -18.334 -16 -23.001s-15 -7 -21 -7h-121c-23.333 0 -35 11 -35 33c0 4.66699 0.666992 9.33398 2 14.001l379 1333c29.333 104 99 156 209 156c108.667 0 177.667 -51.333 207 -154l379 -1335
c1.33301 -2.66699 2 -7.33398 2 -14.001c0 -22 -11.667 -33 -35 -33h-121c-8.66699 -0 -16 2.83301 -22 8.5s-15.333 31.5 -28 77.5l-118 416h-530zM874 664.001l-143.001 518.998c-29.333 104.667 -44.666 159 -45.999 163s-3.66602 8.33301 -6.99902 13
s-7.33301 8.33398 -12 11.001s-10.334 4 -17.001 4c-7.33301 0 -13.833 -1.66699 -19.5 -5s-10.167 -7.66602 -13.5 -12.999s-15 -44.333 -35 -117l-159 -575h452z" />
    <glyph glyph-name="afii10017" unicode="&#x410;" horiz-adv-x="1296" 
d="M383 502l-131 -471.999c-2.66699 -10.667 -8 -18.334 -16 -23.001s-15 -7 -21 -7h-121c-23.333 0 -35 11 -35 33c0 4.66699 0.666992 9.33398 2 14.001l379 1333c29.333 104 99 156 209 156c108.667 0 177.667 -51.333 207 -154l379 -1335
c1.33301 -2.66699 2 -7.33398 2 -14.001c0 -22 -11.667 -33 -35 -33h-121c-8.66699 -0 -16 2.83301 -22 8.5s-15.333 31.5 -28 77.5l-118 416h-530zM874 664.001l-143.001 518.998c-29.333 104.667 -44.666 159 -45.999 163s-3.66602 8.33301 -6.99902 13
s-7.33301 8.33398 -12 11.001s-10.334 4 -17.001 4c-7.33301 0 -13.833 -1.66699 -19.5 -5s-10.167 -7.66602 -13.5 -12.999s-15 -44.333 -35 -117l-159 -575h452z" />
    <glyph glyph-name="afii10018" unicode="&#xc1;" horiz-adv-x="1262" 
d="M1159 420c0 -289.333 -199.334 -434 -598.001 -434c-92 0 -176.167 2.83301 -252.5 8.5s-120.166 15.167 -131.499 28.5s-17 32.333 -17 57v1403c0 26 12.333 39 37 39h782c11.333 0 21 -4 29 -12s12 -17.667 12 -29v-84c0 -11.333 -4 -21 -12 -29s-17.667 -12 -29 -12
h-633v-473c81.333 5.33301 153 8 215 8c398.667 0 598 -145.333 598 -436v-35zM972.999 420l0.000976562 37.001c0 95.333 -31 165.166 -93 209.499s-168.333 66.5 -319 66.5c-52.667 0 -124.334 -2.66699 -215.001 -8v-573c128 -6 199.667 -9 215 -9
c150.667 0 257 22.167 319 66.5s93 114.5 93 210.5z" />
    <glyph glyph-name="afii10018" unicode="&#x411;" horiz-adv-x="1262" 
d="M1159 420c0 -289.333 -199.334 -434 -598.001 -434c-92 0 -176.167 2.83301 -252.5 8.5s-120.166 15.167 -131.499 28.5s-17 32.333 -17 57v1403c0 26 12.333 39 37 39h782c11.333 0 21 -4 29 -12s12 -17.667 12 -29v-84c0 -11.333 -4 -21 -12 -29s-17.667 -12 -29 -12
h-633v-473c81.333 5.33301 153 8 215 8c398.667 0 598 -145.333 598 -436v-35zM972.999 420l0.000976562 37.001c0 95.333 -31 165.166 -93 209.499s-168.333 66.5 -319 66.5c-52.667 0 -124.334 -2.66699 -215.001 -8v-573c128 -6 199.667 -9 215 -9
c150.667 0 257 22.167 319 66.5s93 114.5 93 210.5z" />
    <glyph glyph-name="afii10019" unicode="&#xc2;" horiz-adv-x="1262" 
d="M1159 420c0 -289.333 -199.333 -434 -598 -434c-92 0 -176.167 2.83301 -252.5 8.5s-120.166 15.167 -131.499 28.5s-17 32.333 -17 57v1364c0 18 3.33301 32.833 10 44.5s16.5 20.167 29.5 25.5s56.5 10.333 130.5 15s147.667 7 221 7c400 0 600 -131.667 600 -395v-33
c0 -74.667 -18.833 -140 -56.5 -196s-91.834 -98 -162.501 -126c72 -25.333 127.833 -67.5 167.5 -126.5s59.5 -127.167 59.5 -204.5v-35zM965 1108v33c0 82 -30.167 142 -90.5 180s-168.166 57 -323.499 57c-20.667 0 -88.334 -2 -203.001 -6v-508h316
c200.667 0 301 81.333 301 244zM973 420v35c0 173.333 -103 260 -309 260h-316v-563c127.333 -6 198.333 -9 213 -9c150.667 0 257 22.167 319 66.5s93 114.5 93 210.5z" />
    <glyph glyph-name="afii10019" unicode="&#x412;" horiz-adv-x="1262" 
d="M1159 420c0 -289.333 -199.333 -434 -598 -434c-92 0 -176.167 2.83301 -252.5 8.5s-120.166 15.167 -131.499 28.5s-17 32.333 -17 57v1364c0 18 3.33301 32.833 10 44.5s16.5 20.167 29.5 25.5s56.5 10.333 130.5 15s147.667 7 221 7c400 0 600 -131.667 600 -395v-33
c0 -74.667 -18.833 -140 -56.5 -196s-91.834 -98 -162.501 -126c72 -25.333 127.833 -67.5 167.5 -126.5s59.5 -127.167 59.5 -204.5v-35zM965 1108v33c0 82 -30.167 142 -90.5 180s-168.166 57 -323.499 57c-20.667 0 -88.334 -2 -203.001 -6v-508h316
c200.667 0 301 81.333 301 244zM973 420v35c0 173.333 -103 260 -309 260h-316v-563c127.333 -6 198.333 -9 213 -9c150.667 0 257 22.167 319 66.5s93 114.5 93 210.5z" />
    <glyph glyph-name="afii10020" unicode="&#xc3;" horiz-adv-x="1098" 
d="M1016 1393c0 -16.667 -7.66699 -24.999 -23 -24.999h-395c-89.333 0 -153.666 -11.5 -192.999 -34.5s-59 -82.5 -59 -178.5v-1114c0 -11.333 -4 -21 -12 -29s-17.667 -12 -29 -12h-104c-11.333 0 -21 4 -29 12s-12 17.667 -12 29v1114c0 133.333 36 230.166 108 290.499
s181.333 90.5 328 90.5c13.333 0 82.666 -0.833008 207.999 -2.5s192 -6 200 -13s12 -15.5 12 -25.5v-102z" />
    <glyph glyph-name="afii10020" unicode="&#x413;" horiz-adv-x="1098" 
d="M1016 1393c0 -16.667 -7.66699 -24.999 -23 -24.999h-395c-89.333 0 -153.666 -11.5 -192.999 -34.5s-59 -82.5 -59 -178.5v-1114c0 -11.333 -4 -21 -12 -29s-17.667 -12 -29 -12h-104c-11.333 0 -21 4 -29 12s-12 17.667 -12 29v1114c0 133.333 36 230.166 108 290.499
s181.333 90.5 328 90.5c13.333 0 82.666 -0.833008 207.999 -2.5s192 -6 200 -13s12 -15.5 12 -25.5v-102z" />
    <glyph glyph-name="afii10021" unicode="&#xc4;" horiz-adv-x="1403" 
d="M88 166h63.998l346 1214c28.667 104 98.334 156 209.001 156c108.667 0 177.334 -51.333 206.001 -154l344 -1216h58c24.667 0 37 -13 37 -39v-332c0 -10.667 -3.5 -20.167 -10.5 -28.5s-15.833 -12.5 -26.5 -12.5h-113c-10 0 -18.667 4 -26 12s-11 17.667 -11 29v205
h-927v-205c0 -10.667 -3.5 -20.167 -10.5 -28.5s-15.833 -12.5 -26.5 -12.5h-113c-10 0 -18.667 4 -26 12s-11 17.667 -11 29v332c0 26 12.333 39 37 39zM665.998 1337l-319.998 -1171h721l-322 1171c-6.66699 24.667 -19.334 37 -38.001 37
c-20.667 0 -34.334 -12.333 -41.001 -37z" />
    <glyph glyph-name="afii10021" unicode="&#x414;" horiz-adv-x="1403" 
d="M88 166h63.998l346 1214c28.667 104 98.334 156 209.001 156c108.667 0 177.334 -51.333 206.001 -154l344 -1216h58c24.667 0 37 -13 37 -39v-332c0 -10.667 -3.5 -20.167 -10.5 -28.5s-15.833 -12.5 -26.5 -12.5h-113c-10 0 -18.667 4 -26 12s-11 17.667 -11 29v205
h-927v-205c0 -10.667 -3.5 -20.167 -10.5 -28.5s-15.833 -12.5 -26.5 -12.5h-113c-10 0 -18.667 4 -26 12s-11 17.667 -11 29v332c0 26 12.333 39 37 39zM665.998 1337l-319.998 -1171h721l-322 1171c-6.66699 24.667 -19.334 37 -38.001 37
c-20.667 0 -34.334 -12.333 -41.001 -37z" />
    <glyph glyph-name="afii10022" unicode="&#xc5;" horiz-adv-x="1128" 
d="M1016 25c0 -10 -3.33496 -17.833 -10.002 -23.5s-50.167 -9.66699 -130.5 -12s-173.5 -3.5 -279.5 -3.5c-150.667 0 -261 30.833 -331 92.5s-105 157.834 -105 288.501v788c0 133.333 36 230.166 108 290.499s181.333 90.5 328 90.5c80.667 0 149 -0.666992 205 -2
s102.833 -3.33301 140.5 -6s58.334 -5.16699 62.001 -7.5s6.66699 -6 9 -11s3.5 -9.83301 3.5 -14.5v-102c0 -16.667 -7.66699 -25 -23 -25h-395c-89.333 0 -153.666 -11.5 -192.999 -34.5s-59 -82.5 -59 -178.5v-285h629c11.333 0 21 -4 29 -12s12 -17.667 12 -29v-77
c0 -11.333 -4 -21 -12 -29s-17.667 -12 -29 -12h-629v-344c0 -82 16 -138 48 -168s100 -45 204 -45h395c15.333 0 23 -8.33301 23 -25v-104z" />
    <glyph glyph-name="afii10022" unicode="&#x415;" horiz-adv-x="1128" 
d="M1016 25c0 -10 -3.33496 -17.833 -10.002 -23.5s-50.167 -9.66699 -130.5 -12s-173.5 -3.5 -279.5 -3.5c-150.667 0 -261 30.833 -331 92.5s-105 157.834 -105 288.501v788c0 133.333 36 230.166 108 290.499s181.333 90.5 328 90.5c80.667 0 149 -0.666992 205 -2
s102.833 -3.33301 140.5 -6s58.334 -5.16699 62.001 -7.5s6.66699 -6 9 -11s3.5 -9.83301 3.5 -14.5v-102c0 -16.667 -7.66699 -25 -23 -25h-395c-89.333 0 -153.666 -11.5 -192.999 -34.5s-59 -82.5 -59 -178.5v-285h629c11.333 0 21 -4 29 -12s12 -17.667 12 -29v-77
c0 -11.333 -4 -21 -12 -29s-17.667 -12 -29 -12h-629v-344c0 -82 16 -138 48 -168s100 -45 204 -45h395c15.333 0 23 -8.33301 23 -25v-104z" />
    <glyph glyph-name="afii10024" unicode="&#xc6;" horiz-adv-x="1980" 
d="M1891 45c6 -7.33301 8.99609 -15.333 8.99609 -24c0 -14 -8.33301 -21 -25 -21h-160c-18.667 0 -33.667 6.66699 -45 20l-578 703v-682c0 -10.667 -3.5 -20.167 -10.5 -28.5s-15.5 -12.5 -25.5 -12.5h-113c-10 0 -18.667 4 -26 12s-11 17.667 -11 29v682l-578 -703
c-11.333 -13.333 -26.333 -20 -45 -20h-159c-17.333 0 -26 7 -26 21c0 8.66699 3 16.667 9 24l617 737l-617 697c-5.33301 6 -8 13 -8 21c0 14.667 9.66699 22 29 22h147c16.667 0 30.334 -6.33301 41.001 -19l590 -682v662c0 10.667 3.83301 19.834 11.5 27.501
s16.834 11.5 27.501 11.5h108c10.667 0 19.834 -3.83301 27.501 -11.5s11.5 -16.834 11.5 -27.501v-662l590 682c12.667 12.667 26.334 19 41.001 19h148c19.333 0 29 -7.33301 29 -22c0 -8 -3 -15 -9 -21l-616 -697z" />
    <glyph glyph-name="afii10024" unicode="&#x416;" horiz-adv-x="1980" 
d="M1891 45c6 -7.33301 8.99609 -15.333 8.99609 -24c0 -14 -8.33301 -21 -25 -21h-160c-18.667 0 -33.667 6.66699 -45 20l-578 703v-682c0 -10.667 -3.5 -20.167 -10.5 -28.5s-15.5 -12.5 -25.5 -12.5h-113c-10 0 -18.667 4 -26 12s-11 17.667 -11 29v682l-578 -703
c-11.333 -13.333 -26.333 -20 -45 -20h-159c-17.333 0 -26 7 -26 21c0 8.66699 3 16.667 9 24l617 737l-617 697c-5.33301 6 -8 13 -8 21c0 14.667 9.66699 22 29 22h147c16.667 0 30.334 -6.33301 41.001 -19l590 -682v662c0 10.667 3.83301 19.834 11.5 27.501
s16.834 11.5 27.501 11.5h108c10.667 0 19.834 -3.83301 27.501 -11.5s11.5 -16.834 11.5 -27.501v-662l590 682c12.667 12.667 26.334 19 41.001 19h148c19.333 0 29 -7.33301 29 -22c0 -8 -3 -15 -9 -21l-616 -697z" />
    <glyph glyph-name="afii10025" unicode="&#xc7;" horiz-adv-x="1198" 
d="M1038 424c0 -142 -44.167 -250.5 -132.5 -325.5s-214.166 -112.5 -377.499 -112.5c-75.333 0 -154 6.5 -236 19.5s-127.333 24 -136 33s-13 18.167 -13 27.5v69c0 23.333 13.667 35 41 35c143.333 -19.333 258 -29 344 -29c111.333 0 192.5 22.5 243.5 67.5
s76.5 116.833 76.5 215.5v43c0 72.667 -20.667 132.5 -62 179.5s-100.666 70.5 -177.999 70.5h-372c-26 0 -39 12.333 -39 37v71c0 26 13 39 39 39h372c79.333 0 139.166 21.333 179.499 64s60.5 102.667 60.5 180v29c0 86.667 -25.167 148.834 -75.5 186.501
s-131.833 56.5 -244.5 56.5c-48.667 0 -106.667 -3.66699 -174 -11l-174 -20c-24.667 0 -37 11.667 -37 35v72c0 12.667 6 22.667 18 30s57.667 17.5 137 30.5s156 19.5 230 19.5c175.333 0 304.166 -32.833 386.499 -98.5s123.5 -165.834 123.5 -300.501v-29
c0 -146 -64.667 -252.667 -194 -320c129.333 -64.667 194 -171.667 194 -321v-43z" />
    <glyph glyph-name="afii10025" unicode="&#x417;" horiz-adv-x="1198" 
d="M1038 424c0 -142 -44.167 -250.5 -132.5 -325.5s-214.166 -112.5 -377.499 -112.5c-75.333 0 -154 6.5 -236 19.5s-127.333 24 -136 33s-13 18.167 -13 27.5v69c0 23.333 13.667 35 41 35c143.333 -19.333 258 -29 344 -29c111.333 0 192.5 22.5 243.5 67.5
s76.5 116.833 76.5 215.5v43c0 72.667 -20.667 132.5 -62 179.5s-100.666 70.5 -177.999 70.5h-372c-26 0 -39 12.333 -39 37v71c0 26 13 39 39 39h372c79.333 0 139.166 21.333 179.499 64s60.5 102.667 60.5 180v29c0 86.667 -25.167 148.834 -75.5 186.501
s-131.833 56.5 -244.5 56.5c-48.667 0 -106.667 -3.66699 -174 -11l-174 -20c-24.667 0 -37 11.667 -37 35v72c0 12.667 6 22.667 18 30s57.667 17.5 137 30.5s156 19.5 230 19.5c175.333 0 304.166 -32.833 386.499 -98.5s123.5 -165.834 123.5 -300.501v-29
c0 -146 -64.667 -252.667 -194 -320c129.333 -64.667 194 -171.667 194 -321v-43z" />
    <glyph glyph-name="afii10026" unicode="&#xc8;" horiz-adv-x="1393" 
d="M160 59v1424c0 26 12.333 39 37 39h108c10 0 18.667 -4 26 -12s11 -17 11 -27v-1198c0 -4 0.666992 -6 2 -6l633 1202c8.66699 16 18 26.833 28 32.5s28.667 8.5 56 8.5h113c16 0 29.833 -5.66699 41.5 -17s17.5 -25 17.5 -41v-1439c0 -16.667 -12.333 -25 -37 -25h-106
c-10.667 0 -19.5 3.83301 -26.5 11.5s-10.5 16.834 -10.5 27.501v1196c0 4 -0.666992 6 -2 6c-2 0 -4.33301 -2 -7 -6l-632 -1202c-12 -22 -34 -33 -66 -33h-127c-16 -0 -29.833 5.83301 -41.5 17.5s-17.5 25.5 -17.5 41.5z" />
    <glyph glyph-name="afii10026" unicode="&#x418;" horiz-adv-x="1393" 
d="M160 59v1424c0 26 12.333 39 37 39h108c10 0 18.667 -4 26 -12s11 -17 11 -27v-1198c0 -4 0.666992 -6 2 -6l633 1202c8.66699 16 18 26.833 28 32.5s28.667 8.5 56 8.5h113c16 0 29.833 -5.66699 41.5 -17s17.5 -25 17.5 -41v-1439c0 -16.667 -12.333 -25 -37 -25h-106
c-10.667 0 -19.5 3.83301 -26.5 11.5s-10.5 16.834 -10.5 27.501v1196c0 4 -0.666992 6 -2 6c-2 0 -4.33301 -2 -7 -6l-632 -1202c-12 -22 -34 -33 -66 -33h-127c-16 -0 -29.833 5.83301 -41.5 17.5s-17.5 25.5 -17.5 41.5z" />
    <glyph glyph-name="afii10027" unicode="&#xc9;" horiz-adv-x="1393" 
d="M1001 1946c16 0 24 -8.66699 24 -26c0 -78.667 -31.333 -148 -94 -208s-143 -90 -241 -90s-178.167 30 -240.5 90s-93.5 129.333 -93.5 208c0 17.333 7.66699 26 23 26h76c18 0 28 -11 30 -33c6 -50.667 28.167 -90.667 66.5 -120s84.5 -44 138.5 -44
s100.333 14.667 139 44s60.667 69.333 66 120c2 22 12.333 33 31 33h75zM160 59v1424c0 26 12.333 39 37 39h108c10 0 18.667 -4 26 -12s11 -17 11 -27v-1198c0 -4 0.666992 -6 2 -6l633 1202c8.66699 16 18 26.833 28 32.5s28.667 8.5 56 8.5h113
c16 0 29.833 -5.66699 41.5 -17s17.5 -25 17.5 -41v-1439c0 -16.667 -12.333 -25 -37 -25h-106c-10.667 0 -19.5 3.83301 -26.5 11.5s-10.5 16.834 -10.5 27.501v1196c0 4 -0.666992 6 -2 6c-2 0 -4.33301 -2 -7 -6l-632 -1202c-12 -22 -34 -33 -66 -33h-127
c-16 -0 -29.833 5.83301 -41.5 17.5s-17.5 25.5 -17.5 41.5z" />
    <glyph glyph-name="afii10027" unicode="&#x419;" horiz-adv-x="1393" 
d="M1001 1946c16 0 24 -8.66699 24 -26c0 -78.667 -31.333 -148 -94 -208s-143 -90 -241 -90s-178.167 30 -240.5 90s-93.5 129.333 -93.5 208c0 17.333 7.66699 26 23 26h76c18 0 28 -11 30 -33c6 -50.667 28.167 -90.667 66.5 -120s84.5 -44 138.5 -44
s100.333 14.667 139 44s60.667 69.333 66 120c2 22 12.333 33 31 33h75zM160 59v1424c0 26 12.333 39 37 39h108c10 0 18.667 -4 26 -12s11 -17 11 -27v-1198c0 -4 0.666992 -6 2 -6l633 1202c8.66699 16 18 26.833 28 32.5s28.667 8.5 56 8.5h113
c16 0 29.833 -5.66699 41.5 -17s17.5 -25 17.5 -41v-1439c0 -16.667 -12.333 -25 -37 -25h-106c-10.667 0 -19.5 3.83301 -26.5 11.5s-10.5 16.834 -10.5 27.501v1196c0 4 -0.666992 6 -2 6c-2 0 -4.33301 -2 -7 -6l-632 -1202c-12 -22 -34 -33 -66 -33h-127
c-16 -0 -29.833 5.83301 -41.5 17.5s-17.5 25.5 -17.5 41.5z" />
    <glyph glyph-name="afii10028" unicode="&#xca;" horiz-adv-x="1243" 
d="M1145 45c6 -7.33301 9 -15.332 9 -23.999c0 -14 -8.66699 -21 -26 -21h-159c-19.333 0 -34.333 6.66699 -45 20l-578 703v-682c0 -10.667 -3.5 -20.167 -10.5 -28.5s-15.833 -12.5 -26.5 -12.5h-112c-10.667 0 -19.5 4 -26.5 12s-10.5 17.667 -10.5 29v1442
c0 10 3.66699 19 11 27s16.666 12 27.999 12h108c10.667 0 19.834 -3.83301 27.501 -11.5s11.5 -16.834 11.5 -27.501v-662l590 682c12 12.667 25.667 19 41 19h147c19.333 0 29 -7.33301 29 -22c0 -8 -2.66699 -15 -8 -21l-617 -697z" />
    <glyph glyph-name="afii10028" unicode="&#x41a;" horiz-adv-x="1243" 
d="M1145 45c6 -7.33301 9 -15.332 9 -23.999c0 -14 -8.66699 -21 -26 -21h-159c-19.333 0 -34.333 6.66699 -45 20l-578 703v-682c0 -10.667 -3.5 -20.167 -10.5 -28.5s-15.833 -12.5 -26.5 -12.5h-112c-10.667 0 -19.5 4 -26.5 12s-10.5 17.667 -10.5 29v1442
c0 10 3.66699 19 11 27s16.666 12 27.999 12h108c10.667 0 19.834 -3.83301 27.501 -11.5s11.5 -16.834 11.5 -27.501v-662l590 682c12 12.667 25.667 19 41 19h147c19.333 0 29 -7.33301 29 -22c0 -8 -2.66699 -15 -8 -21l-617 -697z" />
    <glyph glyph-name="afii10029" unicode="&#xcb;" horiz-adv-x="1296" 
d="M1047 31l-359.001 1306c-6.66699 24.667 -19.667 37 -39 37c-20.667 0 -34.334 -12.333 -41.001 -37l-356 -1306c-5.33301 -20.667 -17.666 -31 -36.999 -31h-121c-23.333 0 -35 11 -35 33c0 4.66699 0.666992 9.33398 2 14.001l379 1333c29.333 104 99 156 209 156
c108.667 0 177.667 -51.333 207 -154l379 -1335c1.33301 -2.66699 2 -7.33398 2 -14.001c0 -22 -11.667 -33 -35 -33h-121c-17.333 -0 -28.666 10.333 -33.999 31z" />
    <glyph glyph-name="afii10029" unicode="&#x41b;" horiz-adv-x="1296" 
d="M1047 31l-359.001 1306c-6.66699 24.667 -19.667 37 -39 37c-20.667 0 -34.334 -12.333 -41.001 -37l-356 -1306c-5.33301 -20.667 -17.666 -31 -36.999 -31h-121c-23.333 0 -35 11 -35 33c0 4.66699 0.666992 9.33398 2 14.001l379 1333c29.333 104 99 156 209 156
c108.667 0 177.667 -51.333 207 -154l379 -1335c1.33301 -2.66699 2 -7.33398 2 -14.001c0 -22 -11.667 -33 -35 -33h-121c-17.333 -0 -28.666 10.333 -33.999 31z" />
    <glyph glyph-name="afii10030" unicode="&#xcc;" horiz-adv-x="1559" 
d="M1401 41c0 -11.333 -4.00195 -21.001 -12.002 -29.001s-17.667 -12 -29 -12h-100c-11.333 0 -21 4 -29 12s-12 17.667 -12 29v1214c0 5.33301 -0.666992 8 -2 8s-3 -2 -5 -6l-191 -395c-70 -145.333 -108.167 -223.166 -114.5 -233.499s-15.666 -19 -27.999 -26
s-29.5 -10.5 -51.5 -10.5h-94c-22.667 0 -40.667 3.83301 -54 11.5s-26 23.5 -38 47.5l-220 456c-50 104 -75.667 156 -77 156s-2 -2.66699 -2 -8v-1214c0 -11.333 -4 -21 -12 -29s-17.667 -12 -29 -12h-100c-11.333 0 -21 4 -29 12s-12 17.667 -12 29v1421
c0 16.667 5.83301 30.834 17.5 42.501s25.5 17.5 41.5 17.5h133c32.667 0 54.667 -11.667 66 -35l338 -703c6.66699 -14.667 14.667 -22 24 -22s17.666 7.33301 24.999 22l338 703c10.667 23.333 32.334 35 65.001 35h133c16.667 0 30.834 -5.83301 42.501 -17.5
s17.5 -25.834 17.5 -42.501v-1421z" />
    <glyph glyph-name="afii10030" unicode="&#x41c;" horiz-adv-x="1559" 
d="M1401 41c0 -11.333 -4.00195 -21.001 -12.002 -29.001s-17.667 -12 -29 -12h-100c-11.333 0 -21 4 -29 12s-12 17.667 -12 29v1214c0 5.33301 -0.666992 8 -2 8s-3 -2 -5 -6l-191 -395c-70 -145.333 -108.167 -223.166 -114.5 -233.499s-15.666 -19 -27.999 -26
s-29.5 -10.5 -51.5 -10.5h-94c-22.667 0 -40.667 3.83301 -54 11.5s-26 23.5 -38 47.5l-220 456c-50 104 -75.667 156 -77 156s-2 -2.66699 -2 -8v-1214c0 -11.333 -4 -21 -12 -29s-17.667 -12 -29 -12h-100c-11.333 0 -21 4 -29 12s-12 17.667 -12 29v1421
c0 16.667 5.83301 30.834 17.5 42.501s25.5 17.5 41.5 17.5h133c32.667 0 54.667 -11.667 66 -35l338 -703c6.66699 -14.667 14.667 -22 24 -22s17.666 7.33301 24.999 22l338 703c10.667 23.333 32.334 35 65.001 35h133c16.667 0 30.834 -5.83301 42.501 -17.5
s17.5 -25.834 17.5 -42.501v-1421z" />
    <glyph glyph-name="afii10031" unicode="&#xcd;" horiz-adv-x="1393" 
d="M1233 41c0 -11.333 -4 -21 -12 -29s-17.667 -12 -29 -12h-105c-10.667 0 -20 4 -28 12s-12 17.667 -12 29v680h-701v-680c0 -11.333 -4 -21 -12 -29s-17.667 -12 -29 -12h-104c-11.333 0 -21 4 -29 12s-12 17.667 -12 29v1440c0 11.333 4 21 12 29s17.667 12 29 12h104
c11.333 0 21 -4 29 -12s12 -17.667 12 -29v-594h701v594c0 11.333 4 21 12 29s17.333 12 28 12h105c11.333 0 21 -4 29 -12s12 -17.667 12 -29v-1440z" />
    <glyph glyph-name="afii10031" unicode="&#x41d;" horiz-adv-x="1393" 
d="M1233 41c0 -11.333 -4 -21 -12 -29s-17.667 -12 -29 -12h-105c-10.667 0 -20 4 -28 12s-12 17.667 -12 29v680h-701v-680c0 -11.333 -4 -21 -12 -29s-17.667 -12 -29 -12h-104c-11.333 0 -21 4 -29 12s-12 17.667 -12 29v1440c0 11.333 4 21 12 29s17.667 12 29 12h104
c11.333 0 21 -4 29 -12s12 -17.667 12 -29v-594h701v594c0 11.333 4 21 12 29s17.333 12 28 12h105c11.333 0 21 -4 29 -12s12 -17.667 12 -29v-1440z" />
    <glyph glyph-name="afii10032" unicode="&#xce;" horiz-adv-x="1354" 
d="M1231 629c0 -209.333 -47.999 -368.833 -143.999 -478.5s-232.333 -164.5 -409 -164.5s-313.334 54.833 -410.001 164.5s-145 269.167 -145 478.5v264c0 217.333 50 378.833 150 484.5s235 158.5 405 158.5c176.667 0 313 -54.833 409 -164.5s144 -269.167 144 -478.5
v-264zM1042 629v264c0 316.667 -121.333 475 -364 475c-244.667 0 -367 -158.333 -367 -475v-264c0 -316.667 122.333 -475 367 -475c242.667 0 364 158.333 364 475z" />
    <glyph glyph-name="afii10032" unicode="&#x41e;" horiz-adv-x="1354" 
d="M1231 629c0 -209.333 -47.999 -368.833 -143.999 -478.5s-232.333 -164.5 -409 -164.5s-313.334 54.833 -410.001 164.5s-145 269.167 -145 478.5v264c0 217.333 50 378.833 150 484.5s235 158.5 405 158.5c176.667 0 313 -54.833 409 -164.5s144 -269.167 144 -478.5
v-264zM1042 629v264c0 316.667 -121.333 475 -364 475c-244.667 0 -367 -158.333 -367 -475v-264c0 -316.667 122.333 -475 367 -475c242.667 0 364 158.333 364 475z" />
    <glyph glyph-name="afii10033" unicode="&#xcf;" horiz-adv-x="1393" 
d="M1047 41l0.000976562 1225c0 34 -5.33301 57.167 -16 69.5s-36.334 18.5 -77.001 18.5h-516c-40 0 -65.333 -6.16699 -76 -18.5s-16 -35.5 -16 -69.5v-1225c0 -11.333 -4 -21 -12 -29s-17.667 -12 -29 -12h-104c-11.333 0 -21 4 -29 12s-12 17.667 -12 29v1225
c0 170.667 92.667 256 278 256h516c186 0 279 -85.333 279 -256v-1225c0 -11.333 -4 -21 -12 -29s-17.667 -12 -29 -12h-105c-10.667 0 -20 4 -28 12s-12 17.667 -12 29z" />
    <glyph glyph-name="afii10033" unicode="&#x41f;" horiz-adv-x="1393" 
d="M1047 41l0.000976562 1225c0 34 -5.33301 57.167 -16 69.5s-36.334 18.5 -77.001 18.5h-516c-40 0 -65.333 -6.16699 -76 -18.5s-16 -35.5 -16 -69.5v-1225c0 -11.333 -4 -21 -12 -29s-17.667 -12 -29 -12h-104c-11.333 0 -21 4 -29 12s-12 17.667 -12 29v1225
c0 170.667 92.667 256 278 256h516c186 0 279 -85.333 279 -256v-1225c0 -11.333 -4 -21 -12 -29s-17.667 -12 -29 -12h-105c-10.667 0 -20 4 -28 12s-12 17.667 -12 29z" />
    <glyph glyph-name="afii10034" unicode="&#xd0;" horiz-adv-x="1204" 
d="M1122 1065c0 -306 -191 -459 -573 -459c-48.667 0 -117 3.33301 -205 10v-575c0 -10.667 -3.5 -20.167 -10.5 -28.5s-15.833 -12.5 -26.5 -12.5h-110c-10.667 0 -19.5 4 -26.5 12s-10.5 17.667 -10.5 29v1427c0 14.667 5.33301 27.667 16 39s61.5 19 152.5 23
s164.5 6 220.5 6c382 0 573 -148 573 -444v-27zM936 1065l0.00195312 27.001c0 100.667 -30.5 173.5 -91.5 218.5s-159.5 67.5 -295.5 67.5c-66.667 0 -135 -2.66699 -205 -8v-600c125.333 -5.33301 193.666 -8 204.999 -8c137.333 0 236.166 23.167 296.499 69.5
s90.5 124.166 90.5 233.499z" />
    <glyph glyph-name="afii10034" unicode="&#x420;" horiz-adv-x="1204" 
d="M1122 1065c0 -306 -191 -459 -573 -459c-48.667 0 -117 3.33301 -205 10v-575c0 -10.667 -3.5 -20.167 -10.5 -28.5s-15.833 -12.5 -26.5 -12.5h-110c-10.667 0 -19.5 4 -26.5 12s-10.5 17.667 -10.5 29v1427c0 14.667 5.33301 27.667 16 39s61.5 19 152.5 23
s164.5 6 220.5 6c382 0 573 -148 573 -444v-27zM936 1065l0.00195312 27.001c0 100.667 -30.5 173.5 -91.5 218.5s-159.5 67.5 -295.5 67.5c-66.667 0 -135 -2.66699 -205 -8v-600c125.333 -5.33301 193.666 -8 204.999 -8c137.333 0 236.166 23.167 296.499 69.5
s90.5 124.166 90.5 233.499z" />
    <glyph glyph-name="afii10035" unicode="&#xd1;" horiz-adv-x="1116" 
d="M1044 53c0 -15.333 -6.66699 -26.501 -20 -33.501s-51.5 -14.333 -114.5 -22s-144.833 -11.5 -245.5 -11.5c-166.667 0 -298.5 53.667 -395.5 161s-145.5 264.333 -145.5 471v285c0 208 48.167 365.5 144.5 472.5s228.5 160.5 396.5 160.5
c66.667 0 142.167 -5.33301 226.5 -16s130.333 -18.167 138 -22.5s11.5 -11.166 11.5 -20.499v-105c0 -14.667 -10 -22 -30 -22c-148 12 -262.667 18 -344 18c-238 0 -357 -155 -357 -465v-285c0 -153.333 30.5 -269 91.5 -347s149.5 -117 265.5 -117c68 0 134.667 2 200 6
l145 10c22 0 33 -11 33 -33v-84z" />
    <glyph glyph-name="afii10035" unicode="&#x421;" horiz-adv-x="1116" 
d="M1044 53c0 -15.333 -6.66699 -26.501 -20 -33.501s-51.5 -14.333 -114.5 -22s-144.833 -11.5 -245.5 -11.5c-166.667 0 -298.5 53.667 -395.5 161s-145.5 264.333 -145.5 471v285c0 208 48.167 365.5 144.5 472.5s228.5 160.5 396.5 160.5
c66.667 0 142.167 -5.33301 226.5 -16s130.333 -18.167 138 -22.5s11.5 -11.166 11.5 -20.499v-105c0 -14.667 -10 -22 -30 -22c-148 12 -262.667 18 -344 18c-238 0 -357 -155 -357 -465v-285c0 -153.333 30.5 -269 91.5 -347s149.5 -117 265.5 -117c68 0 134.667 2 200 6
l145 10c22 0 33 -11 33 -33v-84z" />
    <glyph glyph-name="afii10036" unicode="&#xd2;" horiz-adv-x="1208" 
d="M1137 1395c0 -22 -13 -33 -39 -33h-400v-1321c0 -10.667 -3.5 -20.167 -10.5 -28.5s-15.5 -12.5 -25.5 -12.5h-113c-10 0 -18.667 4 -26 12s-11 17.667 -11 29v1321h-399c-27.333 0 -41 11 -41 33v90c0 10 4 18.667 12 26s17.667 11 29 11h985c26 0 39 -12.333 39 -37
v-90z" />
    <glyph glyph-name="afii10036" unicode="&#x422;" horiz-adv-x="1208" 
d="M1137 1395c0 -22 -13 -33 -39 -33h-400v-1321c0 -10.667 -3.5 -20.167 -10.5 -28.5s-15.5 -12.5 -25.5 -12.5h-113c-10 0 -18.667 4 -26 12s-11 17.667 -11 29v1321h-399c-27.333 0 -41 11 -41 33v90c0 10 4 18.667 12 26s17.667 11 29 11h985c26 0 39 -12.333 39 -37
v-90z" />
    <glyph glyph-name="afii10037" unicode="&#xd3;" horiz-adv-x="1204" 
d="M1143 1470l-454.999 -1173c-50 -130.667 -103.833 -215.167 -161.5 -253.5s-136.167 -57.5 -235.5 -57.5c-114.667 0 -172 15 -172 45v94c0 22 15 33 45 33c42 -4 84.333 -6 127 -6c49.333 0 86.333 7 111 21s44.667 36.667 60 68s52.333 123.666 111 276.999h-10
c-40.667 0 -71.334 9.83301 -92.001 29.5s-39 51.5 -55 95.5l-310 827c-2.66699 8 -4 15.333 -4 22c0 20 11 30 33 30h125c17.333 0 29.666 -9.66699 36.999 -29l289 -768c6 -17.333 11.333 -28.166 16 -32.499s13 -6.5 25 -6.5h12l313 807
c8.66699 19.333 20.334 29 35.001 29h127c22 0 33 -10 33 -30c0 -6 -1.33301 -13.333 -4 -22z" />
    <glyph glyph-name="afii10037" unicode="&#x423;" horiz-adv-x="1204" 
d="M1143 1470l-454.999 -1173c-50 -130.667 -103.833 -215.167 -161.5 -253.5s-136.167 -57.5 -235.5 -57.5c-114.667 0 -172 15 -172 45v94c0 22 15 33 45 33c42 -4 84.333 -6 127 -6c49.333 0 86.333 7 111 21s44.667 36.667 60 68s52.333 123.666 111 276.999h-10
c-40.667 0 -71.334 9.83301 -92.001 29.5s-39 51.5 -55 95.5l-310 827c-2.66699 8 -4 15.333 -4 22c0 20 11 30 33 30h125c17.333 0 29.666 -9.66699 36.999 -29l289 -768c6 -17.333 11.333 -28.166 16 -32.499s13 -6.5 25 -6.5h12l313 807
c8.66699 19.333 20.334 29 35.001 29h127c22 0 33 -10 33 -30c0 -6 -1.33301 -13.333 -4 -22z" />
    <glyph glyph-name="afii10038" unicode="&#xd4;" horiz-adv-x="1616" 
d="M899 1495l0.000976562 -192h78c183.333 0 324.666 -39.833 423.999 -119.5s149 -194.834 149 -345.501v-68c0 -163.333 -51.5 -284 -154.5 -362s-242.5 -117 -418.5 -117c-35.333 0 -61.333 0.666992 -78 2v-252c0 -10.667 -3.5 -20.167 -10.5 -28.5
s-15.833 -12.5 -26.5 -12.5h-110c-10.667 0 -19.5 4 -26.5 12s-10.5 17.667 -10.5 29v252c-18.667 -1.33301 -44.667 -2 -78 -2c-184 0 -325.667 40.833 -425 122.5s-149 200.5 -149 356.5v68c0 150.667 49.833 265.834 149.5 345.501s241.167 119.5 424.5 119.5h78v192
c0 11.333 3.5 21 10.5 29s15.833 12 26.5 12h110c10.667 0 19.5 -4.16699 26.5 -12.5s10.5 -17.833 10.5 -28.5zM977.001 1145l-77.999 -0.000976562v-696c18.667 -2 44.667 -3 78 -3c133.333 0 231.166 25.833 293.499 77.5s93.5 133.834 93.5 246.501v68
c0 204.667 -129 307 -387 307zM715.002 1145l-77.999 -0.000976562c-258 0 -387 -102.333 -387 -307v-68c0 -109.333 30.167 -190.666 90.5 -243.999s159.166 -80 296.499 -80c32 0 58 1 78 3v696z" />
    <glyph glyph-name="afii10038" unicode="&#x424;" horiz-adv-x="1616" 
d="M899 1495l0.000976562 -192h78c183.333 0 324.666 -39.833 423.999 -119.5s149 -194.834 149 -345.501v-68c0 -163.333 -51.5 -284 -154.5 -362s-242.5 -117 -418.5 -117c-35.333 0 -61.333 0.666992 -78 2v-252c0 -10.667 -3.5 -20.167 -10.5 -28.5
s-15.833 -12.5 -26.5 -12.5h-110c-10.667 0 -19.5 4 -26.5 12s-10.5 17.667 -10.5 29v252c-18.667 -1.33301 -44.667 -2 -78 -2c-184 0 -325.667 40.833 -425 122.5s-149 200.5 -149 356.5v68c0 150.667 49.833 265.834 149.5 345.501s241.167 119.5 424.5 119.5h78v192
c0 11.333 3.5 21 10.5 29s15.833 12 26.5 12h110c10.667 0 19.5 -4.16699 26.5 -12.5s10.5 -17.833 10.5 -28.5zM977.001 1145l-77.999 -0.000976562v-696c18.667 -2 44.667 -3 78 -3c133.333 0 231.166 25.833 293.499 77.5s93.5 133.834 93.5 246.501v68
c0 204.667 -129 307 -387 307zM715.002 1145l-77.999 -0.000976562c-258 0 -387 -102.333 -387 -307v-68c0 -109.333 30.167 -190.666 90.5 -243.999s159.166 -80 296.499 -80c32 0 58 1 78 3v696z" />
    <glyph glyph-name="afii10039" unicode="&#xd5;" horiz-adv-x="1323" 
d="M1237 51c4.66699 -6.66699 6.99902 -14 6.99902 -22c0 -19.333 -11.333 -29 -34 -29h-129c-15.333 0 -26.333 5.66699 -33 17l-385 610l-257 -419c-78 -127.333 -120.5 -193.833 -127.5 -199.5s-15.167 -8.5 -24.5 -8.5h-121c-22 0 -33 10 -33 30
c0 7.33301 2 14.333 6 21l455 723l-451 699c-4 6.66699 -6 13.334 -6 20.001c0 19.333 10.333 29 31 29h133c9.33301 0 16.5 -1.33301 21.5 -4s21.833 -27 50.5 -73l334 -527l224 367c88 144.667 133.5 219.167 136.5 223.5s7.33301 7.66602 13 9.99902
s12.834 3.5 21.501 3.5h121c21.333 0 32 -10.333 32 -31c0 -6 -2 -12 -6 -18l-440 -703z" />
    <glyph glyph-name="afii10039" unicode="&#x425;" horiz-adv-x="1323" 
d="M1237 51c4.66699 -6.66699 6.99902 -14 6.99902 -22c0 -19.333 -11.333 -29 -34 -29h-129c-15.333 0 -26.333 5.66699 -33 17l-385 610l-257 -419c-78 -127.333 -120.5 -193.833 -127.5 -199.5s-15.167 -8.5 -24.5 -8.5h-121c-22 0 -33 10 -33 30
c0 7.33301 2 14.333 6 21l455 723l-451 699c-4 6.66699 -6 13.334 -6 20.001c0 19.333 10.333 29 31 29h133c9.33301 0 16.5 -1.33301 21.5 -4s21.833 -27 50.5 -73l334 -527l224 367c88 144.667 133.5 219.167 136.5 223.5s7.33301 7.66602 13 9.99902
s12.834 3.5 21.501 3.5h121c21.333 0 32 -10.333 32 -31c0 -6 -2 -12 -6 -18l-440 -703z" />
    <glyph glyph-name="afii10040" unicode="&#xd6;" horiz-adv-x="1407" 
d="M1180 0h-742.001c-185.333 0 -278 84.667 -278 254v1227c0 11.333 4 21 12 29s17.667 12 29 12h104c11.333 0 21 -4 29 -12s12 -17.667 12 -29v-1227c0 -34 5.33301 -57.167 16 -69.5s36 -18.5 76 -18.5h516c40.667 0 66.334 6.16699 77.001 18.5s16 35.5 16 69.5v1227
c0 11.333 4 21 12 29s17.333 12 28 12h105c11.333 0 21 -4 29 -12s12 -17.667 12 -29v-1225c0 -30.667 -3.33301 -60.667 -10 -90h106c24.667 0 37 -13 37 -39v-332c0 -10.667 -3.5 -20.167 -10.5 -28.5s-15.833 -12.5 -26.5 -12.5h-112c-10.667 0 -19.5 4 -26.5 12
s-10.5 17.667 -10.5 29v205z" />
    <glyph glyph-name="afii10040" unicode="&#x426;" horiz-adv-x="1407" 
d="M1180 0h-742.001c-185.333 0 -278 84.667 -278 254v1227c0 11.333 4 21 12 29s17.667 12 29 12h104c11.333 0 21 -4 29 -12s12 -17.667 12 -29v-1227c0 -34 5.33301 -57.167 16 -69.5s36 -18.5 76 -18.5h516c40.667 0 66.334 6.16699 77.001 18.5s16 35.5 16 69.5v1227
c0 11.333 4 21 12 29s17.333 12 28 12h105c11.333 0 21 -4 29 -12s12 -17.667 12 -29v-1225c0 -30.667 -3.33301 -60.667 -10 -90h106c24.667 0 37 -13 37 -39v-332c0 -10.667 -3.5 -20.167 -10.5 -28.5s-15.833 -12.5 -26.5 -12.5h-112c-10.667 0 -19.5 4 -26.5 12
s-10.5 17.667 -10.5 29v205z" />
    <glyph glyph-name="afii10041" unicode="&#xd7;" horiz-adv-x="1305" 
d="M1145 41c0 -11.333 -3.99902 -20.999 -11.999 -28.999s-17.667 -12 -29 -12h-105c-10.667 0 -20.167 4 -28.5 12s-12.5 17.667 -12.5 29v592c-118.667 -26 -240 -39 -364 -39c-303.333 0 -455 144.667 -455 434v453c0 11.333 4 21 12 29s17.667 12 29 12h105
c10.667 0 20.167 -4 28.5 -12s12.5 -17.667 12.5 -29v-453c0 -102 22.833 -171.5 68.5 -208.5s126.5 -55.5 242.5 -55.5c32 0 85.667 3.66699 161 11s128.666 14.666 159.999 21.999v684c0 10.667 3.66699 20.167 11 28.5s16 12.5 26 12.5h113c10 0 18.667 -4 26 -12
s11 -17.667 11 -29v-1440z" />
    <glyph glyph-name="afii10041" unicode="&#x427;" horiz-adv-x="1305" 
d="M1145 41c0 -11.333 -3.99902 -20.999 -11.999 -28.999s-17.667 -12 -29 -12h-105c-10.667 0 -20.167 4 -28.5 12s-12.5 17.667 -12.5 29v592c-118.667 -26 -240 -39 -364 -39c-303.333 0 -455 144.667 -455 434v453c0 11.333 4 21 12 29s17.667 12 29 12h105
c10.667 0 20.167 -4 28.5 -12s12.5 -17.667 12.5 -29v-453c0 -102 22.833 -171.5 68.5 -208.5s126.5 -55.5 242.5 -55.5c32 0 85.667 3.66699 161 11s128.666 14.666 159.999 21.999v684c0 10.667 3.66699 20.167 11 28.5s16 12.5 26 12.5h113c10 0 18.667 -4 26 -12
s11 -17.667 11 -29v-1440z" />
    <glyph glyph-name="afii10042" unicode="&#xd8;" horiz-adv-x="1911" 
d="M1565 254v1227c0 11.333 4 21 12 29s17.667 12 29 12h104c11.333 0 21 -4 29 -12s12 -17.667 12 -29v-1227c0 -169.333 -92.667 -254 -278 -254h-1035c-185.333 0 -278 84.667 -278 254v1227c0 11.333 4 21 12 29s17.667 12 29 12h104c11.333 0 21 -4 29 -12
s12 -17.667 12 -29v-1227c0 -34 5.33301 -57.167 16 -69.5s36 -18.5 76 -18.5h424v1315c0 11.333 4 21 12 29s17.667 12 29 12h105c10.667 0 20.167 -4 28.5 -12s12.5 -17.667 12.5 -29v-1315h424c40 0 65.333 6.16699 76 18.5s16 35.5 16 69.5z" />
    <glyph glyph-name="afii10042" unicode="&#x428;" horiz-adv-x="1911" 
d="M1565 254v1227c0 11.333 4 21 12 29s17.667 12 29 12h104c11.333 0 21 -4 29 -12s12 -17.667 12 -29v-1227c0 -169.333 -92.667 -254 -278 -254h-1035c-185.333 0 -278 84.667 -278 254v1227c0 11.333 4 21 12 29s17.667 12 29 12h104c11.333 0 21 -4 29 -12
s12 -17.667 12 -29v-1227c0 -34 5.33301 -57.167 16 -69.5s36 -18.5 76 -18.5h424v1315c0 11.333 4 21 12 29s17.667 12 29 12h105c10.667 0 20.167 -4 28.5 -12s12.5 -17.667 12.5 -29v-1315h424c40 0 65.333 6.16699 76 18.5s16 35.5 16 69.5z" />
    <glyph glyph-name="afii10043" unicode="&#xd9;" horiz-adv-x="1935" 
d="M1049 166l424 -0.000976562c40 0 65.333 6.16699 76 18.5s16 35.5 16 69.5v1227c0 11.333 4 21 12 29s17.667 12 29 12h104c11.333 0 21 -4 29 -12s12 -17.667 12 -29v-1227c0 -33.333 -3.33301 -62.666 -10 -87.999h106c24.667 0 37 -13 37 -39v-332
c0 -10.667 -3.5 -20.167 -10.5 -28.5s-15.833 -12.5 -26.5 -12.5h-112c-10.667 0 -19.5 4 -26.5 12s-10.5 17.667 -10.5 29v205h-1260c-185.333 0 -278 84.667 -278 254v1227c0 11.333 4 21 12 29s17.667 12 29 12h104c11.333 0 21 -4 29 -12s12 -17.667 12 -29v-1227
c0 -34 5.33301 -57.167 16 -69.5s36 -18.5 76 -18.5h424v1315c0 11.333 4 21 12 29s17.667 12 29 12h105c10.667 0 20.167 -4 28.5 -12s12.5 -17.667 12.5 -29v-1315z" />
    <glyph glyph-name="afii10043" unicode="&#x429;" horiz-adv-x="1935" 
d="M1049 166l424 -0.000976562c40 0 65.333 6.16699 76 18.5s16 35.5 16 69.5v1227c0 11.333 4 21 12 29s17.667 12 29 12h104c11.333 0 21 -4 29 -12s12 -17.667 12 -29v-1227c0 -33.333 -3.33301 -62.666 -10 -87.999h106c24.667 0 37 -13 37 -39v-332
c0 -10.667 -3.5 -20.167 -10.5 -28.5s-15.833 -12.5 -26.5 -12.5h-112c-10.667 0 -19.5 4 -26.5 12s-10.5 17.667 -10.5 29v205h-1260c-185.333 0 -278 84.667 -278 254v1227c0 11.333 4 21 12 29s17.667 12 29 12h104c11.333 0 21 -4 29 -12s12 -17.667 12 -29v-1227
c0 -34 5.33301 -57.167 16 -69.5s36 -18.5 76 -18.5h424v1315c0 11.333 4 21 12 29s17.667 12 29 12h105c10.667 0 20.167 -4 28.5 -12s12.5 -17.667 12.5 -29v-1315z" />
    <glyph glyph-name="afii10044" unicode="&#xda;" horiz-adv-x="1386" 
d="M1315 420c0 -289.333 -199.333 -434 -598 -434c-92.667 0 -177 2.83301 -253 8.5s-119.833 15.167 -131.5 28.5s-17.5 32.333 -17.5 57v1276h-223c-11.333 0 -21 4 -29 12s-12 17.667 -12 29v84c0 11.333 4 21 12 29s17.667 12 29 12h373c24.667 0 37 -13 37 -39v-600
c81.333 5.33301 153 8 215 8c398.667 0 598 -145.333 598 -436v-35zM1128 420v37.001c0 95.333 -30.833 165.166 -92.5 209.499s-167.834 66.5 -318.501 66.5c-53.333 0 -125 -2.66699 -215 -8v-573c128 -6 199.667 -9 215 -9c150.667 0 256.834 22.167 318.501 66.5
s92.5 114.5 92.5 210.5z" />
    <glyph glyph-name="afii10044" unicode="&#x42a;" horiz-adv-x="1386" 
d="M1315 420c0 -289.333 -199.333 -434 -598 -434c-92.667 0 -177 2.83301 -253 8.5s-119.833 15.167 -131.5 28.5s-17.5 32.333 -17.5 57v1276h-223c-11.333 0 -21 4 -29 12s-12 17.667 -12 29v84c0 11.333 4 21 12 29s17.667 12 29 12h373c24.667 0 37 -13 37 -39v-600
c81.333 5.33301 153 8 215 8c398.667 0 598 -145.333 598 -436v-35zM1128 420v37.001c0 95.333 -30.833 165.166 -92.5 209.499s-167.834 66.5 -318.501 66.5c-53.333 0 -125 -2.66699 -215 -8v-573c128 -6 199.667 -9 215 -9c150.667 0 256.834 22.167 318.501 66.5
s92.5 114.5 92.5 210.5z" />
    <glyph glyph-name="afii10045" unicode="&#xdb;" horiz-adv-x="1767" 
d="M1608 41c0 -10.667 -3.5 -20.167 -10.5 -28.5s-15.833 -12.5 -26.5 -12.5h-113c-10 0 -18.667 4 -26 12s-11 17.667 -11 29v1442c0 26 12.333 39 37 39h113c24.667 0 37 -13 37 -39v-1442zM1159 420c0 -289.333 -199.334 -434 -598.001 -434
c-92 0 -176.167 2.83301 -252.5 8.5s-120.166 15.167 -131.499 28.5s-17 32.333 -17 57v1403c0 26 12.333 39 37 39h112c24.667 0 37 -13 37 -39v-600c81.333 5.33301 153 8 215 8c398.667 0 598 -145.333 598 -436v-35zM972.999 420l0.000976562 37.001
c0 95.333 -31 165.166 -93 209.499s-168.333 66.5 -319 66.5c-52.667 0 -124.334 -2.66699 -215.001 -8v-573c128 -6 199.667 -9 215 -9c150.667 0 257 22.167 319 66.5s93 114.5 93 210.5z" />
    <glyph glyph-name="afii10045" unicode="&#x42b;" horiz-adv-x="1767" 
d="M1608 41c0 -10.667 -3.5 -20.167 -10.5 -28.5s-15.833 -12.5 -26.5 -12.5h-113c-10 0 -18.667 4 -26 12s-11 17.667 -11 29v1442c0 26 12.333 39 37 39h113c24.667 0 37 -13 37 -39v-1442zM1159 420c0 -289.333 -199.334 -434 -598.001 -434
c-92 0 -176.167 2.83301 -252.5 8.5s-120.166 15.167 -131.499 28.5s-17 32.333 -17 57v1403c0 26 12.333 39 37 39h112c24.667 0 37 -13 37 -39v-600c81.333 5.33301 153 8 215 8c398.667 0 598 -145.333 598 -436v-35zM972.999 420l0.000976562 37.001
c0 95.333 -31 165.166 -93 209.499s-168.333 66.5 -319 66.5c-52.667 0 -124.334 -2.66699 -215.001 -8v-573c128 -6 199.667 -9 215 -9c150.667 0 257 22.167 319 66.5s93 114.5 93 210.5z" />
    <glyph glyph-name="afii10046" unicode="&#xdc;" horiz-adv-x="1231" 
d="M1159 420c0 -289.333 -199.334 -434 -598.001 -434c-92 0 -176.167 2.83301 -252.5 8.5s-120.166 15.167 -131.499 28.5s-17 32.333 -17 57v1403c0 26 12.333 39 37 39h112c24.667 0 37 -13 37 -39v-600c81.333 5.33301 153 8 215 8c398.667 0 598 -145.333 598 -436v-35
zM972.999 420l0.000976562 37.001c0 95.333 -31 165.166 -93 209.499s-168.333 66.5 -319 66.5c-52.667 0 -124.334 -2.66699 -215.001 -8v-573c128 -6 199.667 -9 215 -9c150.667 0 257 22.167 319 66.5s93 114.5 93 210.5z" />
    <glyph glyph-name="afii10046" unicode="&#x42c;" horiz-adv-x="1231" 
d="M1159 420c0 -289.333 -199.334 -434 -598.001 -434c-92 0 -176.167 2.83301 -252.5 8.5s-120.166 15.167 -131.499 28.5s-17 32.333 -17 57v1403c0 26 12.333 39 37 39h112c24.667 0 37 -13 37 -39v-600c81.333 5.33301 153 8 215 8c398.667 0 598 -145.333 598 -436v-35
zM972.999 420l0.000976562 37.001c0 95.333 -31 165.166 -93 209.499s-168.333 66.5 -319 66.5c-52.667 0 -124.334 -2.66699 -215.001 -8v-573c128 -6 199.667 -9 215 -9c150.667 0 257 22.167 319 66.5s93 114.5 93 210.5z" />
    <glyph glyph-name="afii10047" unicode="&#xdd;" horiz-adv-x="1174" 
d="M240 870l674.999 0.00195312c-4.66699 166 -45.5 290.5 -122.5 373.5s-186.167 124.5 -327.5 124.5c-74 0 -138 -2 -192 -6l-127 -9c-22 0 -33 11 -33 33v82c0 16 6.33301 27.333 19 34s47.667 14 105 22s134 12 230 12c200.667 0 356.667 -58.833 468 -176.5
s167 -291.5 167 -521.5v-154c0 -230 -55.667 -403.833 -167 -521.5s-267.333 -176.5 -468 -176.5c-98 0 -175.5 4.16699 -232.5 12.5s-91.5 15.666 -103.5 21.999s-18 17.166 -18 32.499v82c0 22 13.667 33 41 33c114.667 -9.33301 218.334 -14 311.001 -14
c146 0 257.5 44.5 334.5 133.5s115.5 221.167 115.5 396.5v27h-675c-11.333 0 -21 4 -29 12s-12 17.667 -12 29v77c0 11.333 4 21 12 29s17.667 12 29 12z" />
    <glyph glyph-name="afii10047" unicode="&#x42d;" horiz-adv-x="1174" 
d="M240 870l674.999 0.00195312c-4.66699 166 -45.5 290.5 -122.5 373.5s-186.167 124.5 -327.5 124.5c-74 0 -138 -2 -192 -6l-127 -9c-22 0 -33 11 -33 33v82c0 16 6.33301 27.333 19 34s47.667 14 105 22s134 12 230 12c200.667 0 356.667 -58.833 468 -176.5
s167 -291.5 167 -521.5v-154c0 -230 -55.667 -403.833 -167 -521.5s-267.333 -176.5 -468 -176.5c-98 0 -175.5 4.16699 -232.5 12.5s-91.5 15.666 -103.5 21.999s-18 17.166 -18 32.499v82c0 22 13.667 33 41 33c114.667 -9.33301 218.334 -14 311.001 -14
c146 0 257.5 44.5 334.5 133.5s115.5 221.167 115.5 396.5v27h-675c-11.333 0 -21 4 -29 12s-12 17.667 -12 29v77c0 11.333 4 21 12 29s17.667 12 29 12z" />
    <glyph glyph-name="afii10048" unicode="&#xde;" horiz-adv-x="1901" 
d="M1778 629c0 -209.333 -48 -368.833 -144 -478.5s-232.333 -164.5 -409 -164.5c-177.333 0 -314.166 54.833 -410.499 164.5s-144.5 269.167 -144.5 478.5v51h-303v-639c0 -10.667 -3.5 -20.167 -10.5 -28.5s-15.833 -12.5 -26.5 -12.5h-113c-10 0 -18.667 4 -26 12
s-11 17.667 -11 29v1442c0 26 12.333 39 37 39h113c24.667 0 37 -13 37 -39v-637h303v47c0 209.333 48.167 368.833 144.5 478.5s233.166 164.5 410.499 164.5c176.667 0 313 -54.833 409 -164.5s144 -269.167 144 -478.5v-264zM1589 629v264
c0 316.667 -121.333 475 -364 475c-244.667 0 -367 -158.333 -367 -475v-264c0 -316.667 122.333 -475 367 -475c242.667 0 364 158.333 364 475z" />
    <glyph glyph-name="afii10048" unicode="&#x42e;" horiz-adv-x="1901" 
d="M1778 629c0 -209.333 -48 -368.833 -144 -478.5s-232.333 -164.5 -409 -164.5c-177.333 0 -314.166 54.833 -410.499 164.5s-144.5 269.167 -144.5 478.5v51h-303v-639c0 -10.667 -3.5 -20.167 -10.5 -28.5s-15.833 -12.5 -26.5 -12.5h-113c-10 0 -18.667 4 -26 12
s-11 17.667 -11 29v1442c0 26 12.333 39 37 39h113c24.667 0 37 -13 37 -39v-637h303v47c0 209.333 48.167 368.833 144.5 478.5s233.166 164.5 410.499 164.5c176.667 0 313 -54.833 409 -164.5s144 -269.167 144 -478.5v-264zM1589 629v264
c0 316.667 -121.333 475 -364 475c-244.667 0 -367 -158.333 -367 -475v-264c0 -316.667 122.333 -475 367 -475c242.667 0 364 158.333 364 475z" />
    <glyph glyph-name="afii10049" unicode="&#xdf;" horiz-adv-x="1298" 
d="M1144 41c0 -10.667 -3.5 -20.1699 -10.5 -28.5029s-15.833 -12.5 -26.5 -12.5h-111c-10 0 -18.667 4 -26 12s-11 17.667 -11 29v602c-78 -4 -153 -6 -225 -6h-53l-234 -389c-89.333 -149.333 -136 -226.833 -140 -232.5s-9.33301 -9.66699 -16 -12s-16.667 -3.5 -30 -3.5
h-131c-17.333 0 -26 9 -26 27c0 6 1.66699 12 5 18l373 623c-103.333 27.333 -182.666 76.833 -237.999 148.5s-83 159.834 -83 264.501v15c0 293.333 191 440 573 440c100 0 188.167 -2.66699 264.5 -8s119.666 -11.166 129.999 -17.499s15.5 -18.166 15.5 -35.499v-1434z
M959 800.997v561c-30.667 4 -105.667 6 -225 6c-138.667 0 -238.167 -21.667 -298.5 -65s-90.5 -112.333 -90.5 -207v-15c0 -106 31.667 -179.833 95 -221.5s161.333 -62.5 294 -62.5c54.667 0 129.667 1.33301 225 4z" />
    <glyph glyph-name="afii10049" unicode="&#x42f;" horiz-adv-x="1298" 
d="M1144 41c0 -10.667 -3.5 -20.1699 -10.5 -28.5029s-15.833 -12.5 -26.5 -12.5h-111c-10 0 -18.667 4 -26 12s-11 17.667 -11 29v602c-78 -4 -153 -6 -225 -6h-53l-234 -389c-89.333 -149.333 -136 -226.833 -140 -232.5s-9.33301 -9.66699 -16 -12s-16.667 -3.5 -30 -3.5
h-131c-17.333 0 -26 9 -26 27c0 6 1.66699 12 5 18l373 623c-103.333 27.333 -182.666 76.833 -237.999 148.5s-83 159.834 -83 264.501v15c0 293.333 191 440 573 440c100 0 188.167 -2.66699 264.5 -8s119.666 -11.166 129.999 -17.499s15.5 -18.166 15.5 -35.499v-1434z
M959 800.997v561c-30.667 4 -105.667 6 -225 6c-138.667 0 -238.167 -21.667 -298.5 -65s-90.5 -112.333 -90.5 -207v-15c0 -106 31.667 -179.833 95 -221.5s161.333 -62.5 294 -62.5c54.667 0 129.667 1.33301 225 4z" />
    <glyph glyph-name="afii10065" unicode="&#xe0;" horiz-adv-x="1063" 
d="M924 41c0 -11.333 -4.16797 -21.001 -12.501 -29.001s-17.833 -12 -28.5 -12h-95c-10.667 0 -20 4 -28 12s-12 17.667 -12 29v45c-114 -66.667 -219.333 -100 -316 -100c-107.333 0 -189.833 27.833 -247.5 83.5s-86.5 138.167 -86.5 247.5v25
c0 114 37.833 197.833 113.5 251.5s202.5 80.5 380.5 80.5h151v82c0 84.667 -16.167 144.334 -48.5 179.001s-89.166 52 -170.499 52c-77.333 0 -142.333 -2 -195 -6l-127 -11c-25.333 0 -38 11.333 -38 34v71c0 14.667 5.33301 25 16 31s49.667 13.333 117 22
s143 13 227 13c266.667 0 400 -128.333 400 -385v-715zM742.999 214.999v330.001h-151c-114 0 -194.667 -13.5 -242 -40.5s-71 -80.5 -71 -160.5v-25c0 -64.667 14 -111.834 42 -141.501s76.667 -44.5 146 -44.5c84.667 0 176.667 27.333 276 82z" />
    <glyph glyph-name="afii10065" unicode="&#x430;" horiz-adv-x="1063" 
d="M924 41c0 -11.333 -4.16797 -21.001 -12.501 -29.001s-17.833 -12 -28.5 -12h-95c-10.667 0 -20 4 -28 12s-12 17.667 -12 29v45c-114 -66.667 -219.333 -100 -316 -100c-107.333 0 -189.833 27.833 -247.5 83.5s-86.5 138.167 -86.5 247.5v25
c0 114 37.833 197.833 113.5 251.5s202.5 80.5 380.5 80.5h151v82c0 84.667 -16.167 144.334 -48.5 179.001s-89.166 52 -170.499 52c-77.333 0 -142.333 -2 -195 -6l-127 -11c-25.333 0 -38 11.333 -38 34v71c0 14.667 5.33301 25 16 31s49.667 13.333 117 22
s143 13 227 13c266.667 0 400 -128.333 400 -385v-715zM742.999 214.999v330.001h-151c-114 0 -194.667 -13.5 -242 -40.5s-71 -80.5 -71 -160.5v-25c0 -64.667 14 -111.834 42 -141.501s76.667 -44.5 146 -44.5c84.667 0 176.667 27.333 276 82z" />
    <glyph glyph-name="afii10066" unicode="&#xe1;" horiz-adv-x="1116" 
d="M1014 498c0 -162.667 -38.333 -288.668 -115 -378.001s-191.334 -134 -344.001 -134c-148 0 -260.5 43.5 -337.5 130.5s-115.5 214.167 -115.5 381.5v94c0 174.667 7.5 309.5 22.5 404.5s53.333 175.833 115 242.5s159.167 113 292.5 139c112 22 179.333 36.333 202 43
s41.167 18 55.5 34s23.5 35.333 27.5 58c4 18 14.333 27 31 27h115c16 0 24 -7.33301 24 -22c0 -28.667 -7.16699 -60.167 -21.5 -94.5s-41.166 -65.5 -80.499 -93.5s-94.333 -49.333 -165 -64l-153 -33c-100.667 -21.333 -167.667 -49.166 -201 -83.499
s-52.333 -75.5 -57 -123.5c66 53.333 148.667 80 248 80c147.333 0 260.333 -44.167 339 -132.5s118 -215.5 118 -381.5v-94zM831 497.999v94.001c0 240 -91.333 360 -274 360s-274 -120 -274 -360v-94c0 -118.667 21.333 -207.834 64 -267.501s112 -89.5 208 -89.5
c184 0 276 119 276 357z" />
    <glyph glyph-name="afii10066" unicode="&#x431;" horiz-adv-x="1116" 
d="M1014 498c0 -162.667 -38.333 -288.668 -115 -378.001s-191.334 -134 -344.001 -134c-148 0 -260.5 43.5 -337.5 130.5s-115.5 214.167 -115.5 381.5v94c0 174.667 7.5 309.5 22.5 404.5s53.333 175.833 115 242.5s159.167 113 292.5 139c112 22 179.333 36.333 202 43
s41.167 18 55.5 34s23.5 35.333 27.5 58c4 18 14.333 27 31 27h115c16 0 24 -7.33301 24 -22c0 -28.667 -7.16699 -60.167 -21.5 -94.5s-41.166 -65.5 -80.499 -93.5s-94.333 -49.333 -165 -64l-153 -33c-100.667 -21.333 -167.667 -49.166 -201 -83.499
s-52.333 -75.5 -57 -123.5c66 53.333 148.667 80 248 80c147.333 0 260.333 -44.167 339 -132.5s118 -215.5 118 -381.5v-94zM831 497.999v94.001c0 240 -91.333 360 -274 360s-274 -120 -274 -360v-94c0 -118.667 21.333 -207.834 64 -267.501s112 -89.5 208 -89.5
c184 0 276 119 276 357z" />
    <glyph glyph-name="afii10067" unicode="&#xe2;" horiz-adv-x="1133" 
d="M1020 330c0 -229.333 -172.666 -344.001 -517.999 -344.001c-35.333 0 -98.5 1.5 -189.5 4.5s-142.667 9.5 -155 19.5s-18.5 25 -18.5 45v1016c0 34 21.167 54.167 63.5 60.5s148.833 9.5 319.5 9.5c171.333 0 295.166 -25.5 371.499 -76.5s114.5 -127.167 114.5 -228.5
v-11c0 -53.333 -12.833 -101.666 -38.5 -144.999s-62.167 -74.666 -109.5 -93.999c106.667 -44.667 160 -125.334 160 -242.001v-14zM825.001 824.999v11c0 59.333 -25.167 100.333 -75.5 123s-130.166 34 -239.499 34c-96.667 0 -160.334 -0.666992 -191.001 -2v-338h256
c98 0 164.167 14.667 198.5 44s51.5 72 51.5 128zM838.001 329.999v14c0 54.667 -18 96.667 -54 126s-105.667 44 -209 44h-256v-379c80.667 -2.66699 139.667 -4 177 -4c120 0 207 15.167 261 45.5s81 81.5 81 153.5z" />
    <glyph glyph-name="afii10067" unicode="&#x432;" horiz-adv-x="1133" 
d="M1020 330c0 -229.333 -172.666 -344.001 -517.999 -344.001c-35.333 0 -98.5 1.5 -189.5 4.5s-142.667 9.5 -155 19.5s-18.5 25 -18.5 45v1016c0 34 21.167 54.167 63.5 60.5s148.833 9.5 319.5 9.5c171.333 0 295.166 -25.5 371.499 -76.5s114.5 -127.167 114.5 -228.5
v-11c0 -53.333 -12.833 -101.666 -38.5 -144.999s-62.167 -74.666 -109.5 -93.999c106.667 -44.667 160 -125.334 160 -242.001v-14zM825.001 824.999v11c0 59.333 -25.167 100.333 -75.5 123s-130.166 34 -239.499 34c-96.667 0 -160.334 -0.666992 -191.001 -2v-338h256
c98 0 164.167 14.667 198.5 44s51.5 72 51.5 128zM838.001 329.999v14c0 54.667 -18 96.667 -54 126s-105.667 44 -209 44h-256v-379c80.667 -2.66699 139.667 -4 177 -4c120 0 207 15.167 261 45.5s81 81.5 81 153.5z" />
    <glyph glyph-name="afii10068" unicode="&#xe3;" horiz-adv-x="848" 
d="M756 971l-358.999 0.00195312c-30.667 0 -51.334 -5.33301 -62.001 -16s-16 -31.334 -16 -62.001v-852c0 -11.333 -4 -21 -12 -29s-17.333 -12 -28 -12h-99c-11.333 0 -21 4 -29 12s-12 17.667 -12 29v852c0 71.333 13.833 124.166 41.5 158.499s59 55.333 94 63
s75.833 11.5 122.5 11.5h359c11.333 0 21 -4 29 -12s12 -17.667 12 -29v-73c0 -11.333 -4 -21 -12 -29s-17.667 -12 -29 -12z" />
    <glyph glyph-name="afii10068" unicode="&#x433;" horiz-adv-x="848" 
d="M756 971l-358.999 0.00195312c-30.667 0 -51.334 -5.33301 -62.001 -16s-16 -31.334 -16 -62.001v-852c0 -11.333 -4 -21 -12 -29s-17.333 -12 -28 -12h-99c-11.333 0 -21 4 -29 12s-12 17.667 -12 29v852c0 71.333 13.833 124.166 41.5 158.499s59 55.333 94 63
s75.833 11.5 122.5 11.5h359c11.333 0 21 -4 29 -12s12 -17.667 12 -29v-73c0 -11.333 -4 -21 -12 -29s-17.667 -12 -29 -12z" />
    <glyph glyph-name="afii10069" unicode="&#xe4;" horiz-adv-x="1233" 
d="M1141 156c11.333 0 21 -3.83301 29 -11.5s12 -16.834 12 -27.501v-299c0 -11.333 -4 -21 -12 -29s-17.667 -12 -29 -12h-97c-10.667 0 -20 4 -28 12s-12 17.667 -12 29v182h-775v-182c0 -11.333 -4 -21 -12 -29s-17.667 -12 -29 -12h-96c-11.333 0 -21 4 -29 12
s-12 17.667 -12 29v299c0 10.667 4 19.834 12 27.501s17.667 11.5 29 11.5h68l237 829c29.333 104 99 156 209 156c109.333 0 178.333 -51.333 207 -154l234 -831h94zM565 942l-214.999 -786h510l-215 786c-6.66699 24.667 -19.667 37 -39 37
c-20.667 0 -34.334 -12.333 -41.001 -37z" />
    <glyph glyph-name="afii10069" unicode="&#x434;" horiz-adv-x="1233" 
d="M1141 156c11.333 0 21 -3.83301 29 -11.5s12 -16.834 12 -27.501v-299c0 -11.333 -4 -21 -12 -29s-17.667 -12 -29 -12h-97c-10.667 0 -20 4 -28 12s-12 17.667 -12 29v182h-775v-182c0 -11.333 -4 -21 -12 -29s-17.667 -12 -29 -12h-96c-11.333 0 -21 4 -29 12
s-12 17.667 -12 29v299c0 10.667 4 19.834 12 27.501s17.667 11.5 29 11.5h68l237 829c29.333 104 99 156 209 156c109.333 0 178.333 -51.333 207 -154l234 -831h94zM565 942l-214.999 -786h510l-215 786c-6.66699 24.667 -19.667 37 -39 37
c-20.667 0 -34.334 -12.333 -41.001 -37z" />
    <glyph glyph-name="afii10070" unicode="&#xe5;" horiz-adv-x="1114" 
d="M1008 551c0 -30 -13 -45 -39 -45h-686v-29c0 -115.333 22.333 -199.833 67 -253.5s117 -80.5 217 -80.5c101.333 0 188.5 4 261.5 12s111.167 12 114.5 12c21.333 0 32 -10 32 -30v-69c0 -18.667 -5.33301 -31.667 -16 -39s-56.5 -16.333 -137.5 -27
s-165.833 -16 -254.5 -16c-148 0 -262.5 41.5 -343.5 124.5s-121.5 205.167 -121.5 366.5v185c0 148 39.667 264.833 119 350.5s191.333 128.5 336 128.5c144 0 255.167 -42.167 333.5 -126.5s117.5 -201.833 117.5 -352.5v-111zM825 643v18.999
c0 110.667 -21.167 191.834 -63.5 243.501s-110.5 77.5 -204.5 77.5c-182.667 0 -274 -107 -274 -321v-19h542z" />
    <glyph glyph-name="afii10070" unicode="&#x435;" horiz-adv-x="1114" 
d="M1008 551c0 -30 -13 -45 -39 -45h-686v-29c0 -115.333 22.333 -199.833 67 -253.5s117 -80.5 217 -80.5c101.333 0 188.5 4 261.5 12s111.167 12 114.5 12c21.333 0 32 -10 32 -30v-69c0 -18.667 -5.33301 -31.667 -16 -39s-56.5 -16.333 -137.5 -27
s-165.833 -16 -254.5 -16c-148 0 -262.5 41.5 -343.5 124.5s-121.5 205.167 -121.5 366.5v185c0 148 39.667 264.833 119 350.5s191.333 128.5 336 128.5c144 0 255.167 -42.167 333.5 -126.5s117.5 -201.833 117.5 -352.5v-111zM825 643v18.999
c0 110.667 -21.167 191.834 -63.5 243.501s-110.5 77.5 -204.5 77.5c-182.667 0 -274 -107 -274 -321v-19h542z" />
    <glyph glyph-name="afii10072" unicode="&#xe6;" horiz-adv-x="1573" 
d="M1040 594l454.999 -549.001c4 -4 6 -10 6 -18c0 -18 -7.33301 -27 -22 -27h-148c-12 0 -21 2.16699 -27 6.5s-52.667 60.5 -140 168.5l-287 355v-489c0 -11.333 -4.16699 -21 -12.5 -29s-17.833 -12 -28.5 -12h-99c-11.333 0 -21 4 -29 12s-12 17.667 -12 29v489
c-267.333 -330 -405.166 -500.833 -413.499 -512.5s-21.833 -17.5 -40.5 -17.5h-148c-14.667 0 -22 9 -22 27c0 7.33301 0.666992 12 2 14l458 553l-301 326c-102 110 -154 166.833 -156 170.5s-3 8.16699 -3 13.5c0 14.667 10 22 30 22h144c11.333 0 19.5 -1.5 24.5 -4.5
s51.167 -53.5 138.5 -151.5l287 -323v438c0 11.333 4 21 12 29s17.667 12 29 12h99c10.667 0 20.167 -4 28.5 -12s12.5 -17.667 12.5 -29v-438l418 471c5.33301 5.33301 16 8 32 8h143c20.667 0 31 -7.33301 31 -22c0 -7.33301 -1.33301 -12.666 -4 -15.999z" />
    <glyph glyph-name="afii10072" unicode="&#x436;" horiz-adv-x="1573" 
d="M1040 594l454.999 -549.001c4 -4 6 -10 6 -18c0 -18 -7.33301 -27 -22 -27h-148c-12 0 -21 2.16699 -27 6.5s-52.667 60.5 -140 168.5l-287 355v-489c0 -11.333 -4.16699 -21 -12.5 -29s-17.833 -12 -28.5 -12h-99c-11.333 0 -21 4 -29 12s-12 17.667 -12 29v489
c-267.333 -330 -405.166 -500.833 -413.499 -512.5s-21.833 -17.5 -40.5 -17.5h-148c-14.667 0 -22 9 -22 27c0 7.33301 0.666992 12 2 14l458 553l-301 326c-102 110 -154 166.833 -156 170.5s-3 8.16699 -3 13.5c0 14.667 10 22 30 22h144c11.333 0 19.5 -1.5 24.5 -4.5
s51.167 -53.5 138.5 -151.5l287 -323v438c0 11.333 4 21 12 29s17.667 12 29 12h99c10.667 0 20.167 -4 28.5 -12s12.5 -17.667 12.5 -29v-438l418 471c5.33301 5.33301 16 8 32 8h143c20.667 0 31 -7.33301 31 -22c0 -7.33301 -1.33301 -12.666 -4 -15.999z" />
    <glyph glyph-name="afii10073" unicode="&#xe7;" horiz-adv-x="1036" 
d="M913 326c0 -108 -39.999 -191.668 -119.999 -251.001s-190 -89 -330 -89c-68 0 -133.667 3.66699 -197 11s-103 14 -119 20s-24 16.667 -24 32v72c0 14.667 3.33301 24.167 10 28.5s17.667 6.5 33 6.5c104.667 -12.667 203.667 -19 297 -19
c95.333 0 163.166 14.333 203.499 43s60.5 77.334 60.5 146.001v18c0 113.333 -66.333 170 -199 170h-319c-26 0 -39 11.667 -39 35v69c0 23.333 13 35 39 35h319c132.667 0 199 56 199 168v17c0 58 -19.333 97.667 -58 119s-108 32 -208 32c-48 0 -101 -2.33301 -159 -7
l-145 -12c-22.667 0 -34 12 -34 36v71c0 15.333 7.33301 26 22 32s53.834 12.833 117.501 20.5s130.5 11.5 200.5 11.5c156 0 270 -25 342 -75s108 -126 108 -228v-17c0 -46.667 -13.333 -91.667 -40 -135s-64.334 -77.333 -113.001 -102c102 -49.333 153 -129.333 153 -240
v-18z" />
    <glyph glyph-name="afii10073" unicode="&#x437;" horiz-adv-x="1036" 
d="M913 326c0 -108 -39.999 -191.668 -119.999 -251.001s-190 -89 -330 -89c-68 0 -133.667 3.66699 -197 11s-103 14 -119 20s-24 16.667 -24 32v72c0 14.667 3.33301 24.167 10 28.5s17.667 6.5 33 6.5c104.667 -12.667 203.667 -19 297 -19
c95.333 0 163.166 14.333 203.499 43s60.5 77.334 60.5 146.001v18c0 113.333 -66.333 170 -199 170h-319c-26 0 -39 11.667 -39 35v69c0 23.333 13 35 39 35h319c132.667 0 199 56 199 168v17c0 58 -19.333 97.667 -58 119s-108 32 -208 32c-48 0 -101 -2.33301 -159 -7
l-145 -12c-22.667 0 -34 12 -34 36v71c0 15.333 7.33301 26 22 32s53.834 12.833 117.501 20.5s130.5 11.5 200.5 11.5c156 0 270 -25 342 -75s108 -126 108 -228v-17c0 -46.667 -13.333 -91.667 -40 -135s-64.334 -77.333 -113.001 -102c102 -49.333 153 -129.333 153 -240
v-18z" />
    <glyph glyph-name="afii10074" unicode="&#xe8;" horiz-adv-x="1141" 
d="M1001 41c0 -11.333 -3.66602 -21 -10.999 -29s-16.333 -12 -27 -12h-103c-10.667 0 -19.834 4 -27.501 12s-11.5 17.667 -11.5 29v39c-108.667 -62.667 -217 -94 -325 -94c-238 0 -357 142 -357 426v673c0 11.333 4 21 12 29s17.667 12 29 12h99c10.667 0 20 -4 28 -12
s12 -17.667 12 -29v-673c0 -96.667 16.5 -166 49.5 -208s91.833 -63 176.5 -63c77.333 0 169.333 26.667 276 80v864c0 10.667 4.16699 20.167 12.5 28.5s17.833 12.5 28.5 12.5h101c10 0 18.833 -4 26.5 -12s11.5 -17.667 11.5 -29v-1044z" />
    <glyph glyph-name="afii10074" unicode="&#x438;" horiz-adv-x="1141" 
d="M1001 41c0 -11.333 -3.66602 -21 -10.999 -29s-16.333 -12 -27 -12h-103c-10.667 0 -19.834 4 -27.501 12s-11.5 17.667 -11.5 29v39c-108.667 -62.667 -217 -94 -325 -94c-238 0 -357 142 -357 426v673c0 11.333 4 21 12 29s17.667 12 29 12h99c10.667 0 20 -4 28 -12
s12 -17.667 12 -29v-673c0 -96.667 16.5 -166 49.5 -208s91.833 -63 176.5 -63c77.333 0 169.333 26.667 276 80v864c0 10.667 4.16699 20.167 12.5 28.5s17.833 12.5 28.5 12.5h101c10 0 18.833 -4 26.5 -12s11.5 -17.667 11.5 -29v-1044z" />
    <glyph glyph-name="afii10075" unicode="&#xe9;" horiz-adv-x="1141" 
d="M891 1595c15.333 0 23 -8.33301 23 -25c0 -37.333 -10.833 -79.833 -32.5 -127.5s-60 -88 -115 -121s-117.167 -49.5 -186.5 -49.5c-98 0 -178.333 30 -241 90s-94 129.333 -94 208c0 16.667 7.66699 25 23 25h76c18.667 0 29 -10.667 31 -32
c5.33301 -50.667 27.333 -90.667 66 -120s85 -44 139 -44c53.333 0 99.333 14.667 138 44s60.667 69.333 66 120c2 21.333 12.333 32 31 32h76zM1001 41c0 -11.333 -3.66602 -21 -10.999 -29s-16.333 -12 -27 -12h-103c-10.667 0 -19.834 4 -27.501 12
s-11.5 17.667 -11.5 29v39c-108.667 -62.667 -217 -94 -325 -94c-238 0 -357 142 -357 426v673c0 11.333 4 21 12 29s17.667 12 29 12h99c10.667 0 20 -4 28 -12s12 -17.667 12 -29v-673c0 -96.667 16.5 -166 49.5 -208s91.833 -63 176.5 -63
c77.333 0 169.333 26.667 276 80v864c0 10.667 4.16699 20.167 12.5 28.5s17.833 12.5 28.5 12.5h101c10 0 18.833 -4 26.5 -12s11.5 -17.667 11.5 -29v-1044z" />
    <glyph glyph-name="afii10075" unicode="&#x439;" horiz-adv-x="1141" 
d="M891 1595c15.333 0 23 -8.33301 23 -25c0 -37.333 -10.833 -79.833 -32.5 -127.5s-60 -88 -115 -121s-117.167 -49.5 -186.5 -49.5c-98 0 -178.333 30 -241 90s-94 129.333 -94 208c0 16.667 7.66699 25 23 25h76c18.667 0 29 -10.667 31 -32
c5.33301 -50.667 27.333 -90.667 66 -120s85 -44 139 -44c53.333 0 99.333 14.667 138 44s60.667 69.333 66 120c2 21.333 12.333 32 31 32h76zM1001 41c0 -11.333 -3.66602 -21 -10.999 -29s-16.333 -12 -27 -12h-103c-10.667 0 -19.834 4 -27.501 12
s-11.5 17.667 -11.5 29v39c-108.667 -62.667 -217 -94 -325 -94c-238 0 -357 142 -357 426v673c0 11.333 4 21 12 29s17.667 12 29 12h99c10.667 0 20 -4 28 -12s12 -17.667 12 -29v-673c0 -96.667 16.5 -166 49.5 -208s91.833 -63 176.5 -63
c77.333 0 169.333 26.667 276 80v864c0 10.667 4.16699 20.167 12.5 28.5s17.833 12.5 28.5 12.5h101c10 0 18.833 -4 26.5 -12s11.5 -17.667 11.5 -29v-1044z" />
    <glyph glyph-name="afii10076" unicode="&#xea;" horiz-adv-x="1016" 
d="M483 594l455.001 -549.001c4 -4 6 -10 6 -18c0 -18 -7.33301 -27 -22 -27h-148c-12.667 0 -21.834 2.16699 -27.501 6.5s-52.167 60.5 -139.5 168.5l-288 355v-489c0 -11.333 -4 -21 -12 -29s-17.333 -12 -28 -12h-99c-11.333 0 -21 4 -29 12s-12 17.667 -12 29v1044
c0 11.333 4 21 12 29s17.667 12 29 12h99c10.667 0 20 -4 28 -12s12 -17.667 12 -29v-438l419 471c5.33301 5.33301 16 8 32 8h143c20.667 0 31 -7.33301 31 -22c0 -7.33301 -1.33301 -12.666 -4 -15.999z" />
    <glyph glyph-name="afii10076" unicode="&#x43a;" horiz-adv-x="1016" 
d="M483 594l455.001 -549.001c4 -4 6 -10 6 -18c0 -18 -7.33301 -27 -22 -27h-148c-12.667 0 -21.834 2.16699 -27.501 6.5s-52.167 60.5 -139.5 168.5l-288 355v-489c0 -11.333 -4 -21 -12 -29s-17.333 -12 -28 -12h-99c-11.333 0 -21 4 -29 12s-12 17.667 -12 29v1044
c0 11.333 4 21 12 29s17.667 12 29 12h99c10.667 0 20 -4 28 -12s12 -17.667 12 -29v-438l419 471c5.33301 5.33301 16 8 32 8h143c20.667 0 31 -7.33301 31 -22c0 -7.33301 -1.33301 -12.666 -4 -15.999z" />
    <glyph glyph-name="afii10077" unicode="&#xeb;" horiz-adv-x="1102" 
d="M840 31l-248.001 911c-6.66699 24.667 -19.667 37 -39 37c-20.667 0 -34.334 -12.333 -41.001 -37l-248 -911c-4.66699 -20.667 -17 -31 -37 -31h-121c-22.667 0 -34 11 -34 33c0 4.66699 0.666992 9.33398 2 14.001l270 938c30.667 104 100.334 156 209.001 156
s177.667 -51.333 207 -154l268 -940c1.33301 -2.66699 2 -7.33398 2 -14.001c0 -22 -11.667 -33 -35 -33h-121c-17.333 -0 -28.666 10.333 -33.999 31z" />
    <glyph glyph-name="afii10077" unicode="&#x43b;" horiz-adv-x="1102" 
d="M840 31l-248.001 911c-6.66699 24.667 -19.667 37 -39 37c-20.667 0 -34.334 -12.333 -41.001 -37l-248 -911c-4.66699 -20.667 -17 -31 -37 -31h-121c-22.667 0 -34 11 -34 33c0 4.66699 0.666992 9.33398 2 14.001l270 938c30.667 104 100.334 156 209.001 156
s177.667 -51.333 207 -154l268 -940c1.33301 -2.66699 2 -7.33398 2 -14.001c0 -22 -11.667 -33 -35 -33h-121c-17.333 -0 -28.666 10.333 -33.999 31z" />
    <glyph glyph-name="afii10078" unicode="&#xec;" horiz-adv-x="1358" 
d="M1219 41c0 -11.333 -4.16797 -21.001 -12.501 -29.001s-17.833 -12 -28.5 -12h-95c-10.667 0 -20.167 4 -28.5 12s-12.5 17.667 -12.5 29v862l-155 -285c-56 -101.333 -87 -156.166 -93 -164.499s-15.167 -15.333 -27.5 -21s-28.166 -8.5 -47.499 -8.5h-80
c-15.333 0 -28.333 1.66699 -39 5s-19.667 8.5 -27 15.5s-22.333 30.5 -45 70.5l-213 388v-862c0 -11.333 -4 -21 -12 -29s-17.667 -12 -29 -12h-94c-11.333 0 -21 4 -29 12s-12 17.667 -12 29v1044c0 11.333 4 21 12 29s17.667 12 29 12h133c24 0 41.333 -4 52 -12
c4.66699 -4 31.667 -50.667 81 -140l122 -221l102.5 -187.5c2.33301 -4.33301 4.83301 -6.5 7.5 -6.5s6.66699 4.33301 12 13l289 524c10 20 31.667 30 65 30h134c10.667 0 20.167 -4 28.5 -12s12.5 -17.667 12.5 -29v-1044z" />
    <glyph glyph-name="afii10078" unicode="&#x43c;" horiz-adv-x="1358" 
d="M1219 41c0 -11.333 -4.16797 -21.001 -12.501 -29.001s-17.833 -12 -28.5 -12h-95c-10.667 0 -20.167 4 -28.5 12s-12.5 17.667 -12.5 29v862l-155 -285c-56 -101.333 -87 -156.166 -93 -164.499s-15.167 -15.333 -27.5 -21s-28.166 -8.5 -47.499 -8.5h-80
c-15.333 0 -28.333 1.66699 -39 5s-19.667 8.5 -27 15.5s-22.333 30.5 -45 70.5l-213 388v-862c0 -11.333 -4 -21 -12 -29s-17.667 -12 -29 -12h-94c-11.333 0 -21 4 -29 12s-12 17.667 -12 29v1044c0 11.333 4 21 12 29s17.667 12 29 12h133c24 0 41.333 -4 52 -12
c4.66699 -4 31.667 -50.667 81 -140l122 -221l102.5 -187.5c2.33301 -4.33301 4.83301 -6.5 7.5 -6.5s6.66699 4.33301 12 13l289 524c10 20 31.667 30 65 30h134c10.667 0 20.167 -4 28.5 -12s12.5 -17.667 12.5 -29v-1044z" />
    <glyph glyph-name="afii10079" unicode="&#xed;" horiz-adv-x="1182" 
d="M1042 41c0 -11.333 -4 -21 -12 -29s-17.667 -12 -29 -12h-98c-11.333 0 -21 4 -29 12s-12 17.667 -12 29v457h-543v-457c0 -11.333 -4 -21 -12 -29s-17.333 -12 -28 -12h-99c-11.333 0 -21 4 -29 12s-12 17.667 -12 29v1044c0 11.333 4 21 12 29s17.667 12 29 12h99
c10.667 0 20 -4 28 -12s12 -17.667 12 -29v-434h543v434c0 11.333 4 21 12 29s17.667 12 29 12h98c11.333 0 21 -4 29 -12s12 -17.667 12 -29v-1044z" />
    <glyph glyph-name="afii10079" unicode="&#x43d;" horiz-adv-x="1182" 
d="M1042 41c0 -11.333 -4 -21 -12 -29s-17.667 -12 -29 -12h-98c-11.333 0 -21 4 -29 12s-12 17.667 -12 29v457h-543v-457c0 -11.333 -4 -21 -12 -29s-17.333 -12 -28 -12h-99c-11.333 0 -21 4 -29 12s-12 17.667 -12 29v1044c0 11.333 4 21 12 29s17.667 12 29 12h99
c10.667 0 20 -4 28 -12s12 -17.667 12 -29v-434h543v434c0 11.333 4 21 12 29s17.667 12 29 12h98c11.333 0 21 -4 29 -12s12 -17.667 12 -29v-1044z" />
    <glyph glyph-name="afii10080" unicode="&#xee;" horiz-adv-x="1116" 
d="M1014 485c0 -156 -40 -278.167 -120 -366.5s-192.333 -132.5 -337 -132.5s-256.667 44 -336 132s-119 210.333 -119 367v156c0 154 39 275.833 117 365.5s190.667 134.5 338 134.5c144.667 0 257 -44.167 337 -132.5s120 -210.833 120 -367.5v-156zM834 485v156.001
c0 228 -92.333 342 -277 342c-182.667 0 -274 -114 -274 -342v-156c0 -228 91.333 -342 274 -342c90.667 0 159.5 29.167 206.5 87.5s70.5 143.166 70.5 254.499z" />
    <glyph glyph-name="afii10080" unicode="&#x43e;" horiz-adv-x="1116" 
d="M1014 485c0 -156 -40 -278.167 -120 -366.5s-192.333 -132.5 -337 -132.5s-256.667 44 -336 132s-119 210.333 -119 367v156c0 154 39 275.833 117 365.5s190.667 134.5 338 134.5c144.667 0 257 -44.167 337 -132.5s120 -210.833 120 -367.5v-156zM834 485v156.001
c0 228 -92.333 342 -277 342c-182.667 0 -274 -114 -274 -342v-156c0 -228 91.333 -342 274 -342c90.667 0 159.5 29.167 206.5 87.5s70.5 143.166 70.5 254.499z" />
    <glyph glyph-name="afii10081" unicode="&#xef;" horiz-adv-x="1182" 
d="M1042 893l0.00195312 -852c0 -11.333 -4 -21 -12 -29s-17.667 -12 -29 -12h-98c-11.333 0 -21 4 -29 12s-12 17.667 -12 29v852c0 30.667 -5.33301 51.334 -16 62.001s-31.334 16 -62.001 16h-387c-30.667 0 -51.334 -5.33301 -62.001 -16s-16 -31.334 -16 -62.001v-852
c0 -11.333 -4 -21 -12 -29s-17.333 -12 -28 -12h-99c-11.333 0 -21 4 -29 12s-12 17.667 -12 29v852c0 71.333 13.833 124.166 41.5 158.499s59 55.333 94 63s75.833 11.5 122.5 11.5h387c47.333 0 88.5 -3.83301 123.5 -11.5s66.167 -28.667 93.5 -63
s41 -87.166 41 -158.499z" />
    <glyph glyph-name="afii10081" unicode="&#x43f;" horiz-adv-x="1182" 
d="M1042 893l0.00195312 -852c0 -11.333 -4 -21 -12 -29s-17.667 -12 -29 -12h-98c-11.333 0 -21 4 -29 12s-12 17.667 -12 29v852c0 30.667 -5.33301 51.334 -16 62.001s-31.334 16 -62.001 16h-387c-30.667 0 -51.334 -5.33301 -62.001 -16s-16 -31.334 -16 -62.001v-852
c0 -11.333 -4 -21 -12 -29s-17.333 -12 -28 -12h-99c-11.333 0 -21 4 -29 12s-12 17.667 -12 29v852c0 71.333 13.833 124.166 41.5 158.499s59 55.333 94 63s75.833 11.5 122.5 11.5h387c47.333 0 88.5 -3.83301 123.5 -11.5s66.167 -28.667 93.5 -63
s41 -87.166 41 -158.499z" />
    <glyph glyph-name="afii10082" unicode="&#xf0;" horiz-adv-x="1108" 
d="M1006 487c0 -164 -37.833 -288.497 -113.5 -373.497s-186.834 -127.5 -333.501 -127.5c-74 0 -154 7.33301 -240 22v-370c0 -10.667 -3.66699 -19.834 -11 -27.501s-16.333 -11.5 -27 -11.5h-105c-24.667 0 -37 13 -37 39v1409c0 17.333 5.33301 29.666 16 36.999
s59.667 18.666 147 33.999s173 23 257 23c144.667 0 255.334 -43.667 332.001 -131s115 -212.333 115 -375v-148zM825 487.003v147.999c0 122.667 -21.667 212.334 -65 269.001s-110.333 85 -201 85c-80 0 -160 -6.66699 -240 -20v-811c79.333 -14 159.333 -21 240 -21
c91.333 0 158.5 27.833 201.5 83.5s64.5 144.5 64.5 266.5z" />
    <glyph glyph-name="afii10082" unicode="&#x440;" horiz-adv-x="1108" 
d="M1006 487c0 -164 -37.833 -288.497 -113.5 -373.497s-186.834 -127.5 -333.501 -127.5c-74 0 -154 7.33301 -240 22v-370c0 -10.667 -3.66699 -19.834 -11 -27.501s-16.333 -11.5 -27 -11.5h-105c-24.667 0 -37 13 -37 39v1409c0 17.333 5.33301 29.666 16 36.999
s59.667 18.666 147 33.999s173 23 257 23c144.667 0 255.334 -43.667 332.001 -131s115 -212.333 115 -375v-148zM825 487.003v147.999c0 122.667 -21.667 212.334 -65 269.001s-110.333 85 -201 85c-80 0 -160 -6.66699 -240 -20v-811c79.333 -14 159.333 -21 240 -21
c91.333 0 158.5 27.833 201.5 83.5s64.5 144.5 64.5 266.5z" />
    <glyph glyph-name="afii10083" unicode="&#xf1;" horiz-adv-x="926" 
d="M836 53c0 -22.667 -7.33105 -36.334 -21.998 -41.001s-50.667 -10.167 -108 -16.5s-113 -9.5 -167 -9.5c-136 0 -242.833 44.333 -320.5 133s-116.5 210 -116.5 364v160c0 154.667 38.667 276.334 116 365.001s184.333 133 321 133c67.333 0 129.666 -4 186.999 -12
s90 -15.167 98 -21.5s12 -17.833 12 -34.5v-74c0 -20 -14.333 -30 -43 -30c-84.667 9.33301 -169.334 14 -254.001 14c-170.667 0 -256 -113.333 -256 -340v-160c0 -226.667 85.333 -340 256 -340c74 0 134.5 2.5 181.5 7.5s72.833 7.5 77.5 7.5c25.333 0 38 -10.333 38 -31
v-74z" />
    <glyph glyph-name="afii10083" unicode="&#x441;" horiz-adv-x="926" 
d="M836 53c0 -22.667 -7.33105 -36.334 -21.998 -41.001s-50.667 -10.167 -108 -16.5s-113 -9.5 -167 -9.5c-136 0 -242.833 44.333 -320.5 133s-116.5 210 -116.5 364v160c0 154.667 38.667 276.334 116 365.001s184.333 133 321 133c67.333 0 129.666 -4 186.999 -12
s90 -15.167 98 -21.5s12 -17.833 12 -34.5v-74c0 -20 -14.333 -30 -43 -30c-84.667 9.33301 -169.334 14 -254.001 14c-170.667 0 -256 -113.333 -256 -340v-160c0 -226.667 85.333 -340 256 -340c74 0 134.5 2.5 181.5 7.5s72.833 7.5 77.5 7.5c25.333 0 38 -10.333 38 -31
v-74z" />
    <glyph glyph-name="afii10084" unicode="&#xf2;" horiz-adv-x="1081" 
d="M1010 1018c0 -11.333 -4 -21 -12 -29s-17.667 -12 -29 -12h-338v-936c0 -11.333 -4 -21 -12 -29s-17.667 -12 -29 -12h-98c-11.333 0 -21 4 -29 12s-12 17.667 -12 29v936h-338c-11.333 0 -21 4 -29 12s-12 17.667 -12 29v67c0 11.333 4 21 12 29s17.667 12 29 12h856
c11.333 0 21 -4 29 -12s12 -17.667 12 -29v-67z" />
    <glyph glyph-name="afii10084" unicode="&#x442;" horiz-adv-x="1081" 
d="M1010 1018c0 -11.333 -4 -21 -12 -29s-17.667 -12 -29 -12h-338v-936c0 -11.333 -4 -21 -12 -29s-17.667 -12 -29 -12h-98c-11.333 0 -21 4 -29 12s-12 17.667 -12 29v936h-338c-11.333 0 -21 4 -29 12s-12 17.667 -12 29v67c0 11.333 4 21 12 29s17.667 12 29 12h856
c11.333 0 21 -4 29 -12s12 -17.667 12 -29v-67z" />
    <glyph glyph-name="afii10085" unicode="&#xf3;" horiz-adv-x="1094" 
d="M1015 1077l-338.001 -1179c-36 -124 -80.667 -205.667 -134 -245s-133.666 -59 -240.999 -59c-38.667 0 -77.167 2.83301 -115.5 8.5s-64.5 11.334 -78.5 17.001s-21 14.5 -21 26.5v75c0 22 15 33 45 33c90 -8 150.667 -12 182 -12c58 0 102.667 11.167 134 33.5
s61.333 97.166 90 224.499h-29c-46 0 -79.5 12.5 -100.5 37.5s-38.167 59.5 -51.5 103.5l-272 936c-2 5.33301 -3 10.666 -3 15.999c0 22 12.667 33 38 33h112c17.333 0 29 -10.667 35 -32l242 -889c7.33301 -30 20.333 -45 39 -45h33l249 936c5.33301 20 18.333 30 39 30
h115c22 0 33 -11.333 33 -34c0 -4.66699 -0.666992 -9.66699 -2 -15z" />
    <glyph glyph-name="afii10085" unicode="&#x443;" horiz-adv-x="1094" 
d="M1015 1077l-338.001 -1179c-36 -124 -80.667 -205.667 -134 -245s-133.666 -59 -240.999 -59c-38.667 0 -77.167 2.83301 -115.5 8.5s-64.5 11.334 -78.5 17.001s-21 14.5 -21 26.5v75c0 22 15 33 45 33c90 -8 150.667 -12 182 -12c58 0 102.667 11.167 134 33.5
s61.333 97.166 90 224.499h-29c-46 0 -79.5 12.5 -100.5 37.5s-38.167 59.5 -51.5 103.5l-272 936c-2 5.33301 -3 10.666 -3 15.999c0 22 12.667 33 38 33h112c17.333 0 29 -10.667 35 -32l242 -889c7.33301 -30 20.333 -45 39 -45h33l249 936c5.33301 20 18.333 30 39 30
h115c22 0 33 -11.333 33 -34c0 -4.66699 -0.666992 -9.66699 -2 -15z" />
    <glyph glyph-name="afii10086" unicode="&#xf4;" horiz-adv-x="1700" 
d="M940 1499l-0.000976562 -368.999c58.667 7.33301 122 11 190 11c311.333 0 467 -168.667 467 -506v-148c0 -163.333 -37.833 -287.666 -113.5 -372.999s-186.5 -128 -332.5 -128c-44.667 0 -115 5.33301 -211 16v-364c0 -10.667 -3.66699 -19.834 -11 -27.501
s-16.666 -11.5 -27.999 -11.5h-104c-24.667 0 -37 13 -37 39v364c-98.667 -10.667 -169 -16 -211 -16c-146 0 -257 42.667 -333 128s-114 209.666 -114 372.999v148c0 337.333 155.667 506 467 506c68 0 131.667 -3.66699 191 -11v369c0 11.333 4 21 12 29s17.667 12 29 12
h98c11.333 0 21 -4 29 -12s12 -17.667 12 -29zM939.999 152.001c84 -10 154.334 -15 211.001 -15c91.333 0 158.5 27.833 201.5 83.5s64.5 144.5 64.5 266.5v148c0 126 -22.833 216.5 -68.5 271.5s-116.834 82.5 -213.501 82.5c-70 0 -135 -3.33301 -195 -10v-827z
M760 979.001c-62.667 6.66699 -127.666 10 -194.999 10c-96.667 0 -167.834 -27.5 -213.501 -82.5s-68.5 -145.5 -68.5 -271.5v-148c0 -122 21.5 -210.833 64.5 -266.5s110.167 -83.5 201.5 -83.5c54.667 0 125 5 211 15v827z" />
    <glyph glyph-name="afii10086" unicode="&#x444;" horiz-adv-x="1700" 
d="M940 1499l-0.000976562 -368.999c58.667 7.33301 122 11 190 11c311.333 0 467 -168.667 467 -506v-148c0 -163.333 -37.833 -287.666 -113.5 -372.999s-186.5 -128 -332.5 -128c-44.667 0 -115 5.33301 -211 16v-364c0 -10.667 -3.66699 -19.834 -11 -27.501
s-16.666 -11.5 -27.999 -11.5h-104c-24.667 0 -37 13 -37 39v364c-98.667 -10.667 -169 -16 -211 -16c-146 0 -257 42.667 -333 128s-114 209.666 -114 372.999v148c0 337.333 155.667 506 467 506c68 0 131.667 -3.66699 191 -11v369c0 11.333 4 21 12 29s17.667 12 29 12
h98c11.333 0 21 -4 29 -12s12 -17.667 12 -29zM939.999 152.001c84 -10 154.334 -15 211.001 -15c91.333 0 158.5 27.833 201.5 83.5s64.5 144.5 64.5 266.5v148c0 126 -22.833 216.5 -68.5 271.5s-116.834 82.5 -213.501 82.5c-70 0 -135 -3.33301 -195 -10v-827z
M760 979.001c-62.667 6.66699 -127.666 10 -194.999 10c-96.667 0 -167.834 -27.5 -213.501 -82.5s-68.5 -145.5 -68.5 -271.5v-148c0 -122 21.5 -210.833 64.5 -266.5s110.167 -83.5 201.5 -83.5c54.667 0 125 5 211 15v827z" />
    <glyph glyph-name="afii10087" unicode="&#xf5;" horiz-adv-x="1120" 
d="M1048 47c6 -8.66699 9 -17 9 -25c0 -14.667 -9 -22 -27 -22h-141c-8.66699 -0 -14.834 1.33301 -18.501 4s-36.5 50 -98.5 142l-205 298l-256 -370l-46 -67c-3.33301 -4.66699 -12 -7 -26 -7h-123c-16 0 -24 6.66699 -24 20c0 8 2.66699 16 8 24l371 529l-238 344
c-76 108.667 -115 165.5 -117 170.5s-3 9.83301 -3 14.5c0 16 10 24 30 24h133c10.667 0 18.667 -2.33301 24 -7s37.333 -50.667 96 -138l181 -268c175.333 257.333 266.333 390.5 273 399.5s17.334 13.5 32.001 13.5h119c18 0 27 -7.66699 27 -23c0 -9.33301 -3 -18 -9 -26
l-345 -491z" />
    <glyph glyph-name="afii10087" unicode="&#x445;" horiz-adv-x="1120" 
d="M1048 47c6 -8.66699 9 -17 9 -25c0 -14.667 -9 -22 -27 -22h-141c-8.66699 -0 -14.834 1.33301 -18.501 4s-36.5 50 -98.5 142l-205 298l-256 -370l-46 -67c-3.33301 -4.66699 -12 -7 -26 -7h-123c-16 0 -24 6.66699 -24 20c0 8 2.66699 16 8 24l371 529l-238 344
c-76 108.667 -115 165.5 -117 170.5s-3 9.83301 -3 14.5c0 16 10 24 30 24h133c10.667 0 18.667 -2.33301 24 -7s37.333 -50.667 96 -138l181 -268c175.333 257.333 266.333 390.5 273 399.5s17.334 13.5 32.001 13.5h119c18 0 27 -7.66699 27 -23c0 -9.33301 -3 -18 -9 -26
l-345 -491z" />
    <glyph glyph-name="afii10088" unicode="&#xf6;" horiz-adv-x="1196" 
d="M862 233v852.001c0 11.333 4 21 12 29s17.667 12 29 12h98c11.333 0 21 -4 29 -12s12 -17.667 12 -29v-854c0 -28 -2.66699 -53 -8 -75h80c11.333 0 21 -3.83301 29 -11.5s12 -16.834 12 -27.501v-299c0 -11.333 -4 -21 -12 -29s-17.667 -12 -29 -12h-96
c-11.333 0 -21 4 -29 12s-12 17.667 -12 29v182h-580c-46.667 0 -87.5 4 -122.5 12s-66.333 29 -94 63s-41.5 86.667 -41.5 158v852c0 11.333 4 21 12 29s17.667 12 29 12h99c10.667 0 20 -4 28 -12s12 -17.667 12 -29v-852c0 -30.667 5.33301 -51.167 16 -61.5
s31.334 -15.5 62.001 -15.5h387c31.333 0 52.166 5.16699 62.499 15.5s15.5 30.833 15.5 61.5z" />
    <glyph glyph-name="afii10088" unicode="&#x446;" horiz-adv-x="1196" 
d="M862 233v852.001c0 11.333 4 21 12 29s17.667 12 29 12h98c11.333 0 21 -4 29 -12s12 -17.667 12 -29v-854c0 -28 -2.66699 -53 -8 -75h80c11.333 0 21 -3.83301 29 -11.5s12 -16.834 12 -27.501v-299c0 -11.333 -4 -21 -12 -29s-17.667 -12 -29 -12h-96
c-11.333 0 -21 4 -29 12s-12 17.667 -12 29v182h-580c-46.667 0 -87.5 4 -122.5 12s-66.333 29 -94 63s-41.5 86.667 -41.5 158v852c0 11.333 4 21 12 29s17.667 12 29 12h99c10.667 0 20 -4 28 -12s12 -17.667 12 -29v-852c0 -30.667 5.33301 -51.167 16 -61.5
s31.334 -15.5 62.001 -15.5h387c31.333 0 52.166 5.16699 62.499 15.5s15.5 30.833 15.5 61.5z" />
    <glyph glyph-name="afii10089" unicode="&#xf7;" horiz-adv-x="1116" 
d="M977 41c0 -11.333 -4 -21 -12 -29s-17.667 -12 -29 -12h-98c-11.333 0 -21 4 -29 12s-12 17.667 -12 29v420c-108 -18 -207.667 -27 -299 -27c-139.333 0 -240.166 27.167 -302.499 81.5s-93.5 136.5 -93.5 246.5v323c0 11.333 4 21 12 29s17.667 12 29 12h99
c10.667 0 20.167 -4 28.5 -12s12.5 -17.667 12.5 -29v-323c0 -70.667 17.5 -118.667 52.5 -144s101.5 -38 199.5 -38c79.333 0 166.666 7.33301 261.999 22v483c0 11.333 4 21 12 29s17.667 12 29 12h98c11.333 0 21 -4 29 -12s12 -17.667 12 -29v-1044z" />
    <glyph glyph-name="afii10089" unicode="&#x447;" horiz-adv-x="1116" 
d="M977 41c0 -11.333 -4 -21 -12 -29s-17.667 -12 -29 -12h-98c-11.333 0 -21 4 -29 12s-12 17.667 -12 29v420c-108 -18 -207.667 -27 -299 -27c-139.333 0 -240.166 27.167 -302.499 81.5s-93.5 136.5 -93.5 246.5v323c0 11.333 4 21 12 29s17.667 12 29 12h99
c10.667 0 20.167 -4 28.5 -12s12.5 -17.667 12.5 -29v-323c0 -70.667 17.5 -118.667 52.5 -144s101.5 -38 199.5 -38c79.333 0 166.666 7.33301 261.999 22v483c0 11.333 4 21 12 29s17.667 12 29 12h98c11.333 0 21 -4 29 -12s12 -17.667 12 -29v-1044z" />
    <glyph glyph-name="afii10090" unicode="&#xf8;" horiz-adv-x="1659" 
d="M1520 233c0 -71.333 -13.834 -124 -41.501 -158s-59 -55 -94 -63s-75.833 -12 -122.5 -12h-865c-46.667 0 -87.5 4 -122.5 12s-66.333 29 -94 63s-41.5 86.667 -41.5 158v852c0 11.333 4 21 12 29s17.667 12 29 12h99c10.667 0 20 -4 28 -12s12 -17.667 12 -29v-852
c0 -30.667 5.33301 -51.167 16 -61.5s31.334 -15.5 62.001 -15.5h342v929c0 11.333 4 21 12 29s17.667 12 29 12h99c10.667 0 20.167 -4 28.5 -12s12.5 -17.667 12.5 -29v-929h342c30.667 0 51.167 5.16699 61.5 15.5s15.5 30.833 15.5 61.5v852
c0 11.333 4.16699 21 12.5 29s17.833 12 28.5 12h99c11.333 0 21 -4 29 -12s12 -17.667 12 -29v-852z" />
    <glyph glyph-name="afii10090" unicode="&#x448;" horiz-adv-x="1659" 
d="M1520 233c0 -71.333 -13.834 -124 -41.501 -158s-59 -55 -94 -63s-75.833 -12 -122.5 -12h-865c-46.667 0 -87.5 4 -122.5 12s-66.333 29 -94 63s-41.5 86.667 -41.5 158v852c0 11.333 4 21 12 29s17.667 12 29 12h99c10.667 0 20 -4 28 -12s12 -17.667 12 -29v-852
c0 -30.667 5.33301 -51.167 16 -61.5s31.334 -15.5 62.001 -15.5h342v929c0 11.333 4 21 12 29s17.667 12 29 12h99c10.667 0 20.167 -4 28.5 -12s12.5 -17.667 12.5 -29v-929h342c30.667 0 51.167 5.16699 61.5 15.5s15.5 30.833 15.5 61.5v852
c0 11.333 4.16699 21 12.5 29s17.833 12 28.5 12h99c11.333 0 21 -4 29 -12s12 -17.667 12 -29v-852z" />
    <glyph glyph-name="afii10091" unicode="&#xf9;" horiz-adv-x="1683" 
d="M1520 231c0 -35.333 -3.00098 -60.332 -9.00098 -74.999h80c11.333 0 21 -3.83301 29 -11.5s12 -16.834 12 -27.501v-299c0 -11.333 -4 -21 -12 -29s-17.667 -12 -29 -12h-96c-11.333 0 -21 4 -29 12s-12 17.667 -12 29v182h-1057c-46.667 0 -87.5 4 -122.5 12
s-66.333 29 -94 63s-41.5 86.667 -41.5 158v852c0 11.333 4 21 12 29s17.667 12 29 12h99c10.667 0 20 -4 28 -12s12 -17.667 12 -29v-852c0 -30.667 5.33301 -51.167 16 -61.5s31.334 -15.5 62.001 -15.5h342v929c0 11.333 4 21 12 29s17.667 12 29 12h99
c10.667 0 20.167 -4 28.5 -12s12.5 -17.667 12.5 -29v-929h342c30.667 0 51.167 5.16699 61.5 15.5s15.5 30.833 15.5 61.5v852c0 11.333 4.16699 21 12.5 29s17.833 12 28.5 12h99c11.333 0 21 -4 29 -12s12 -17.667 12 -29v-854z" />
    <glyph glyph-name="afii10091" unicode="&#x449;" horiz-adv-x="1683" 
d="M1520 231c0 -35.333 -3.00098 -60.332 -9.00098 -74.999h80c11.333 0 21 -3.83301 29 -11.5s12 -16.834 12 -27.501v-299c0 -11.333 -4 -21 -12 -29s-17.667 -12 -29 -12h-96c-11.333 0 -21 4 -29 12s-12 17.667 -12 29v182h-1057c-46.667 0 -87.5 4 -122.5 12
s-66.333 29 -94 63s-41.5 86.667 -41.5 158v852c0 11.333 4 21 12 29s17.667 12 29 12h99c10.667 0 20 -4 28 -12s12 -17.667 12 -29v-852c0 -30.667 5.33301 -51.167 16 -61.5s31.334 -15.5 62.001 -15.5h342v929c0 11.333 4 21 12 29s17.667 12 29 12h99
c10.667 0 20.167 -4 28.5 -12s12.5 -17.667 12.5 -29v-929h342c30.667 0 51.167 5.16699 61.5 15.5s15.5 30.833 15.5 61.5v852c0 11.333 4.16699 21 12.5 29s17.833 12 28.5 12h99c11.333 0 21 -4 29 -12s12 -17.667 12 -29v-854z" />
    <glyph glyph-name="afii10092" unicode="&#xfa;" horiz-adv-x="1219" 
d="M1137 330c0 -229.333 -172.999 -343.999 -518.999 -343.999c-73.333 0 -148.333 1.66699 -225 5s-120.334 10.166 -131.001 20.499s-16 24.833 -16 43.5v916h-174c-11.333 0 -21 4 -29 12s-12 17.667 -12 29v73c0 11.333 4 21 12 29s17.667 12 29 12h313
c11.333 0 21 -4 29 -12s12 -17.667 12 -29v-399c78 2.66699 142 4 192 4c346 0 519 -114.667 519 -344v-16zM954.001 330.001v15.998c0 64.667 -27.333 112.334 -82 143.001s-141.334 46 -260.001 46l-186 -7v-381l186 -6c118.667 0 205.334 15.333 260.001 46
s82 78.334 82 143.001z" />
    <glyph glyph-name="afii10092" unicode="&#x44a;" horiz-adv-x="1219" 
d="M1137 330c0 -229.333 -172.999 -343.999 -518.999 -343.999c-73.333 0 -148.333 1.66699 -225 5s-120.334 10.166 -131.001 20.499s-16 24.833 -16 43.5v916h-174c-11.333 0 -21 4 -29 12s-12 17.667 -12 29v73c0 11.333 4 21 12 29s17.667 12 29 12h313
c11.333 0 21 -4 29 -12s12 -17.667 12 -29v-399c78 2.66699 142 4 192 4c346 0 519 -114.667 519 -344v-16zM954.001 330.001v15.998c0 64.667 -27.333 112.334 -82 143.001s-141.334 46 -260.001 46l-186 -7v-381l186 -6c118.667 0 205.334 15.333 260.001 46
s82 78.334 82 143.001z" />
    <glyph glyph-name="afii10093" unicode="&#xfb;" horiz-adv-x="1530" 
d="M1370 41c0 -11.333 -4 -21 -12 -29s-17.667 -12 -29 -12h-98c-11.333 0 -21 4 -29 12s-12 17.667 -12 29v1044c0 11.333 4 21 12 29s17.667 12 29 12h98c11.333 0 21 -4 29 -12s12 -17.667 12 -29v-1044zM1030 330c0 -229.333 -172.667 -343.999 -518 -343.999
c-73.333 0 -148.333 1.66699 -225 5s-120.5 10.166 -131.5 20.499s-16.5 24.833 -16.5 43.5v1030c0 11.333 4 21 12 29s17.667 12 29 12h99c10.667 0 20 -4 28 -12s12 -17.667 12 -29v-399c78 2.66699 142.333 4 193 4c345.333 0 518 -114.667 518 -344v-16zM848 330.001
v15.998c0 64.667 -27.5 112.334 -82.5 143.001s-141.5 46 -259.5 46l-187 -7v-381l187 -6c118 0 204.5 15.333 259.5 46s82.5 78.334 82.5 143.001z" />
    <glyph glyph-name="afii10093" unicode="&#x44b;" horiz-adv-x="1530" 
d="M1370 41c0 -11.333 -4 -21 -12 -29s-17.667 -12 -29 -12h-98c-11.333 0 -21 4 -29 12s-12 17.667 -12 29v1044c0 11.333 4 21 12 29s17.667 12 29 12h98c11.333 0 21 -4 29 -12s12 -17.667 12 -29v-1044zM1030 330c0 -229.333 -172.667 -343.999 -518 -343.999
c-73.333 0 -148.333 1.66699 -225 5s-120.5 10.166 -131.5 20.499s-16.5 24.833 -16.5 43.5v1030c0 11.333 4 21 12 29s17.667 12 29 12h99c10.667 0 20 -4 28 -12s12 -17.667 12 -29v-399c78 2.66699 142.333 4 193 4c345.333 0 518 -114.667 518 -344v-16zM848 330.001
v15.998c0 64.667 -27.5 112.334 -82.5 143.001s-141.5 46 -259.5 46l-187 -7v-381l187 -6c118 0 204.5 15.333 259.5 46s82.5 78.334 82.5 143.001z" />
    <glyph glyph-name="afii10094" unicode="&#xfc;" horiz-adv-x="1112" 
d="M1030 330c0 -229.333 -172.667 -343.999 -518 -343.999c-73.333 0 -148.333 1.66699 -225 5s-120.5 10.166 -131.5 20.499s-16.5 24.833 -16.5 43.5v1030c0 11.333 4 21 12 29s17.667 12 29 12h99c10.667 0 20 -4 28 -12s12 -17.667 12 -29v-399
c78 2.66699 142.333 4 193 4c345.333 0 518 -114.667 518 -344v-16zM848 330.001v15.998c0 64.667 -27.5 112.334 -82.5 143.001s-141.5 46 -259.5 46l-187 -7v-381l187 -6c118 0 204.5 15.333 259.5 46s82.5 78.334 82.5 143.001z" />
    <glyph glyph-name="afii10094" unicode="&#x44c;" horiz-adv-x="1112" 
d="M1030 330c0 -229.333 -172.667 -343.999 -518 -343.999c-73.333 0 -148.333 1.66699 -225 5s-120.5 10.166 -131.5 20.499s-16.5 24.833 -16.5 43.5v1030c0 11.333 4 21 12 29s17.667 12 29 12h99c10.667 0 20 -4 28 -12s12 -17.667 12 -29v-399
c78 2.66699 142.333 4 193 4c345.333 0 518 -114.667 518 -344v-16zM848 330.001v15.998c0 64.667 -27.5 112.334 -82.5 143.001s-141.5 46 -259.5 46l-187 -7v-381l187 -6c118 0 204.5 15.333 259.5 46s82.5 78.334 82.5 143.001z" />
    <glyph glyph-name="afii10095" unicode="&#xfd;" horiz-adv-x="926" 
d="M90 53l0.00195312 73.998c0 20.667 12 31 36 31l117 -9c45.333 -4 88.666 -6 129.999 -6c180 0 270 113.333 270 340v13h-424c-11.333 0 -21 4 -29 12s-12 17.667 -12 29v71c0 11.333 4 21 12 29s17.667 12 29 12h424c-2 222.667 -92 334 -270 334
c-76 0 -156 -4.66699 -240 -14c-28.667 0 -43 10 -43 30v74c0 16.667 4 28.167 12 34.5s40.667 13.5 98 21.5s119.666 12 186.999 12c144 0 252.667 -44.167 326 -132.5s110 -210.166 110 -365.499v-160c0 -157.333 -37.833 -279.5 -113.5 -366.5
s-183.167 -130.5 -322.5 -130.5c-54.667 0 -110.5 3.16699 -167.5 9.5s-92.833 11.833 -107.5 16.5s-22 18.334 -22 41.001z" />
    <glyph glyph-name="afii10095" unicode="&#x44d;" horiz-adv-x="926" 
d="M90 53l0.00195312 73.998c0 20.667 12 31 36 31l117 -9c45.333 -4 88.666 -6 129.999 -6c180 0 270 113.333 270 340v13h-424c-11.333 0 -21 4 -29 12s-12 17.667 -12 29v71c0 11.333 4 21 12 29s17.667 12 29 12h424c-2 222.667 -92 334 -270 334
c-76 0 -156 -4.66699 -240 -14c-28.667 0 -43 10 -43 30v74c0 16.667 4 28.167 12 34.5s40.667 13.5 98 21.5s119.666 12 186.999 12c144 0 252.667 -44.167 326 -132.5s110 -210.166 110 -365.499v-160c0 -157.333 -37.833 -279.5 -113.5 -366.5
s-183.167 -130.5 -322.5 -130.5c-54.667 0 -110.5 3.16699 -167.5 9.5s-92.833 11.833 -107.5 16.5s-22 18.334 -22 41.001z" />
    <glyph glyph-name="afii10096" unicode="&#xfe;" horiz-adv-x="1581" 
d="M1479 485c0 -156 -39.998 -278.168 -119.998 -366.501s-192.333 -132.5 -337 -132.5s-256.667 44 -336 132s-119 210.333 -119 367v15h-248v-459c0 -11.333 -4 -21 -12 -29s-17.333 -12 -28 -12h-99c-11.333 0 -21 4 -29 12s-12 17.667 -12 29v1044c0 11.333 4 21 12 29
s17.667 12 29 12h99c10.667 0 20 -4 28 -12s12 -17.667 12 -29v-436h248c1.33301 154.667 41.666 275.334 120.999 362.001s190.666 130 333.999 130c144.667 0 257 -44.167 337 -132.5s120 -210.833 120 -367.5v-156zM1298 484.999l-0.000976562 156.001
c0 228 -92 342 -276 342c-182.667 0 -274 -114 -274 -342v-156c0 -228 91.333 -342 274 -342c90.667 0 159.334 29.167 206.001 87.5s70 143.166 70 254.499z" />
    <glyph glyph-name="afii10096" unicode="&#x44e;" horiz-adv-x="1581" 
d="M1479 485c0 -156 -39.998 -278.168 -119.998 -366.501s-192.333 -132.5 -337 -132.5s-256.667 44 -336 132s-119 210.333 -119 367v15h-248v-459c0 -11.333 -4 -21 -12 -29s-17.333 -12 -28 -12h-99c-11.333 0 -21 4 -29 12s-12 17.667 -12 29v1044c0 11.333 4 21 12 29
s17.667 12 29 12h99c10.667 0 20 -4 28 -12s12 -17.667 12 -29v-436h248c1.33301 154.667 41.666 275.334 120.999 362.001s190.666 130 333.999 130c144.667 0 257 -44.167 337 -132.5s120 -210.833 120 -367.5v-156zM1298 484.999l-0.000976562 156.001
c0 228 -92 342 -276 342c-182.667 0 -274 -114 -274 -342v-156c0 -228 91.333 -342 274 -342c90.667 0 159.334 29.167 206.001 87.5s70 143.166 70 254.499z" />
    <glyph glyph-name="afii10097" unicode="&#xff;" horiz-adv-x="1104" 
d="M971 41c0 -11.333 -4.16895 -20.999 -12.502 -28.999s-17.833 -12 -28.5 -12h-99c-10.667 0 -20.167 4 -28.5 12s-12.5 17.667 -12.5 29v420c-58 -2.66699 -107 -4 -147 -4h-41l-195 -276c-74.667 -106 -114 -161.5 -118 -166.5s-9.66699 -8.66699 -17 -11
s-16.666 -3.5 -27.999 -3.5h-113c-22 0 -33 10 -33 30c0 6.66699 0.666992 11.334 2 14.001l314 433c-86 20 -152.333 58.167 -199 114.5s-70 124.833 -70 205.5v10c0 222.667 166 334 498 334c62 0 126.333 -1.83301 193 -5.5s105.834 -8.83398 117.501 -15.501
s17.5 -18.334 17.5 -35.001v-1044zM789.998 606.001v383c-27.333 2.66699 -76.333 4 -147 4c-115.333 0 -197.833 -14.5 -247.5 -43.5s-74.5 -76.5 -74.5 -142.5v-10c0 -70 24 -120 72 -150s131.333 -45 250 -45c10.667 0 59.667 1.33301 147 4z" />
    <glyph glyph-name="afii10097" unicode="&#x44f;" horiz-adv-x="1104" 
d="M971 41c0 -11.333 -4.16895 -20.999 -12.502 -28.999s-17.833 -12 -28.5 -12h-99c-10.667 0 -20.167 4 -28.5 12s-12.5 17.667 -12.5 29v420c-58 -2.66699 -107 -4 -147 -4h-41l-195 -276c-74.667 -106 -114 -161.5 -118 -166.5s-9.66699 -8.66699 -17 -11
s-16.666 -3.5 -27.999 -3.5h-113c-22 0 -33 10 -33 30c0 6.66699 0.666992 11.334 2 14.001l314 433c-86 20 -152.333 58.167 -199 114.5s-70 124.833 -70 205.5v10c0 222.667 166 334 498 334c62 0 126.333 -1.83301 193 -5.5s105.834 -8.83398 117.501 -15.501
s17.5 -18.334 17.5 -35.001v-1044zM789.998 606.001v383c-27.333 2.66699 -76.333 4 -147 4c-115.333 0 -197.833 -14.5 -247.5 -43.5s-74.5 -76.5 -74.5 -142.5v-10c0 -70 24 -120 72 -150s131.333 -45 250 -45c10.667 0 59.667 1.33301 147 4z" />
    <glyph glyph-name="Euro" unicode="&#x2c6;" 
d="M1135 53c0 -12 -4.00195 -21.3369 -12.002 -28.0039s-17.667 -11 -29 -13l-59.5 -11c-18.333 -3.33301 -38.666 -6 -60.999 -8s-48.166 -3.66699 -77.499 -5s-66 -2 -110 -2c-40 0 -81.167 3.83301 -123.5 11.5s-83.833 20 -124.5 37s-79.5 39.667 -116.5 68
s-70 63 -99 104s-53 89.333 -72 145s-30.833 119.5 -35.5 191.5h-68c-11.333 0 -21 4 -29 12s-12 17.667 -12 29v57c0 11.333 4 21 12 29s17.667 12 29 12h66v166h-66c-11.333 0 -21 4 -29 12s-12 17.667 -12 29v57c0 11.333 4 21 12 29s17.667 12 29 12h68
c5.33301 71.333 17.5 134.5 36.5 189.5s43.167 102.833 72.5 143.5s62.5 74.834 99.5 102.501s75.667 49.834 116 66.501s81.666 28.667 123.999 36s83.166 11 122.499 11c32 0 62.167 -1 90.5 -3s55.166 -4.66699 80.499 -8s49.5 -6.83301 72.5 -10.5
s45.833 -7.5 68.5 -11.5c9.33301 -1.33301 17 -3.66602 23 -6.99902s9 -9.66602 9 -18.999v-105c0 -6 -1.5 -11.167 -4.5 -15.5s-9.5 -6.5 -19.5 -6.5h-6c-37.333 3.33301 -83.666 7.16602 -138.999 11.499s-113 6.5 -173 6.5c-46 0 -90.667 -6.33301 -134 -19
s-82.5 -33.834 -117.5 -63.501s-64.333 -68.834 -88 -117.501s-38.834 -109 -45.501 -181h594c10.667 0 19.167 -3.16699 25.5 -9.5s9.5 -14.166 9.5 -23.499c0 -1.33301 -0.333008 -2.66602 -1 -3.99902s-1 -2.66602 -1 -3.99902l-14 -57
c-3.33301 -11.333 -8.16602 -21 -14.499 -29s-15.166 -12 -26.499 -12h-576v-166h527c9.33301 0 16.666 -2.83301 21.999 -8.5s8 -13.167 8 -22.5c0 -1.33301 -0.333008 -2.83301 -1 -4.5s-1 -3.5 -1 -5.5l-14 -57c-3.33301 -11.333 -8.16602 -21 -14.499 -29
s-15.166 -12 -26.499 -12h-498c6 -72.667 20.833 -133.834 44.5 -183.501s53.167 -89.667 88.5 -120s74.833 -52.166 118.5 -65.499s88.834 -20 135.501 -20c60 0 116.667 1.83301 170 5.5s98.666 7.16699 135.999 10.5h8c22 0 33 -11 33 -33v-84v0z" />
    <glyph glyph-name="mu" unicode="&#x3bc;" horiz-adv-x="1141" 
d="M1001 90c0 -10 -2.99805 -19.334 -8.99805 -28.001s-15.667 -15 -29 -19c-24 -8.66699 -50.667 -16.5 -80 -23.5s-60.333 -13 -93 -18s-66.5 -8.83301 -101.5 -11.5s-69.833 -4 -104.5 -4c-108 0 -196.333 19.667 -265 59v-405c0 -11.333 -3.83301 -21 -11.5 -29
s-17.167 -12 -28.5 -12h-99c-11.333 0 -21 4 -29 12s-12 17.667 -12 29v1445c0 10.667 3.66699 20.167 11 28.5s16.666 12.5 27.999 12.5h103c10 0 18.833 -4 26.5 -12s11.5 -17.667 11.5 -29v-673c0 -95.333 21.333 -164.666 64 -207.999s109.667 -65 201 -65
c41.333 0 83.166 2.5 125.499 7.5s79.5 12.167 111.5 21.5v917c0 10.667 4 20.167 12 28.5s17.667 12.5 29 12.5h101c10 0 18.833 -4 26.5 -12s11.5 -17.667 11.5 -29v-995v0z" />
    <glyph glyph-name="endash" unicode="&#x2013;" horiz-adv-x="635" 
d="M666 539c0 -23.333 -13 -35 -39 -35h-619c-26 0 -39 11.667 -39 35v79c0 24.667 13 37 39 37h619c26 0 39 -12.333 39 -37v-79z" />
    <glyph glyph-name="emdash" unicode="&#x2014;" horiz-adv-x="1229" 
d="M1260 539c0 -23.333 -13 -35 -39 -35h-1213c-26 0 -39 11.667 -39 35v79c0 24.667 13 37 39 37h1213c26 0 39 -12.333 39 -37v-79z" />
    <glyph glyph-name="quoteleft" unicode="&#x2018;" horiz-adv-x="381" 
d="M303 1540c12.667 0 19.001 -6.66797 19.001 -20.001c0 -5.33301 -5.33301 -35.333 -16 -90l-40 -200c-15.333 -79.333 -24 -122.5 -26 -129.5s-6.33301 -13 -13 -18s-14.667 -7.5 -24 -7.5h-121c-15.333 0 -23 7.66699 -23 23c0 6.66699 13.667 52 41 136l67 207
c17.333 54.667 28.666 84.834 33.999 90.501s13.333 8.5 24 8.5h78z" />
    <glyph glyph-name="quoteright" unicode="&#x2019;" horiz-adv-x="381" 
d="M322 1518c0 -2.66699 -0.166992 -5.33398 -0.5 -8.00098s-1.16602 -5.66699 -2.49902 -9l-124 -387c-4.66699 -14.667 -9.83398 -24.834 -15.501 -30.501s-13.5 -8.5 -23.5 -8.5h-78c-7.33301 0 -12.333 1.83301 -15 5.5s-4 8.83398 -4 15.501v9
c0 2.66699 0.666992 5.66699 2 9l76 387c3.33301 14.667 8.5 24.834 15.5 30.501s15.5 8.5 25.5 8.5h121c15.333 0 23 -7.33301 23 -22z" />
    <glyph glyph-name="quotesinglbase" unicode="&#x201a;" horiz-adv-x="381" 
d="M346 242c0 -2 -0.334961 -4.5 -1.00195 -7.5s-1.66699 -6.16699 -3 -9.5l-154 -387c-5.33301 -13.333 -10.166 -23.166 -14.499 -29.499s-12.166 -9.5 -23.499 -9.5h-84c-8.66699 0 -15 2.33301 -19 7s-6 10.667 -6 18v7c0 2.66699 0.666992 5 2 7l117 387
c4 13.333 9 23.166 15 29.499s14.667 9.5 26 9.5h118c18 0 27 -7.33301 27 -22z" />
    <glyph glyph-name="quotedblleft" unicode="&#x201c;" horiz-adv-x="688" 
d="M610 1540c12.667 0 19 -6.66797 19 -20.001c0 -5.33301 -5.33301 -35.333 -16 -90l-39 -200c-16 -79.333 -25 -122.5 -27 -129.5s-6.16699 -13 -12.5 -18s-14.5 -7.5 -24.5 -7.5h-121c-14.667 0 -22 7.66699 -22 23c0 6.66699 13.333 52 40 136l67 207
c18 54.667 29.5 84.834 34.5 90.501s12.833 8.5 23.5 8.5h78zM303 1540c12.667 0 19.001 -6.66797 19.001 -20.001c0 -5.33301 -5.33301 -35.333 -16 -90l-40 -200c-15.333 -79.333 -24 -122.5 -26 -129.5s-6.33301 -13 -13 -18s-14.667 -7.5 -24 -7.5h-121
c-15.333 0 -23 7.66699 -23 23c0 6.66699 13.667 52 41 136l67 207c17.333 54.667 28.666 84.834 33.999 90.501s13.333 8.5 24 8.5h78z" />
    <glyph glyph-name="quotedblright" unicode="&#x201d;" horiz-adv-x="688" 
d="M606 1540c15.333 0 22.999 -7.33203 22.999 -21.999c0 -6.66699 -13.667 -52 -41 -136l-67 -208c-17.333 -54.667 -28.666 -84.834 -33.999 -90.501s-13.333 -8.5 -24 -8.5h-78c-12 0 -18 7 -18 21c0 5.33301 5 35 15 89l40 200c15.333 79.333 24 122.5 26 129.5
s6.33301 13 13 18s14.667 7.5 24 7.5h121zM298.999 1540c15.333 0 22.999 -7.33203 22.999 -21.999c0 -6.66699 -13.667 -52 -41 -136l-67 -208c-17.333 -54.667 -28.666 -84.834 -33.999 -90.501s-13.333 -8.5 -24 -8.5h-78c-12.667 0 -19 7 -19 21
c0 5.33301 5.33301 35 16 89l40 200c15.333 79.333 24 122.5 26 129.5s6.33301 13 13 18s14.667 7.5 24 7.5h121z" />
    <glyph glyph-name="quotedblbase" unicode="&#x201e;" horiz-adv-x="688" 
d="M715 242c0 -2 -0.333984 -4.5 -1.00098 -7.5s-1.66699 -6.16699 -3 -9.5l-154 -387c-5.33301 -13.333 -10.333 -23.166 -15 -29.499s-12.667 -9.5 -24 -9.5h-84c-8 0 -14 2.33301 -18 7s-6 10.667 -6 18v7c0 2.66699 0.666992 5 2 7l116 387
c4.66699 13.333 9.83398 23.166 15.501 29.499s14.167 9.5 25.5 9.5h119c18 0 27 -7.33301 27 -22zM345.999 242c0 -2 -0.334961 -4.5 -1.00195 -7.5s-1.66699 -6.16699 -3 -9.5l-154 -387c-5.33301 -13.333 -10.166 -23.166 -14.499 -29.499s-12.166 -9.5 -23.499 -9.5h-84
c-8.66699 0 -15 2.33301 -19 7s-6 10.667 -6 18v7c0 2.66699 0.666992 5 2 7l117 387c4 13.333 9 23.166 15 29.499s14.667 9.5 26 9.5h118c18 0 27 -7.33301 27 -22z" />
    <glyph glyph-name="dagger" unicode="&#x2020;" horiz-adv-x="827" 
d="M752 1014c0 -10.667 -3.66797 -18.834 -11.001 -24.501s-16.666 -8.5 -27.999 -8.5h-224v-940c0 -11.333 -2.5 -21 -7.5 -29s-13.167 -12 -24.5 -12h-117c-11.333 0 -19.666 4 -24.999 12s-8 17.667 -8 29v940h-192c-11.333 0 -20.666 2.83301 -27.999 8.5
s-11 13.834 -11 24.501v92c0 10 3.66699 17.667 11 23s16.666 8 27.999 8h192v364c0 10.667 3 19.834 9 27.501s14.667 11.5 26 11.5h115c10 0 17.833 -3.83301 23.5 -11.5s8.5 -16.834 8.5 -27.501v-364h224c11.333 0 20.666 -2.66699 27.999 -8s11 -13 11 -23v-92v0z" />
    <glyph glyph-name="daggerdbl" unicode="&#x2021;" horiz-adv-x="827" 
d="M752 584c0 -10.667 -3.66797 -18.834 -11.001 -24.501s-16.666 -8.5 -27.999 -8.5h-224v-510c0 -11.333 -2.5 -21 -7.5 -29s-13.167 -12 -24.5 -12h-117c-11.333 0 -19.666 4 -24.999 12s-8 17.667 -8 29v510h-192c-11.333 0 -20.666 2.83301 -27.999 8.5
s-11 13.834 -11 24.501v92c0 10 3.66699 17.667 11 23s16.666 8 27.999 8h192v274h-192c-11.333 0 -20.666 2.83301 -27.999 8.5s-11 13.834 -11 24.501v92c0 10 3.66699 17.667 11 23s16.666 8 27.999 8h192v364c0 10.667 3 19.834 9 27.501s14.667 11.5 26 11.5h115
c10 0 17.833 -3.83301 23.5 -11.5s8.5 -16.834 8.5 -27.501v-364h224c11.333 0 20.666 -2.66699 27.999 -8s11 -13 11 -23v-92c0 -10.667 -3.66699 -18.834 -11 -24.501s-16.666 -8.5 -27.999 -8.5h-224v-274h224c11.333 0 20.666 -2.66699 27.999 -8s11 -13 11 -23v-92v0z
" />
    <glyph glyph-name="bullet" unicode="&#x2022;" horiz-adv-x="856" 
d="M428 1077c90 0 166.833 -31.833 230.5 -95.5s95.5 -140.167 95.5 -229.5c0 -90.667 -31.833 -167.667 -95.5 -231s-140.5 -95 -230.5 -95c-89.333 0 -166 31.833 -230 95.5s-96 140.5 -96 230.5c0 89.333 32 165.833 96 229.5s140.667 95.5 230 95.5z" />
    <glyph glyph-name="ellipsis" unicode="&#x2026;" horiz-adv-x="1241" 
d="M1122 39c0 -11.333 -3.83301 -20.666 -11.5 -27.999s-16.834 -11 -27.501 -11h-98c-10 0 -19.333 3.66699 -28 11s-13 16.666 -13 27.999v192c0 10.667 4.33301 19.834 13 27.501s18 11.5 28 11.5h98c10.667 0 19.834 -3.83301 27.501 -11.5s11.5 -16.834 11.5 -27.501
v-192zM711 39c0 -11.333 -4.33301 -20.666 -13 -27.999s-18 -11 -28 -11h-99c-10 0 -19 3.66699 -27 11s-12 16.666 -12 27.999v192c0 10.667 4 19.834 12 27.501s17 11.5 27 11.5h99c10 0 19.333 -3.83301 28 -11.5s13 -16.834 13 -27.501v-192zM297 39
c0 -11.333 -3.83301 -20.666 -11.5 -27.999s-16.834 -11 -27.501 -11h-98c-10.667 0 -20.167 3.66699 -28.5 11s-12.5 16.666 -12.5 27.999v192c0 10.667 4.16699 19.834 12.5 27.501s17.833 11.5 28.5 11.5h98c10.667 0 19.834 -3.83301 27.501 -11.5
s11.5 -16.834 11.5 -27.501v-192z" />
    <glyph glyph-name="perthousand" unicode="&#x2030;" horiz-adv-x="2322" 
d="M2230 317c0 -111.333 -24.167 -194.333 -72.5 -249s-115.5 -82 -201.5 -82s-153.667 27.333 -203 82s-74 137.667 -74 249v191c0 112.667 24.667 196.167 74 250.5s117 81.5 203 81.5s153.167 -27.167 201.5 -81.5s72.5 -137.833 72.5 -250.5v-191zM1534 317
c0 -111.333 -24.167 -194.333 -72.5 -249s-115.5 -82 -201.5 -82c-86.667 0 -154.5 27.333 -203.5 82s-73.5 137.667 -73.5 249v191c0 112.667 24.5 196.167 73.5 250.5s116.833 81.5 203.5 81.5c86 0 153.167 -27.167 201.5 -81.5s72.5 -137.833 72.5 -250.5v-191z
M1331 1509c0 -3.33301 -0.833008 -6.99902 -2.5 -10.999s-4.16699 -9 -7.5 -15l-856 -1450c-8 -14.667 -15 -25.167 -21 -31.5s-14 -9.5 -24 -9.5h-107c-10.667 0 -16 4 -16 12s3.33301 17.667 10 29l856 1450c9.33301 15.333 17 25.666 23 30.999s14 8 24 8h105
c10.667 0 16 -4.33301 16 -13zM643 1016c0 -111.333 -24.167 -194.5 -72.5 -249.5s-115.5 -82.5 -201.5 -82.5s-153.667 27.5 -203 82.5s-74 138.167 -74 249.5v190c0 112.667 24.667 195.834 74 249.501s117 80.5 203 80.5s153.167 -26.833 201.5 -80.5
s72.5 -136.834 72.5 -249.501v-190zM2103 508.001c0 78 -13 133.333 -39 166s-62 49 -108 49s-82.5 -16.333 -109.5 -49s-40.5 -88 -40.5 -166v-191c0 -77.333 13.5 -132.5 40.5 -165.5s63.5 -49.5 109.5 -49.5s82 16.5 108 49.5s39 88.167 39 165.5v191zM1407 508.001
c0 78 -13 133.333 -39 166s-62 49 -108 49c-46.667 0 -83.334 -16.333 -110.001 -49s-40 -88 -40 -166v-191c0 -77.333 13.333 -132.5 40 -165.5s63.334 -49.5 110.001 -49.5c46 0 82 16.5 108 49.5s39 88.167 39 165.5v191zM516 1206c0 78 -13 133.333 -39 166
s-62 49 -108 49c-46.667 0 -83.334 -16.333 -110.001 -49s-40 -88 -40 -166v-190c0 -78 13.333 -133.333 40 -166s63.334 -49 110.001 -49c46 0 82 16.333 108 49s39 88 39 166v190z" />
    <glyph glyph-name="guilsinglleft" unicode="&#x2039;" horiz-adv-x="725" 
d="M614 162c0 -5.33301 -1.83301 -9.83301 -5.5 -13.5s-9.16699 -5.5 -16.5 -5.5h-119c-8 0 -15.167 1.33301 -21.5 4s-13.5 8.33398 -21.5 17.001l-346 346c-7.33301 7.33301 -13 16.666 -17 27.999s-6 21 -6 29c0 8.66699 2 18.667 6 30s9.66699 20.666 17 27.999l346 346
c8 8 15.167 13.333 21.5 16s13.5 4 21.5 4h119c7.33301 0 12.833 -1.66699 16.5 -5s5.5 -7.66602 5.5 -12.999c0 -10 -4 -19 -12 -27l-364 -379l364 -379c8 -8 12 -16.667 12 -26z" />
    <glyph glyph-name="guilsinglright" unicode="&#x203a;" horiz-adv-x="725" 
d="M664 567c0 -8 -2 -17.667 -6 -29s-9.66699 -20.666 -17 -27.999l-346 -346c-8 -8.66699 -15.167 -14.334 -21.5 -17.001s-13.5 -4 -21.5 -4h-119c-7.33301 0 -12.833 1.83301 -16.5 5.5s-5.5 8.16699 -5.5 13.5c0 9.33301 4 18 12 26l364 379l-364 379
c-8 8 -12 17 -12 27c0 5.33301 1.83301 9.66602 5.5 12.999s9.16699 5 16.5 5h119c8 0 15.167 -1.33301 21.5 -4s13.5 -8 21.5 -16l346 -346c7.33301 -7.33301 13 -16.666 17 -27.999s6 -21.333 6 -30z" />
    <glyph glyph-name="trademark" unicode="&#x2122;" horiz-adv-x="1618" 
d="M1530 709c0 -14 -6.99902 -21.001 -20.999 -21.001h-84c-13.333 0 -20 7 -20 21v491c0 40.667 -2 74.5 -6 101.5s-13.333 48.667 -28 65s-36.334 27.833 -65.001 34.5s-67.334 10 -116.001 10v-702c0 -14 -7 -21 -21 -21h-86c-13.333 0 -20 7 -20 21v702
c-43.333 0 -83.166 -1.16699 -119.499 -3.5s-68.833 -5.16602 -97.5 -8.49902v-690c0 -14 -6.33301 -21 -19 -21h-84c-13.333 0 -20 7 -20 21v759c0 13.333 2.33301 22.833 7 28.5s12.667 9.16699 24 10.5c59.333 6.66699 120.166 11.834 182.499 15.501
s125.5 5.5 189.5 5.5c70.667 0 131.5 -4.16699 182.5 -12.5s92.833 -24.333 125.5 -48s56.834 -56.834 72.501 -99.501s23.5 -98.667 23.5 -168v-491zM649.001 1440c0 -10.667 -3.66895 -18.167 -11.002 -22.5s-15.333 -6.5 -24 -6.5h-198v-690
c0 -8 -3.16699 -15.5 -9.5 -22.5s-14.166 -10.5 -23.499 -10.5h-66c-9.33301 0 -16.666 3.5 -21.999 10.5s-8 14.5 -8 22.5v690h-203c-8 0 -15.5 2.16699 -22.5 6.5s-10.5 11.833 -10.5 22.5v51c0 9.33301 3.5 16.833 10.5 22.5s14.5 8.5 22.5 8.5h530
c8.66699 0 16.667 -2.83301 24 -8.5s11 -13.167 11 -22.5v-51z" />
    <glyph glyph-name="periodcentered" unicode="&#x2219;" horiz-adv-x="438" 
d="M307 707c0 -11.333 -3.66797 -21.002 -11.001 -29.002s-16.666 -12 -27.999 -12h-98c-10 0 -19 4 -27 12s-12 17.667 -12 29v190c0 10.667 3.66699 19.834 11 27.501s16.666 11.5 27.999 11.5h98c10.667 0 19.834 -3.66699 27.501 -11s11.5 -16.666 11.5 -27.999v-190v0z
" />
    <glyph glyph-name="NULL" horiz-adv-x="0" 
 />
    <glyph glyph-name="nonmarkingreturn" horiz-adv-x="506" 
 />
    </font>
</defs>
</svg>
